<?xml version="1.0" encoding="utf-8"?>
<!-- Generator: Adobe Illustrator 16.0.0, SVG Export Plug-In . SVG Version: 6.00 Build 0)  -->
<!DOCTYPE svg PUBLIC "-//W3C//DTD SVG 1.1//EN" "http://www.w3.org/Graphics/SVG/1.1/DTD/svg11.dtd">
<svg version="1.1" id="Layer_1" xmlns="http://www.w3.org/2000/svg" xmlns:xlink="http://www.w3.org/1999/xlink" x="0px" y="0px"
	 width="595.280273px" height="565px" viewBox="0 0 595.280273 565" enable-background="new 0 0 595.280273 565"
	 xml:space="preserve">
<g id="AVOCCADO_6_">
	<path d="M467.664063,481.259766c-1.544922-3.785156-3.158203-7.717773-4.837891-11.796875
		c-1.679688-4.078125-3.292969-8.009766-4.838867-11.795898s-2.985352-7.250977-4.319336-10.397461
		c-0.800781-1.892578-1.505859-3.569336-2.114258-5.039063h-25.84082c-0.62207,1.469727-1.325195,3.146484-2.111328,5.039063
		c-1.306641,3.146484-2.732422,6.611328-4.279297,10.397461c-1.544922,3.786133-3.145508,7.717773-4.798828,11.795898
		c-1.652344,4.079102-3.251953,8.011719-4.797852,11.796875s-2.985352,7.265625-4.319336,10.4375
		c-1.332031,3.171875-2.398438,5.717773-3.199219,7.637695h5.438477c1.067383-2.452148,2.320313-5.464844,3.760742-9.038086
		l14.634766-36.708984c0.106445-0.212891,0.240234-0.572266,0.399414-1.080078
		c0.160156-0.505859,0.292969-0.972656,0.400391-1.398438c0.106445,0.425781,0.239258,0.892578,0.399414,1.398438
		c0.160156,0.507813,0.292969,0.867188,0.400391,1.080078l14.634766,36.708984
		c1.44043,3.573242,2.693359,6.585938,3.759766,9.038086h29.147461c-0.852539-1.919922-1.932617-4.46582-3.239258-7.637695
		S469.210938,485.044922,467.664063,481.259766"/>
	<path fill="#FFFFFF" d="M438.583984,449.87793c1.361328-1.335938,3.050781-2.003906,5.066406-2.003906
		c0.958984,0,1.867188,0.175781,2.722656,0.529297c0.857422,0.353516,1.601563,0.844727,2.230469,1.474609
		c0.630859,0.630859,1.123047,1.374023,1.476563,2.231445c0.351563,0.856445,0.529297,1.764648,0.529297,2.722656
		c0,1.008789-0.177734,1.928711-0.529297,2.760742c-0.353516,0.832031-0.845703,1.5625-1.476563,2.192383
		c-0.628906,0.630859-1.373047,1.123047-2.230469,1.475586c-0.855469,0.352539-1.763672,0.52832-2.722656,0.52832
		c-2.015625,0-3.705078-0.666992-5.066406-2.003906c-1.361328-1.335938-2.042969-2.987305-2.042969-4.953125
		C436.541016,452.865234,437.222656,451.213867,438.583984,449.87793 M446.734375,457.911133
		c0.826172-0.827148,1.238281-1.853516,1.238281-3.079102c0-1.227539-0.412109-2.253906-1.238281-3.080078
		c-0.826172-0.825195-1.851563-1.239258-3.080078-1.239258c-1.226563,0-2.251953,0.414063-3.078125,1.239258
		c-0.826172,0.826172-1.238281,1.852539-1.238281,3.080078c0,1.225586,0.412109,2.251953,1.238281,3.079102
		c0.826172,0.826172,1.851563,1.238281,3.078125,1.238281C444.882813,459.149414,445.908203,458.737305,446.734375,457.911133"/>
</g>
<g id="AVOCCADO">
	<defs>
		<rect id="SVGID_1_" width="595.280273" height="140"/>
	</defs>
	<clipPath id="SVGID_2_">
		<use xlink:href="#SVGID_1_"  overflow="visible"/>
	</clipPath>
	<path clip-path="url(#SVGID_2_)" d="M162.663086,37.763672c1.519043-3.546387,3.599121-6.652344,6.238281-9.317383
		c2.638672-2.666992,5.731934-4.772949,9.276855-6.318848c3.545898-1.545898,7.317871-2.318848,11.316895-2.318848
		s7.78418,0.772949,11.356934,2.318848c3.572266,1.545898,6.678223,3.651855,9.316895,6.318848
		c2.63916,2.665039,4.732422,5.770996,6.27832,9.317383c1.545898,3.544922,2.318848,7.317871,2.318848,11.315918
		c0,4-0.772949,7.771973-2.318848,11.316895c-1.545898,3.545898-3.63916,6.63916-6.27832,9.277832
		c-2.638672,2.638184-5.744629,4.718262-9.316895,6.237793c-3.572754,1.519531-7.35791,2.279297-11.356934,2.279297
		s-7.770996-0.759766-11.316895-2.279297c-3.544922-1.519531-6.638184-3.599609-9.276855-6.237793
		c-2.63916-2.638672-4.719238-5.731934-6.238281-9.277832c-1.52002-3.544922-2.279785-7.316895-2.279785-11.316895
		C160.383301,45.081543,161.143066,41.308594,162.663086,37.763672 M167.701172,58.397461
		c1.25293,2.905273,2.945801,5.437988,5.079102,7.597168c2.131836,2.159668,4.637695,3.865723,7.51709,5.118652
		c2.878906,1.25293,5.945801,1.879883,9.197754,1.879883s6.331055-0.626953,9.237305-1.879883
		c2.905762-1.25293,5.438965-2.958984,7.597656-5.118652c2.160156-2.15918,3.866211-4.691895,5.119141-7.597168
		c1.251953-2.905762,1.878906-6.011719,1.878906-9.317871c0-3.305176-0.626953-6.411133-1.878906-9.316895
		c-1.25293-2.90625-2.958984-5.452148-5.119141-7.638184c-2.158691-2.186035-4.691895-3.90625-7.597656-5.158203
		c-2.90625-1.25293-5.985352-1.878906-9.237305-1.878906c-3.306152,0-6.384766,0.625977-9.236816,1.878906
		c-2.853027,1.251953-5.358887,2.972168-7.519043,5.158203c-2.15918,2.186035-3.852051,4.731934-5.078125,7.638184
		c-1.226074,2.905762-1.838867,6.011719-1.838867,9.316895C165.822266,52.385742,166.448242,55.491699,167.701172,58.397461"/>
	<path clip-path="url(#SVGID_2_)" d="M269.227539,76.751953c-2.826172,0.959961-6.10498,1.439453-9.836914,1.439453
		c-4.425781,0-8.411133-0.773438-11.957031-2.319336c-3.544922-1.545898-6.558105-3.638672-9.037109-6.277832
		s-4.398926-5.690918-5.758789-9.157227c-1.358887-3.46582-2.039063-7.14502-2.039063-11.037109
		c0-4.211914,0.772949-8.130859,2.318848-11.756836c1.547363-3.625,3.65332-6.757813,6.317871-9.396973
		c2.666016-2.640137,5.786133-4.705078,9.358398-6.197754c3.571777-1.494141,7.383789-2.240234,11.437012-2.240234
		c1.438965,0,2.891602,0.092773,4.35791,0.279785c1.466797,0.187012,2.865723,0.466309,4.19873,0.840332
		c1.333008,0.373047,2.560059,0.798828,3.679199,1.279785c1.120117,0.479004,2.080078,1.013184,2.878906,1.599121
		c-0.266113,0.426758-0.47998,0.772949-0.638672,1.040039c-0.160156,0.26709-0.321289,0.545898-0.480469,0.839844
		c-0.159668,0.292969-0.34668,0.625977-0.55957,1c-0.213379,0.373047-0.480469,0.852051-0.800293,1.438965
		c-1.706055-1.065918-3.691895-1.866699-5.958008-2.398926c-2.266113-0.53418-4.438965-0.799805-6.519043-0.799805
		c-3.35791,0-6.503906,0.639648-9.437012,1.918945c-2.931641,1.279785-5.478027,3.025879-7.636719,5.23877
		c-2.160156,2.211914-3.866211,4.770996-5.119141,7.677246c-1.25293,2.906738-1.878906,5.984863-1.878906,9.237793
		c0,3.093262,0.559082,6.064941,1.678711,8.916992c1.120117,2.853027,2.719238,5.35791,4.79834,7.518066
		c2.080078,2.15918,4.559082,3.89209,7.437988,5.199219c2.879883,1.306152,6.078613,1.958496,9.597656,1.958496
		c1.546387,0,3.039063-0.120117,4.478027-0.359375c1.44043-0.240234,2.773438-0.560547,3.999023-0.959961
		c1.227051-0.399414,2.306152-0.813477,3.240234-1.239258c0.932129-0.42627,1.666016-0.854004,2.19873-1.280273l2.479004,4.958008
		C274.319336,74.779297,272.053711,75.791992,269.227539,76.751953"/>
	<path clip-path="url(#SVGID_2_)" d="M326.328125,76.751953c-2.826172,0.959961-6.106445,1.439453-9.838867,1.439453
		c-4.424805,0-8.40918-0.773438-11.956055-2.319336c-3.545898-1.545898-6.557617-3.638672-9.036621-6.277832
		c-2.47998-2.63916-4.398926-5.690918-5.758789-9.157227c-1.358887-3.46582-2.039063-7.14502-2.039063-11.037109
		c0-4.211914,0.772949-8.130859,2.318848-11.756836c1.545898-3.625,3.652344-6.757813,6.318359-9.396973
		c2.666016-2.640137,5.785156-4.705078,9.356445-6.197754c3.573242-1.494141,7.385742-2.240234,11.4375-2.240234
		c1.439453,0,2.891602,0.092773,4.358398,0.279785s2.866211,0.466309,4.199219,0.840332
		c1.333008,0.373047,2.55957,0.798828,3.678711,1.279785c1.120117,0.479004,2.080078,1.013184,2.879883,1.599121
		c-0.267578,0.426758-0.480469,0.772949-0.640625,1.040039c-0.15918,0.26709-0.319336,0.545898-0.479492,0.839844
		c-0.160156,0.292969-0.34668,0.625977-0.560547,1c-0.212891,0.373047-0.478516,0.852051-0.798828,1.438965
		c-1.707031-1.065918-3.693359-1.866699-5.958008-2.398926c-2.266602-0.53418-4.438477-0.799805-6.518555-0.799805
		c-3.359375,0-6.504883,0.639648-9.438477,1.918945c-2.930664,1.279785-5.476563,3.025879-7.636719,5.23877
		c-2.15918,2.211914-3.866211,4.770996-5.118164,7.677246c-1.25293,2.906738-1.879883,5.984863-1.879883,9.237793
		c0,3.093262,0.560059,6.064941,1.679688,8.916992c1.119141,2.853027,2.71875,5.35791,4.797852,7.518066
		c2.080078,2.15918,4.55957,3.89209,7.438477,5.199219c2.878906,1.306152,6.078125,1.958496,9.597656,1.958496
		c1.544922,0,3.038086-0.120117,4.478516-0.359375c1.439453-0.240234,2.772461-0.560547,3.999023-0.959961
		c1.225586-0.399414,2.305664-0.813477,3.238281-1.239258c0.933594-0.42627,1.666016-0.854004,2.199219-1.280273l2.480469,4.958008
		C331.418945,74.779297,329.15332,75.791992,326.328125,76.751953"/>
	<path clip-path="url(#SVGID_2_)" d="M467.59375,37.763672c1.520508-3.546387,3.600586-6.652344,6.239258-9.317383
		c2.638672-2.666992,5.731445-4.772949,9.277344-6.318848c3.544922-1.545898,7.317383-2.318848,11.316406-2.318848
		s7.78418,0.772949,11.356445,2.318848c3.573242,1.545898,6.677734,3.651855,9.318359,6.318848
		c2.638672,2.665039,4.731445,5.770996,6.277344,9.317383c1.546875,3.544922,2.319336,7.317871,2.319336,11.315918
		c0,4-0.772461,7.771973-2.319336,11.316895c-1.545898,3.545898-3.638672,6.63916-6.277344,9.277832
		c-2.640625,2.638184-5.745117,4.718262-9.318359,6.237793c-3.572266,1.519531-7.357422,2.279297-11.356445,2.279297
		s-7.771484-0.759766-11.316406-2.279297c-3.545898-1.519531-6.638672-3.599609-9.277344-6.237793
		c-2.638672-2.638672-4.71875-5.731934-6.239258-9.277832c-1.518555-3.544922-2.27832-7.316895-2.27832-11.316895
		C465.31543,45.081543,466.075195,41.308594,467.59375,37.763672 M472.632813,58.397461
		c1.25293,2.905273,2.946289,5.437988,5.079102,7.597168c2.132813,2.159668,4.637695,3.865723,7.517578,5.118652
		s5.944336,1.879883,9.197266,1.879883c3.251953,0,6.331055-0.626953,9.237305-1.879883s5.438477-2.958984,7.597656-5.118652
		c2.15918-2.15918,3.866211-4.691895,5.118164-7.597168c1.253906-2.905762,1.879883-6.011719,1.879883-9.317871
		c0-3.305176-0.625977-6.411133-1.879883-9.316895c-1.251953-2.90625-2.958984-5.452148-5.118164-7.638184
		s-4.691406-3.90625-7.597656-5.158203c-2.90625-1.25293-5.985352-1.878906-9.237305-1.878906
		c-3.305664,0-6.384766,0.625977-9.236328,1.878906c-2.853516,1.251953-5.359375,2.972168-7.518555,5.158203
		c-2.160156,2.186035-3.852539,4.731934-5.079102,7.638184c-1.225586,2.905762-1.838867,6.011719-1.838867,9.316895
		C470.753906,52.385742,471.379883,55.491699,472.632813,58.397461"/>
	<path clip-path="url(#SVGID_2_)" d="M530.379883,25.091797c1.361328-1.335938,3.050781-2.003906,5.067383-2.003906
		c0.958008,0,1.866211,0.17627,2.722656,0.529297c0.857422,0.353027,1.600586,0.844727,2.230469,1.474609
		c0.630859,0.630371,1.12207,1.374023,1.475586,2.231445c0.352539,0.856934,0.529297,1.764648,0.529297,2.722656
		c0,1.008301-0.176758,1.928223-0.529297,2.760254c-0.353516,0.832031-0.844727,1.562988-1.475586,2.192871
		c-0.629883,0.630859-1.373047,1.123047-2.230469,1.475098c-0.856445,0.353027-1.764648,0.528809-2.722656,0.528809
		c-2.016602,0-3.706055-0.666992-5.067383-2.003906c-1.361328-1.335938-2.041992-2.986816-2.041992-4.953125
		C528.337891,28.079102,529.018555,26.428223,530.379883,25.091797 M538.530273,33.125
		c0.826172-0.827148,1.239258-1.853027,1.239258-3.079102c0-1.227051-0.413086-2.253906-1.239258-3.080078
		c-0.826172-0.825684-1.851563-1.23877-3.079102-1.23877c-1.226563,0-2.25293,0.413086-3.078125,1.23877
		c-0.826172,0.826172-1.239258,1.853027-1.239258,3.080078c0,1.226074,0.413086,2.251953,1.239258,3.079102
		c0.825195,0.826172,1.851563,1.23877,3.078125,1.23877C536.678711,34.36377,537.704102,33.951172,538.530273,33.125"/>
	<path clip-path="url(#SVGID_2_)" d="M94.570313,59.476563c-1.545898-3.784668-3.15918-7.717773-4.838867-11.796875
		c-1.679199-4.078125-3.291992-8.009766-4.838379-11.795898c-1.545898-3.786133-2.98584-7.250977-4.318848-10.396973
		c-0.801758-1.893066-1.505859-3.569824-2.114746-5.039063H76.24707c-0.621582,1.469238-1.324707,3.145996-2.11084,5.039063
		c-1.306152,3.145996-2.73291,6.61084-4.278809,10.396973s-3.145996,7.717773-4.799316,11.795898
		c-1.651855,4.079102-3.251953,8.012207-4.797852,11.796875c-1.545898,3.785156-2.98584,7.265137-4.318848,10.437012
		c-1.333008,3.172363-2.398926,5.718262-3.199219,7.638184h5.437988c1.066895-2.452148,2.320313-5.464844,3.760254-9.038086
		l14.634766-36.708984c0.106934-0.212891,0.240234-0.572754,0.399902-1.080078
		c0.160156-0.505859,0.292969-0.972656,0.400391-1.398926c0.106934,0.42627,0.239746,0.893066,0.399902,1.398926
		c0.159668,0.507324,0.292969,0.867188,0.399902,1.080078l14.634766,36.708984
		c1.44043,3.573242,2.693359,6.585938,3.759277,9.038086h5.519043c-0.853027-1.919922-1.933105-4.46582-3.239258-7.638184
		C97.54248,66.741699,96.116211,63.261719,94.570313,59.476563"/>
	<path clip-path="url(#SVGID_2_)" d="M387.025391,59.476563c-1.545898-3.784668-3.158203-7.717773-4.838867-11.796875
		c-1.678711-4.078125-3.291992-8.009766-4.837891-11.795898s-2.986328-7.250977-4.319336-10.396973
		c-0.801758-1.893066-1.505859-3.569824-2.114258-5.039063h-2.211914c-0.62207,1.469238-1.325195,3.145996-2.111328,5.039063
		c-1.305664,3.145996-2.733398,6.61084-4.279297,10.396973s-3.145508,7.717773-4.798828,11.795898
		c-1.652344,4.079102-3.251953,8.012207-4.797852,11.796875c-1.545898,3.785156-2.986328,7.265137-4.319336,10.437012
		c-1.333008,3.172363-2.398438,5.718262-3.198242,7.638184h5.4375c1.067383-2.452148,2.320313-5.464844,3.759766-9.038086
		l14.635742-36.708984c0.106445-0.212891,0.239258-0.572754,0.399414-1.080078
		c0.160156-0.505859,0.292969-0.972656,0.400391-1.398926c0.106445,0.42627,0.239258,0.893066,0.399414,1.398926
		c0.160156,0.507324,0.292969,0.867188,0.400391,1.080078l14.634766,36.708984
		c1.44043,3.573242,2.693359,6.585938,3.758789,9.038086h5.519531c-0.853516-1.919922-1.933594-4.46582-3.239258-7.638184
		C389.998047,66.741699,388.572266,63.261719,387.025391,59.476563"/>
	<path clip-path="url(#SVGID_2_)" d="M110.321777,38.522949c1.545898,3.785156,3.145996,7.718262,4.799316,11.797363
		c1.652832,4.077637,3.251953,7.996582,4.797852,11.755859c1.546875,3.758789,2.98584,7.225098,4.318848,10.396484
		c0.804199,1.912109,1.508301,3.602539,2.118164,5.079102h2.162109c0.609863-1.476563,1.314941-3.166992,2.117676-5.079102
		c1.333008-3.171387,2.772949-6.637695,4.319336-10.396484c1.545898-3.759277,3.158691-7.678223,4.838867-11.755859
		c1.678711-4.079102,3.291992-8.012207,4.837891-11.797363c1.546875-3.784668,2.973145-7.250977,4.279297-10.396973
		c1.306641-3.145996,2.385742-5.705078,3.23877-7.677734h-5.518066c-0.74707,1.812988-1.612793,3.945801-2.599121,6.397949
		c-0.986816,2.453125-2.040039,5.064941-3.159668,7.837891c-1.119141,2.771973-2.266113,5.638184-3.438965,8.597168
		c-1.17334,2.959961-2.319336,5.825684-3.438965,8.597656c-1.120117,2.773438-2.172363,5.385254-3.15918,7.837402
		c-0.98584,2.452637-1.853027,4.585938-2.599121,6.398926l-0.799805,2.559082l-0.800293-2.559082
		c-0.745605-1.812988-1.611816-3.946289-2.598633-6.398926c-0.986328-2.452148-2.039063-5.063965-3.15918-7.837402
		c-1.120117-2.771973-2.266113-5.637695-3.438965-8.597656c-1.172852-2.958984-2.318848-5.825195-3.438965-8.597168
		c-1.120117-2.772949-2.171875-5.384766-3.15918-7.837891c-0.98584-2.452148-1.853027-4.584961-2.599121-6.397949h-5.438965
		c0.800293,1.972656,1.866211,4.531738,3.200195,7.677734C107.335938,31.271973,108.775879,34.738281,110.321777,38.522949"/>
	<path clip-path="url(#SVGID_2_)" d="M451.723633,39.202637c-1.120117-3.438965-2.933594-6.544922-5.439453-9.316895
		c-2.505859-2.772949-5.757813-5.039063-9.755859-6.79834c-4-1.759766-8.87793-2.638672-14.636719-2.638672h-13.276367v5.277832
		h5.518555h1.917969h7.519531c3.731445,0,7.09082,0.600098,10.077148,1.799805
		c2.985352,1.199219,5.544922,2.838379,7.677734,4.918457c2.132813,2.078613,3.772461,4.544922,4.917969,7.397949
		c1.147461,2.853027,1.719727,5.931641,1.719727,9.236816c0,3.625977-0.612305,6.87793-1.839844,9.757813
		c-1.225586,2.879395-2.917969,5.318359-5.078125,7.317383c-2.15918,2-4.691406,3.532715-7.597656,4.598633
		c-2.90625,1.066895-6.011719,1.600098-9.317383,1.600098h-8.079102h-1.917969h-5.518555v5.198242h16.076172
		c3.891602,0,7.570313-0.65332,11.037109-1.958984c3.464844-1.307617,6.504883-3.186523,9.116211-5.63916
		c2.612305-2.452148,4.692383-5.411133,6.238281-8.876953s2.319336-7.35791,2.319336-11.677246
		C453.402344,46.040527,452.841797,42.641602,451.723633,39.202637"/>
</g>
<g id="AVOCCADO_1_">
	<path d="M94.120117,271.810547c1.361328-1.335938,3.050781-2.003906,5.066406-2.003906
		c0.958984,0,1.867188,0.175781,2.722656,0.529297c0.857422,0.353516,1.601563,0.844727,2.230469,1.474609
		c0.630859,0.630859,1.123047,1.374023,1.476563,2.231445c0.351563,0.856445,0.529297,1.764648,0.529297,2.722656
		c0,1.008789-0.177734,1.928711-0.529297,2.760742c-0.353516,0.832031-0.845703,1.5625-1.476563,2.192383
		c-0.628906,0.630859-1.373047,1.123047-2.230469,1.475586c-0.855469,0.352539-1.763672,0.52832-2.722656,0.52832
		c-2.015625,0-3.705078-0.666992-5.066406-2.003906c-1.361328-1.335938-2.042969-2.987305-2.042969-4.953125
		C92.077148,274.797852,92.758789,273.146484,94.120117,271.810547 M102.270508,279.84375
		c0.826172-0.827148,1.238281-1.853516,1.238281-3.079102c0-1.227539-0.412109-2.253906-1.238281-3.080078
		c-0.826172-0.825195-1.851563-1.239258-3.080078-1.239258c-1.226563,0-2.251953,0.414063-3.078125,1.239258
		c-0.826172,0.826172-1.238281,1.852539-1.238281,3.080078c0,1.225586,0.412109,2.251953,1.238281,3.079102
		c0.826172,0.826172,1.851563,1.238281,3.078125,1.238281C100.418945,281.082031,101.444336,280.669922,102.270508,279.84375"/>
	<path d="M94.570801,306.195313c-1.545898-3.785156-3.15918-7.717773-4.838867-11.796875
		c-1.679199-4.078125-3.291992-8.009766-4.838379-11.795898c-1.545898-3.786133-2.98584-7.250977-4.318848-10.397461
		c-0.801758-1.892578-1.505859-3.569336-2.114746-5.039063h-2.212402c-0.621582,1.469727-1.324707,3.146484-2.11084,5.039063
		c-1.306152,3.146484-2.73291,6.611328-4.278809,10.397461s-3.145996,7.717773-4.799316,11.795898
		c-1.651855,4.079102-3.251953,8.011719-4.797852,11.796875s-2.98584,7.265625-4.318848,10.4375
		s-2.398926,5.717773-3.199219,7.637695h5.437988c1.066895-2.452148,2.320313-5.464844,3.760254-9.038086l14.634766-36.708984
		c0.106934-0.212891,0.240234-0.572266,0.399902-1.080078c0.160156-0.505859,0.292969-0.972656,0.400391-1.398438
		c0.106934,0.425781,0.239746,0.892578,0.399902,1.398438c0.159668,0.507813,0.292969,0.867188,0.399902,1.080078
		l14.634766,36.708984c1.44043,3.573242,2.693359,6.585938,3.759277,9.038086h5.519043
		c-0.853027-1.919922-1.933105-4.46582-3.239258-7.637695C97.542969,313.460938,96.116699,309.980469,94.570801,306.195313"/>
</g>
<g id="AVOCCADO_4_">
	<path d="M94.120117,441.679688c1.361328-1.335938,3.050781-2.003906,5.066406-2.003906
		c0.958984,0,1.867188,0.175781,2.722656,0.529297c0.857422,0.353516,1.601563,0.844727,2.230469,1.474609
		c0.630859,0.630859,1.123047,1.374023,1.476563,2.231445c0.351563,0.856445,0.529297,1.764648,0.529297,2.722656
		c0,1.008789-0.177734,1.928711-0.529297,2.760742c-0.353516,0.832031-0.845703,1.5625-1.476563,2.192383
		c-0.628906,0.630859-1.373047,1.123047-2.230469,1.475586c-0.855469,0.352539-1.763672,0.52832-2.722656,0.52832
		c-2.015625,0-3.705078-0.666992-5.066406-2.003906c-1.361328-1.335938-2.042969-2.987305-2.042969-4.953125
		C92.077148,444.666992,92.758789,443.015625,94.120117,441.679688"/>
	<path d="M94.570801,476.064453c-1.545898-3.785156-3.15918-7.717773-4.838867-11.796875
		c-1.679199-4.078125-3.291992-8.009766-4.838379-11.795898c-1.545898-3.786133-2.98584-7.250977-4.318848-10.397461
		c-0.801758-1.892578-1.505859-3.569336-2.114746-5.039063h-2.212402c-0.621582,1.469727-1.324707,3.146484-2.11084,5.039063
		c-1.306152,3.146484-2.73291,6.611328-4.278809,10.397461s-3.145996,7.717773-4.799316,11.795898
		c-1.651855,4.079102-3.251953,8.011719-4.797852,11.796875s-2.98584,7.265625-4.318848,10.4375
		s-2.398926,5.717773-3.199219,7.637695h5.437988c1.066895-2.452148,2.320313-5.464844,3.760254-9.038086l14.634766-36.708984
		c0.106934-0.212891,0.240234-0.572266,0.399902-1.080078c0.160156-0.505859,0.292969-0.972656,0.400391-1.398438
		c0.106934,0.425781,0.239746,0.892578,0.399902,1.398438c0.159668,0.507813,0.292969,0.867188,0.399902,1.080078
		l14.634766,36.708984c1.44043,3.573242,2.693359,6.585938,3.759277,9.038086h5.519043
		c-0.853027-1.919922-1.933105-4.46582-3.239258-7.637695C97.542969,483.330078,96.116699,479.849609,94.570801,476.064453"/>
</g>
<g id="AVOCCADO_5_">
	<path d="M288.609863,439.039063c1.361328-1.335938,3.050781-2.003906,5.066406-2.003906
		c0.958984,0,1.867188,0.175781,2.722656,0.529297c0.856934,0.353516,1.601074,0.844727,2.22998,1.474609
		c0.630859,0.630859,1.123047,1.374023,1.476563,2.231445c0.351563,0.856445,0.529297,1.764648,0.529297,2.722656
		c0,1.008789-0.177734,1.928711-0.529297,2.760742c-0.353516,0.832031-0.845703,1.5625-1.476563,2.192383
		c-0.628906,0.630859-1.373047,1.123047-2.22998,1.475586c-0.855469,0.352539-1.763672,0.52832-2.722656,0.52832
		c-2.015625,0-3.705078-0.666992-5.066406-2.003906c-1.361328-1.335938-2.042969-2.987305-2.042969-4.953125
		C286.566895,442.026367,287.248535,440.375,288.609863,439.039063"/>
	<path d="M295.879395,481.259766c-1.545898-3.785156-3.15918-7.717773-4.838867-11.796875
		c-1.679199-4.078125-3.291992-8.009766-4.838379-11.795898c-1.545898-3.786133-2.98584-7.250977-4.318848-10.397461
		c-0.801758-1.892578-1.505859-3.569336-2.114746-5.039063h-25.779297c-0.621582,1.469727-1.324707,3.146484-2.11084,5.039063
		c-1.306152,3.146484-2.73291,6.611328-4.278809,10.397461s-3.145996,7.717773-4.799316,11.795898
		c-1.651855,4.079102-3.251953,8.011719-4.797852,11.796875s-2.98584,7.265625-4.318848,10.4375
		s-2.398926,5.717773-3.199219,7.637695h17.19043c1.066895-2.452148,2.320313-5.464844,3.760254-9.038086l14.634766-36.708984
		c0.106934-0.212891,0.240234-0.572266,0.399902-1.080078c0.160156-0.505859,0.292969-0.972656,0.400391-1.398438
		c0.106934,0.425781,0.239746,0.892578,0.399902,1.398438c0.159668,0.507813,0.292969,0.867188,0.399902,1.080078
		l14.634766,36.708984c1.44043,3.573242,2.693359,6.585938,3.759277,9.038086h17.333496
		c-0.852539-1.919922-1.932617-4.46582-3.239258-7.637695S297.425781,485.044922,295.879395,481.259766"/>
</g>
<g id="AVOCCADO_2_">
	<path d="M281.558594,269.169922c1.361328-1.335938,3.050781-2.003906,5.066406-2.003906
		c0.958984,0,1.867188,0.175781,2.722656,0.529297c0.857422,0.353516,1.601563,0.844727,2.230469,1.474609
		c0.630859,0.630859,1.123047,1.374023,1.476563,2.231445c0.351563,0.856445,0.529297,1.764648,0.529297,2.722656
		c0,1.008789-0.177734,1.928711-0.529297,2.760742c-0.353516,0.832031-0.845703,1.5625-1.476563,2.192383
		c-0.628906,0.630859-1.373047,1.123047-2.230469,1.475586c-0.855469,0.352539-1.763672,0.52832-2.722656,0.52832
		c-2.015625,0-3.705078-0.666992-5.066406-2.003906c-1.361328-1.335938-2.042969-2.987305-2.042969-4.953125
		C279.515625,272.157227,280.197266,270.505859,281.558594,269.169922 M289.708984,277.203125
		c0.826172-0.827148,1.238281-1.853516,1.238281-3.079102c0-1.227539-0.412109-2.253906-1.238281-3.080078
		c-0.826172-0.825195-1.851563-1.239258-3.080078-1.239258c-1.226563,0-2.251953,0.414063-3.078125,1.239258
		c-0.826172,0.826172-1.238281,1.852539-1.238281,3.080078c0,1.225586,0.412109,2.251953,1.238281,3.079102
		c0.826172,0.826172,1.851563,1.238281,3.078125,1.238281C287.857422,278.441406,288.882813,278.029297,289.708984,277.203125"/>
	<path d="M284.064941,306.195313c-1.545898-3.785156-3.15918-7.717773-4.838867-11.796875
		c-1.679199-4.078125-3.291992-8.009766-4.838379-11.795898c-1.545898-3.786133-2.98584-7.250977-4.318848-10.397461
		c-0.801758-1.892578-1.505859-3.569336-2.114746-5.039063h-2.212402c-0.621582,1.469727-1.324707,3.146484-2.11084,5.039063
		c-1.306152,3.146484-2.73291,6.611328-4.278809,10.397461s-3.145996,7.717773-4.799316,11.795898
		c-1.651855,4.079102-3.251953,8.011719-4.797852,11.796875s-2.98584,7.265625-4.318848,10.4375
		s-2.398926,5.717773-3.199219,7.637695h5.437988c1.066895-2.452148,2.320313-5.464844,3.760254-9.038086l14.634766-36.708984
		c0.106934-0.212891,0.240234-0.572266,0.399902-1.080078c0.160156-0.505859,0.292969-0.972656,0.400391-1.398438
		c0.106934,0.425781,0.239746,0.892578,0.399902,1.398438c0.159668,0.507813,0.292969,0.867188,0.399902,1.080078
		l14.634766,36.708984c1.44043,3.573242,2.693359,6.585938,3.759277,9.038086h5.519043
		c-0.853027-1.919922-1.933105-4.46582-3.239258-7.637695C287.037109,313.460938,285.61084,309.980469,284.064941,306.195313"/>
</g>
<g id="AVOCCADO_3_">
	<path d="M440.041016,261.645508c2.244141-2.200195,5.026367-3.300781,8.347656-3.300781
		c1.579102,0,3.076172,0.290039,4.485352,0.871094c1.413086,0.583008,2.638672,1.392578,3.674805,2.429688
		c1.040039,1.040039,1.850586,2.264648,2.432617,3.676758c0.579102,1.410156,0.87207,2.907227,0.87207,4.485352
		c0,1.662109-0.292969,3.177734-0.87207,4.548828c-0.582031,1.371094-1.392578,2.573242-2.432617,3.612305
		c-1.036133,1.039063-2.261719,1.849609-3.674805,2.430664c-1.40918,0.580078-2.90625,0.870117-4.485352,0.870117
		c-3.321289,0-6.103516-1.097656-8.347656-3.300781c-2.242188-2.202148-3.365234-4.921875-3.365234-8.161133
		C436.675781,266.567383,437.798828,263.847656,440.041016,261.645508 M453.469727,274.880859
		c1.361328-1.362305,2.040039-3.053711,2.040039-5.073242c0-2.021484-0.678711-3.712891-2.040039-5.074219
		c-1.361328-1.359375-3.050781-2.041992-5.075195-2.041992c-2.020508,0-3.708984,0.682617-5.071289,2.041992
		c-1.360352,1.361328-2.040039,3.052734-2.040039,5.074219c0,2.019531,0.679688,3.710938,2.040039,5.073242
		c1.362305,1.361328,3.050781,2.039063,5.071289,2.039063C450.418945,276.919922,452.108398,276.242188,453.469727,274.880859"/>
	<path d="M441.398438,306.195313c-1.546875-3.785156-3.160156-7.717773-4.839844-11.796875
		c-1.678711-4.078125-3.291016-8.009766-4.837891-11.795898c-1.545898-3.786133-2.986328-7.250977-4.318359-10.397461
		c-0.802734-1.892578-1.505859-3.569336-2.115234-5.039063h-2.212891c-0.621094,1.469727-1.324219,3.146484-2.110352,5.039063
		c-1.305664,3.146484-2.733398,6.611328-4.27832,10.397461c-1.546875,3.786133-3.146484,7.717773-4.799805,11.795898
		c-1.651367,4.079102-3.251953,8.011719-4.797852,11.796875s-2.986328,7.265625-4.318359,10.4375
		c-1.333984,3.171875-2.399414,5.717773-3.199219,7.637695h5.4375c1.066406-2.452148,2.320313-5.464844,3.759766-9.038086
		l14.634766-36.708984c0.107422-0.212891,0.240234-0.572266,0.400391-1.080078
		c0.160156-0.505859,0.292969-0.972656,0.400391-1.398438c0.107422,0.425781,0.240234,0.892578,0.400391,1.398438
		c0.15918,0.507813,0.292969,0.867188,0.399414,1.080078l14.634766,36.708984c1.44043,3.573242,2.693359,6.585938,3.758789,9.038086
		h5.519531c-0.853516-1.919922-1.933594-4.46582-3.239258-7.637695
		C444.370117,313.460938,442.943359,309.980469,441.398438,306.195313"/>
</g>
<g id="SWITCH_EVERYTHING">
	<g>
		<path d="M239.841797,96.820313h0.489746v24.5h-0.489746V96.820313z"/>
		<path d="M263.431152,96.820313v0.490234h-9.450195v24.009766h-0.489746V97.310547h-9.415039v-0.490234H263.431152z"/>
		<path d="M284.151367,119.430664l0.314941,0.419922c-0.933594,0.537109-1.931152,0.961914-2.992676,1.277344
			c-1.062012,0.314453-2.1875,0.472656-3.377441,0.472656c-1.727051,0-3.348633-0.327148-4.865234-0.980469
			c-1.516602-0.652344-2.84082-1.544922-3.972168-2.677734c-1.132324-1.130859-2.024902-2.455078-2.677734-3.97168
			c-0.65332-1.516602-0.97998-3.138672-0.97998-4.865234s0.32666-3.354492,0.97998-4.882813
			c0.652832-1.527344,1.54541-2.857422,2.677734-3.990234c1.131348-1.130859,2.455566-2.029297,3.972168-2.694336
			s3.138184-0.998047,4.865234-0.998047c1.189941,0,2.31543,0.152344,3.377441,0.455078
			c1.061523,0.303711,2.070313,0.735352,3.027344,1.294922c-0.046875,0.070313-0.093262,0.140625-0.139648,0.209961
			c-0.047363,0.070313-0.09375,0.140625-0.140137,0.209961c-0.887207-0.536133-1.849609-0.950195-2.887695-1.242188
			c-1.038574-0.291016-2.117188-0.4375-3.237305-0.4375c-1.657227,0-3.214355,0.321289-4.672363,0.962891
			c-1.458496,0.641602-2.72998,1.510742-3.814941,2.607422c-1.085449,1.09668-1.942871,2.379883-2.572754,3.849609
			s-0.944824,3.033203-0.944824,4.69043c0,1.65625,0.314941,3.208008,0.944824,4.654297
			c0.629883,1.447266,1.481445,2.712891,2.555176,3.797852c1.072754,1.084961,2.333008,1.942383,3.779785,2.572266
			s2.986328,0.945313,4.620117,0.945313c1.120117,0,2.19873-0.145508,3.237305-0.4375
			C282.266602,120.380859,283.241211,119.967773,284.151367,119.430664z"/>
		<path d="M290.520996,121.320313v-24.5h0.489746v11.900391h16.240234V96.820313h0.629883
			c-0.023438,4.107422-0.046875,8.19043-0.070313,12.25s-0.046875,8.143555-0.069336,12.25h-0.490234v-12.110352h-16.240234
			v12.110352H290.520996z"/>
		<path d="M325.206055,121.320313v-24.5h14.174805v0.490234h-13.68457v11.410156h12.319336v0.489258h-12.319336v11.620117h14.174805
			v0.490234H325.206055z"/>
		<path d="M365.980469,96.820313h0.524414c-1.820313,4.293945-3.62793,8.563477-5.424805,12.80957
			c-1.796875,4.24707-3.605469,8.517578-5.424805,12.810547c-1.820313-4.292969-3.628906-8.563477-5.424805-12.810547
			c-1.797852-4.246094-3.605469-8.515625-5.425781-12.80957h0.525391c1.679688,3.966797,3.347656,7.904297,5.004883,11.8125
			c1.65625,3.908203,3.325195,7.845703,5.004883,11.8125c0.046875,0.139648,0.099609,0.286133,0.157227,0.4375
			c0.058594,0.152344,0.111328,0.297852,0.158203,0.4375c0.045898-0.139648,0.098633-0.285156,0.157227-0.4375
			c0.057617-0.151367,0.110352-0.297852,0.157227-0.4375c1.680664-3.966797,3.348633-7.904297,5.004883-11.8125
			C362.631836,104.724609,364.299805,100.787109,365.980469,96.820313z"/>
		<path d="M371.509766,121.320313v-24.5h14.174805v0.490234H372v11.410156h12.319336v0.489258H372v11.620117h14.174805v0.490234
			H371.509766z"/>
		<path d="M392.160156,121.320313v-24.5h4.899414c0.676758,0,1.422852,0.117188,2.240234,0.349609
			c0.816406,0.234375,1.575195,0.595703,2.275391,1.084961c0.699219,0.490234,1.288086,1.132813,1.766602,1.925781
			s0.717773,1.75,0.717773,2.870117c0,1.609375-0.455078,2.957031-1.365234,4.041992
			c-0.90918,1.084961-2.228516,1.791016-3.955078,2.117188c0.957031,2.030273,1.908203,4.048828,2.852539,6.055664
			c0.945313,2.006836,1.895508,4.024414,2.852539,6.054688h-0.524414c-0.957031-2.030273-1.907227-4.036133-2.852539-6.019531
			s-1.896484-3.990234-2.852539-6.020508c-0.537109,0.070313-1.084961,0.105469-1.645508,0.105469h-3.919922v11.93457H392.160156z
			 M392.649414,108.895508h4.025391c1.352539,0,2.472656-0.186523,3.360352-0.560547
			c0.885742-0.373047,1.591797-0.844727,2.117188-1.416992c0.524414-0.571289,0.892578-1.201172,1.102539-1.890625
			c0.209961-0.6875,0.314453-1.34668,0.314453-1.976563c0-0.770508-0.174805-1.499023-0.524414-2.1875
			c-0.350586-0.688477-0.834961-1.295898-1.453125-1.820313c-0.618164-0.525391-1.341797-0.945313-2.169922-1.259766
			c-0.828125-0.31543-1.732422-0.472656-2.711914-0.472656h-4.060547V108.895508z"/>
		<path d="M417.954102,112.150391v9.169922h-0.490234v-9.169922c-1.540039-2.566406-3.074219-5.121094-4.602539-7.665039
			c-1.52832-2.542969-3.0625-5.097656-4.602539-7.665039h0.595703c1.399414,2.357422,2.811523,4.696289,4.234375,7.017578
			c1.422852,2.322266,2.823242,4.672852,4.200195,7.052734c0.070313,0.163086,0.139648,0.314453,0.209961,0.455078
			c0.070313,0.139648,0.139648,0.291992,0.209961,0.455078h0.035156c0.070313-0.163086,0.133789-0.31543,0.192383-0.455078
			c0.057617-0.140625,0.123047-0.291992,0.192383-0.455078l8.400391-14.070313h0.594727
			c-1.540039,2.567383-3.068359,5.12207-4.584961,7.665039C421.022461,107.029297,419.494141,109.583984,417.954102,112.150391z"/>
		<path d="M448.264648,96.820313v0.490234h-9.450195v24.009766h-0.490234V97.310547h-9.415039v-0.490234H448.264648z"/>
		<path d="M451.90332,121.320313v-24.5h0.490234v11.900391h16.240234V96.820313h0.629883
			c-0.023438,4.107422-0.046875,8.19043-0.070313,12.25s-0.046875,8.143555-0.069336,12.25h-0.490234v-12.110352h-16.240234
			v12.110352H451.90332z"/>
		<path d="M476.508789,96.820313h0.490234v24.5h-0.490234V96.820313z"/>
		<path d="M505.62793,96.820313v25.620117c-3.407227-4.129883-6.795898-8.225586-10.166992-12.285156
			c-3.37207-4.05957-6.761719-8.155273-10.167969-12.285156c-0.117188-0.163086-0.227539-0.314453-0.332031-0.455078
			c-0.105469-0.139648-0.21582-0.291016-0.333008-0.455078c0.023438,0.1875,0.041016,0.374023,0.052734,0.560547
			s0.029297,0.373047,0.052734,0.55957v23.240234h-0.490234V95.700195c3.40625,4.15332,6.795898,8.266602,10.167969,12.337891
			c3.371094,4.071289,6.759766,8.171875,10.166992,12.301758c0.116211,0.164063,0.227539,0.31543,0.333008,0.455078
			c0.104492,0.140625,0.214844,0.291992,0.332031,0.455078c-0.023438-0.186523-0.041016-0.373047-0.052734-0.55957
			s-0.029297-0.373047-0.052734-0.560547v-23.30957H505.62793z"/>
		<path d="M523.723633,111.310547v-0.490234h4.479492c0.722656,0,1.242188,0.09375,1.557617,0.280273
			s0.472656,0.618164,0.472656,1.294922v7.455078c-0.933594,0.537109-1.931641,0.961914-2.992188,1.277344
			c-1.0625,0.314453-2.1875,0.472656-3.37793,0.472656c-1.727539,0-3.348633-0.327148-4.865234-0.980469
			c-1.516602-0.652344-2.84082-1.544922-3.972656-2.677734c-1.131836-1.130859-2.024414-2.455078-2.676758-3.97168
			c-0.654297-1.516602-0.980469-3.138672-0.980469-4.865234s0.326172-3.354492,0.980469-4.882813
			c0.652344-1.527344,1.544922-2.857422,2.676758-3.990234c1.131836-1.130859,2.456055-2.029297,3.972656-2.694336
			s3.137695-0.998047,4.865234-0.998047c1.19043,0,2.31543,0.152344,3.37793,0.455078
			c1.060547,0.303711,2.070313,0.735352,3.027344,1.294922c-0.046875,0.070313-0.09375,0.140625-0.140625,0.209961
			c-0.046875,0.070313-0.092773,0.140625-0.139648,0.209961c-0.886719-0.536133-1.849609-0.950195-2.887695-1.242188
			c-1.038086-0.291016-2.117188-0.4375-3.237305-0.4375c-1.657227,0-3.214844,0.321289-4.672852,0.962891
			s-2.729492,1.510742-3.814453,2.607422s-1.942383,2.379883-2.572266,3.849609
			c-0.630859,1.469727-0.945313,3.033203-0.945313,4.69043c0,1.65625,0.314453,3.208008,0.945313,4.654297
			c0.629883,1.447266,1.481445,2.712891,2.554688,3.797852s2.333008,1.942383,3.780273,2.572266
			c1.446289,0.629883,2.986328,0.945313,4.619141,0.945313c1.09668,0,2.146484-0.133789,3.150391-0.402344
			c1.00293-0.268555,1.948242-0.65918,2.834961-1.172852v-4.93457v-2.485352c0-0.209961-0.076172-0.396484-0.227539-0.55957
			c-0.152344-0.163086-0.425781-0.245117-0.822266-0.245117H523.723633z"/>
	</g>
	<g>
		<path d="M192.453613,98.675781c-0.047363,0.069336-0.09375,0.139648-0.140137,0.209961
			c-0.046875,0.069336-0.09375,0.139648-0.140137,0.209961c-0.209961-0.186523-0.472656-0.390625-0.787598-0.613281
			c-0.314941-0.220703-0.682129-0.430664-1.102539-0.629883c-0.419922-0.197266-0.886719-0.361328-1.399902-0.489258
			c-0.513184-0.128906-1.073242-0.193359-1.679688-0.193359c-0.910156,0-1.709961,0.158203-2.397461,0.472656
			c-0.688965,0.31543-1.260254,0.735352-1.715332,1.259766c-0.455078,0.525391-0.793457,1.120117-1.015137,1.785156
			s-0.332031,1.359375-0.332031,2.083008c0,0.74707,0.110352,1.376953,0.332031,1.889648
			c0.22168,0.513672,0.530762,0.957031,0.927734,1.330078c0.396484,0.374023,0.886719,0.700195,1.470215,0.980469
			c0.58252,0.279297,1.247559,0.537109,1.994629,0.769531c0.723145,0.233398,1.557617,0.490234,2.502441,0.770508
			c0.945313,0.279297,1.843262,0.676758,2.695313,1.189453c0.851563,0.513672,1.568848,1.172852,2.152344,1.977539
			c0.583008,0.804688,0.875,1.849609,0.875,3.132813c0,1.026367-0.192383,1.959961-0.577637,2.799805
			c-0.384766,0.839844-0.916016,1.557617-1.592285,2.152344c-0.677246,0.594727-1.464355,1.049805-2.362305,1.365234
			c-0.898926,0.314453-1.861328,0.472656-2.887695,0.472656c-0.933594,0-1.767578-0.117188-2.502441-0.350586
			c-0.734863-0.232422-1.376953-0.512695-1.925293-0.839844c-0.54834-0.326172-1.014648-0.65918-1.399902-0.99707
			c-0.384766-0.337891-0.682617-0.612305-0.892578-0.823242l0.42041-0.419922
			c0.326172,0.350586,0.699707,0.700195,1.119629,1.050781c0.419922,0.349609,0.886719,0.665039,1.400391,0.944336
			c0.512695,0.280273,1.078613,0.507813,1.697266,0.682617c0.618164,0.174805,1.289063,0.262695,2.012695,0.262695
			c0.909668,0,1.784668-0.145508,2.625-0.4375c0.839844-0.291992,1.580078-0.705078,2.222168-1.242188
			c0.641602-0.537109,1.160645-1.18457,1.557617-1.942383c0.396484-0.758789,0.595215-1.604492,0.595215-2.538086
			c0-1.120117-0.233887-2.047852-0.700195-2.782227c-0.466797-0.735352-1.062012-1.347656-1.785156-1.837891
			s-1.522461-0.879883-2.397461-1.171875s-1.720703-0.56543-2.537598-0.823242
			c-0.443359-0.116211-0.968262-0.279297-1.574707-0.489258c-0.606934-0.209961-1.196289-0.507813-1.767578-0.892578
			c-0.572266-0.385742-1.067383-0.875-1.487305-1.470703c-0.42041-0.594727-0.653809-1.34668-0.700195-2.256836
			c-0.046875-0.770508,0.035156-1.545898,0.245117-2.328125c0.209961-0.78125,0.560059-1.487305,1.049805-2.117188
			c0.490234-0.629883,1.125488-1.137695,1.907715-1.522461c0.78125-0.384766,1.720215-0.577148,2.817383-0.577148
			c0.88623,0,1.76123,0.145508,2.625,0.4375C190.76123,97.410156,191.613281,97.928711,192.453613,98.675781z"/>
	</g>
	<path d="M213.300293,106.983398c0.442871,1.237305,0.433105,1.197266,0.92334,2.526367
		c0.489746,1.330078,0.962891,2.636719,1.417969,3.920898c0.45459,1.283203,0.891602,2.512695,1.312012,3.692383
		c0.419922,1.177734,0.792969,2.246094,1.119629,3.202148c0.047363,0.139648,0.099121,0.285156,0.158203,0.4375
		c0.058105,0.152344,0.109863,0.296875,0.156738,0.4375c0.023438-0.070313,0.053223-0.151367,0.088379-0.245117
		c0.034668-0.09375,0.074707-0.1875,0.12207-0.280273c0.045898-0.092773,0.081543-0.209961,0.10498-0.349609
		c1.142578-3.010742,2.274902-5.961914,3.39502-8.855469c0.489746-1.237305,0.991699-2.513672,1.504883-3.832031
		c0.512695-1.319336,1.026855-2.625,1.540039-3.919922c0.512695-1.294922,1.014648-2.542969,1.504883-3.746094
		c0.489746-1.201172,0.944824-2.291016,1.364746-3.271484h0.525391c-0.467285,1.072266-0.962402,2.263672-1.487305,3.569336
		c-0.524902,1.307617-1.067871,2.661133-1.62793,4.060547s-1.125977,2.816406-1.696777,4.25293
		c-0.572266,1.433594-1.115234,2.816406-1.62793,4.146484c-1.237305,3.150391-2.474121,6.347656-3.710449,9.589844
		l-5.179688-13.964844l-0.245117-0.734375l-0.245117,0.734375c-0.583008,1.796875-1.154785,3.546875-1.714844,5.25
		c-0.233887,0.724609-0.478027,1.476563-0.734863,2.256836c-0.257324,0.782227-0.507324,1.558594-0.751953,2.328125
		c-0.245117,0.770508-0.485352,1.504883-0.718262,2.205078s-0.442871,1.34082-0.629883,1.924805
		c-1.796875-4.269531-3.488281-8.539063-5.075195-12.80957c-1.586914-4.269531-3.277832-8.540039-5.074707-12.80957h0.524902
		c0.419922,0.980469,0.869141,2.070313,1.348145,3.271484c0.478027,1.203125,0.973633,2.451172,1.486816,3.746094
		s1.026855,2.600586,1.540039,3.919922c0.513184,1.318359,1.015137,2.594727,1.504883,3.832031
		c1.120117,2.893555,2.263184,5.844727,3.430176,8.855469l0.314941,0.875l0.245117-0.875l4.339844-13.405273L213.300293,106.983398z
		"/>
</g>
</svg>
