<?xml version="1.0" encoding="utf-8"?>
<!-- Generator: Adobe Illustrator 18.1.0, SVG Export Plug-In . SVG Version: 6.00 Build 0)  -->
<svg version="1.1" id="Layer_1" xmlns="http://www.w3.org/2000/svg" xmlns:xlink="http://www.w3.org/1999/xlink" x="0px" y="0px"
	 viewBox="0 0 595.3 140" enable-background="new 0 0 595.3 140" xml:space="preserve">
<g>
	<path d="M213.3,107c0.4,1.2,0.4,1.2,0.9,2.5c0.5,1.3,1,2.6,1.4,3.9s0.9,2.5,1.3,3.7c0.4,1.2,0.8,2.2,1.1,3.2c0,0.1,0.1,0.3,0.2,0.4
		c0.1,0.2,0.1,0.3,0.2,0.4c0-0.1,0.1-0.2,0.1-0.2c0-0.1,0.1-0.2,0.1-0.3c0-0.1,0.1-0.2,0.1-0.3c1.1-3,2.3-6,3.4-8.9
		c0.5-1.2,1-2.5,1.5-3.8s1-2.6,1.5-3.9s1-2.5,1.5-3.7c0.5-1.2,0.9-2.3,1.4-3.3h0.5c-0.5,1.1-1,2.3-1.5,3.6s-1.1,2.7-1.6,4.1
		c-0.6,1.4-1.1,2.8-1.7,4.3c-0.6,1.4-1.1,2.8-1.6,4.1c-1.2,3.1-2.5,6.3-3.7,9.6l-5.2-14l-0.2-0.7l-0.2,0.7c-0.6,1.8-1.2,3.5-1.7,5.3
		c-0.2,0.7-0.5,1.5-0.7,2.3c-0.3,0.8-0.5,1.6-0.8,2.3c-0.2,0.8-0.5,1.5-0.7,2.2c-0.2,0.7-0.4,1.3-0.6,1.9c-1.8-4.3-3.5-8.5-5.1-12.8
		c-1.6-4.3-3.3-8.5-5.1-12.8h0.5c0.4,1,0.9,2.1,1.3,3.3c0.5,1.2,1,2.5,1.5,3.7c0.5,1.3,1,2.6,1.5,3.9c0.5,1.3,1,2.6,1.5,3.8
		c1.1,2.9,2.3,5.8,3.4,8.9l0.3,0.9l0.2-0.9l4.3-13.4L213.3,107z"/>
</g>
<g>
	<path d="M162.7,37.8c1.5-3.5,3.6-6.7,6.2-9.3c2.6-2.7,5.7-4.8,9.3-6.3c3.5-1.5,7.3-2.3,11.3-2.3c4,0,7.8,0.8,11.4,2.3
		c3.6,1.5,6.7,3.7,9.3,6.3c2.6,2.7,4.7,5.8,6.3,9.3c1.5,3.5,2.3,7.3,2.3,11.3c0,4-0.8,7.8-2.3,11.3c-1.5,3.5-3.6,6.6-6.3,9.3
		c-2.6,2.6-5.7,4.7-9.3,6.2c-3.6,1.5-7.4,2.3-11.4,2.3c-4,0-7.8-0.8-11.3-2.3c-3.5-1.5-6.6-3.6-9.3-6.2c-2.6-2.6-4.7-5.7-6.2-9.3
		s-2.3-7.3-2.3-11.3C160.4,45.1,161.1,41.3,162.7,37.8z M167.7,58.4c1.3,2.9,2.9,5.4,5.1,7.6c2.1,2.2,4.6,3.9,7.5,5.1
		c2.9,1.3,5.9,1.9,9.2,1.9s6.3-0.6,9.2-1.9c2.9-1.3,5.4-3,7.6-5.1c2.2-2.2,3.9-4.7,5.1-7.6c1.3-2.9,1.9-6,1.9-9.3
		c0-3.3-0.6-6.4-1.9-9.3c-1.3-2.9-3-5.5-5.1-7.6c-2.2-2.2-4.7-3.9-7.6-5.2c-2.9-1.3-6-1.9-9.2-1.9c-3.3,0-6.4,0.6-9.2,1.9
		c-2.9,1.3-5.4,3-7.5,5.2s-3.9,4.7-5.1,7.6c-1.2,2.9-1.8,6-1.8,9.3C165.8,52.4,166.4,55.5,167.7,58.4z"/>
	<path d="M269.2,76.8c-2.8,1-6.1,1.4-9.8,1.4c-4.4,0-8.4-0.8-12-2.3c-3.5-1.5-6.6-3.6-9-6.3c-2.5-2.6-4.4-5.7-5.8-9.2
		c-1.4-3.5-2-7.1-2-11c0-4.2,0.8-8.1,2.3-11.8c1.5-3.6,3.7-6.8,6.3-9.4c2.7-2.6,5.8-4.7,9.4-6.2c3.6-1.5,7.4-2.2,11.4-2.2
		c1.4,0,2.9,0.1,4.4,0.3s2.9,0.5,4.2,0.8c1.3,0.4,2.6,0.8,3.7,1.3c1.1,0.5,2.1,1,2.9,1.6c-0.3,0.4-0.5,0.8-0.6,1
		c-0.2,0.3-0.3,0.5-0.5,0.8c-0.2,0.3-0.3,0.6-0.6,1c-0.2,0.4-0.5,0.9-0.8,1.4c-1.7-1.1-3.7-1.9-6-2.4c-2.3-0.5-4.4-0.8-6.5-0.8
		c-3.4,0-6.5,0.6-9.4,1.9c-2.9,1.3-5.5,3-7.6,5.2s-3.9,4.8-5.1,7.7c-1.3,2.9-1.9,6-1.9,9.2c0,3.1,0.6,6.1,1.7,8.9
		c1.1,2.9,2.7,5.4,4.8,7.5c2.1,2.2,4.6,3.9,7.4,5.2c2.9,1.3,6.1,2,9.6,2c1.5,0,3-0.1,4.5-0.4c1.4-0.2,2.8-0.6,4-1
		c1.2-0.4,2.3-0.8,3.2-1.2c0.9-0.4,1.7-0.9,2.2-1.3l2.5,5C274.3,74.8,272.1,75.8,269.2,76.8z"/>
	<path d="M326.3,76.8c-2.8,1-6.1,1.4-9.8,1.4c-4.4,0-8.4-0.8-12-2.3c-3.5-1.5-6.6-3.6-9-6.3c-2.5-2.6-4.4-5.7-5.8-9.2
		c-1.4-3.5-2-7.1-2-11c0-4.2,0.8-8.1,2.3-11.8c1.5-3.6,3.7-6.8,6.3-9.4c2.7-2.6,5.8-4.7,9.4-6.2c3.6-1.5,7.4-2.2,11.4-2.2
		c1.4,0,2.9,0.1,4.4,0.3c1.5,0.2,2.9,0.5,4.2,0.8c1.3,0.4,2.6,0.8,3.7,1.3c1.1,0.5,2.1,1,2.9,1.6c-0.3,0.4-0.5,0.8-0.6,1
		c-0.2,0.3-0.3,0.5-0.5,0.8c-0.2,0.3-0.3,0.6-0.6,1c-0.2,0.4-0.5,0.9-0.8,1.4c-1.7-1.1-3.7-1.9-6-2.4c-2.3-0.5-4.4-0.8-6.5-0.8
		c-3.4,0-6.5,0.6-9.4,1.9c-2.9,1.3-5.5,3-7.6,5.2s-3.9,4.8-5.1,7.7c-1.3,2.9-1.9,6-1.9,9.2c0,3.1,0.6,6.1,1.7,8.9
		c1.1,2.9,2.7,5.4,4.8,7.5c2.1,2.2,4.6,3.9,7.4,5.2c2.9,1.3,6.1,2,9.6,2c1.5,0,3-0.1,4.5-0.4c1.4-0.2,2.8-0.6,4-1s2.3-0.8,3.2-1.2
		c0.9-0.4,1.7-0.9,2.2-1.3l2.5,5C331.4,74.8,329.2,75.8,326.3,76.8z"/>
	<path d="M467.6,37.8c1.5-3.5,3.6-6.7,6.2-9.3c2.6-2.7,5.7-4.8,9.3-6.3c3.5-1.5,7.3-2.3,11.3-2.3c4,0,7.8,0.8,11.4,2.3
		c3.6,1.5,6.7,3.7,9.3,6.3c2.6,2.7,4.7,5.8,6.3,9.3c1.5,3.5,2.3,7.3,2.3,11.3c0,4-0.8,7.8-2.3,11.3c-1.5,3.5-3.6,6.6-6.3,9.3
		c-2.6,2.6-5.7,4.7-9.3,6.2c-3.6,1.5-7.4,2.3-11.4,2.3c-4,0-7.8-0.8-11.3-2.3c-3.5-1.5-6.6-3.6-9.3-6.2c-2.6-2.6-4.7-5.7-6.2-9.3
		c-1.5-3.5-2.3-7.3-2.3-11.3C465.3,45.1,466.1,41.3,467.6,37.8z M472.6,58.4c1.3,2.9,2.9,5.4,5.1,7.6c2.1,2.2,4.6,3.9,7.5,5.1
		c2.9,1.3,5.9,1.9,9.2,1.9c3.3,0,6.3-0.6,9.2-1.9c2.9-1.3,5.4-3,7.6-5.1c2.2-2.2,3.9-4.7,5.1-7.6c1.3-2.9,1.9-6,1.9-9.3
		c0-3.3-0.6-6.4-1.9-9.3c-1.3-2.9-3-5.5-5.1-7.6c-2.2-2.2-4.7-3.9-7.6-5.2c-2.9-1.3-6-1.9-9.2-1.9c-3.3,0-6.4,0.6-9.2,1.9
		c-2.9,1.3-5.4,3-7.5,5.2c-2.2,2.2-3.9,4.7-5.1,7.6c-1.2,2.9-1.8,6-1.8,9.3C470.8,52.4,471.4,55.5,472.6,58.4z"/>
	<path d="M530.4,25.1c1.4-1.3,3.1-2,5.1-2c1,0,1.9,0.2,2.7,0.5c0.9,0.4,1.6,0.8,2.2,1.5c0.6,0.6,1.1,1.4,1.5,2.2
		c0.4,0.9,0.5,1.8,0.5,2.7c0,1-0.2,1.9-0.5,2.8c-0.4,0.8-0.8,1.6-1.5,2.2c-0.6,0.6-1.4,1.1-2.2,1.5c-0.9,0.4-1.8,0.5-2.7,0.5
		c-2,0-3.7-0.7-5.1-2c-1.4-1.3-2-3-2-5C528.3,28.1,529,26.4,530.4,25.1z M538.5,33.1c0.8-0.8,1.2-1.9,1.2-3.1c0-1.2-0.4-2.3-1.2-3.1
		c-0.8-0.8-1.9-1.2-3.1-1.2c-1.2,0-2.3,0.4-3.1,1.2c-0.8,0.8-1.2,1.9-1.2,3.1c0,1.2,0.4,2.3,1.2,3.1c0.8,0.8,1.9,1.2,3.1,1.2
		C536.7,34.4,537.7,34,538.5,33.1z"/>
	<path d="M94.6,59.5c-1.5-3.8-3.2-7.7-4.8-11.8c-1.7-4.1-3.3-8-4.8-11.8c-1.5-3.8-3-7.3-4.3-10.4c-0.8-1.9-1.5-3.6-2.1-5h-2.2
		c-0.6,1.5-1.3,3.1-2.1,5c-1.3,3.1-2.7,6.6-4.3,10.4c-1.5,3.8-3.1,7.7-4.8,11.8c-1.7,4.1-3.3,8-4.8,11.8c-1.5,3.8-3,7.3-4.3,10.4
		c-1.3,3.2-2.4,5.7-3.2,7.6h5.4c1.1-2.5,2.3-5.5,3.8-9l14.6-36.7c0.1-0.2,0.2-0.6,0.4-1.1c0.2-0.5,0.3-1,0.4-1.4
		c0.1,0.4,0.2,0.9,0.4,1.4c0.2,0.5,0.3,0.9,0.4,1.1l14.6,36.7c1.4,3.6,2.7,6.6,3.8,9h5.5c-0.9-1.9-1.9-4.5-3.2-7.6
		C97.5,66.7,96.1,63.3,94.6,59.5z"/>
	<path d="M387,59.5c-1.5-3.8-3.2-7.7-4.8-11.8c-1.7-4.1-3.3-8-4.8-11.8c-1.5-3.8-3-7.3-4.3-10.4c-0.8-1.9-1.5-3.6-2.1-5h-2.2
		c-0.6,1.5-1.3,3.1-2.1,5c-1.3,3.1-2.7,6.6-4.3,10.4c-1.5,3.8-3.1,7.7-4.8,11.8c-1.7,4.1-3.3,8-4.8,11.8c-1.5,3.8-3,7.3-4.3,10.4
		c-1.3,3.2-2.4,5.7-3.2,7.6h5.4c1.1-2.5,2.3-5.5,3.8-9L369,31.8c0.1-0.2,0.2-0.6,0.4-1.1c0.2-0.5,0.3-1,0.4-1.4
		c0.1,0.4,0.2,0.9,0.4,1.4c0.2,0.5,0.3,0.9,0.4,1.1l14.6,36.7c1.4,3.6,2.7,6.6,3.8,9h5.5c-0.9-1.9-1.9-4.5-3.2-7.6
		C390,66.7,388.6,63.3,387,59.5z"/>
	<path d="M110.3,38.5c1.5,3.8,3.1,7.7,4.8,11.8c1.7,4.1,3.3,8,4.8,11.8c1.5,3.8,3,7.2,4.3,10.4c0.8,1.9,1.5,3.6,2.1,5.1h2.2
		c0.6-1.5,1.3-3.2,2.1-5.1c1.3-3.2,2.8-6.6,4.3-10.4c1.5-3.8,3.2-7.7,4.8-11.8c1.7-4.1,3.3-8,4.8-11.8s3-7.3,4.3-10.4
		c1.3-3.1,2.4-5.7,3.2-7.7h-5.5c-0.7,1.8-1.6,3.9-2.6,6.4c-1,2.5-2,5.1-3.2,7.8c-1.1,2.8-2.3,5.6-3.4,8.6s-2.3,5.8-3.4,8.6
		c-1.1,2.8-2.2,5.4-3.2,7.8c-1,2.5-1.9,4.6-2.6,6.4l-0.8,2.6l-0.8-2.6c-0.7-1.8-1.6-3.9-2.6-6.4c-1-2.5-2-5.1-3.2-7.8
		c-1.1-2.8-2.3-5.6-3.4-8.6c-1.2-3-2.3-5.8-3.4-8.6c-1.1-2.8-2.2-5.4-3.2-7.8c-1-2.5-1.9-4.6-2.6-6.4h-5.4c0.8,2,1.9,4.5,3.2,7.7
		C107.3,31.3,108.8,34.7,110.3,38.5z"/>
	<path d="M451.7,39.2c-1.1-3.4-2.9-6.5-5.4-9.3s-5.8-5-9.8-6.8c-4-1.8-8.9-2.6-14.6-2.6h-13.3v5.3h5.5h1.9h7.5
		c3.7,0,7.1,0.6,10.1,1.8c3,1.2,5.5,2.8,7.7,4.9c2.1,2.1,3.8,4.5,4.9,7.4c1.1,2.9,1.7,5.9,1.7,9.2c0,3.6-0.6,6.9-1.8,9.8
		c-1.2,2.9-2.9,5.3-5.1,7.3c-2.2,2-4.7,3.5-7.6,4.6c-2.9,1.1-6,1.6-9.3,1.6h-8.1h-1.9h-5.5v5.2h16.1c3.9,0,7.6-0.7,11-2
		c3.5-1.3,6.5-3.2,9.1-5.6c2.6-2.5,4.7-5.4,6.2-8.9c1.5-3.5,2.3-7.4,2.3-11.7C453.4,46,452.8,42.6,451.7,39.2z"/>
</g>
<text transform="matrix(1 0 0 1 183.5988 121.3199)" font-family="'JosefinSans-Thin'" font-size="35">     itch everything</text>
<text transform="matrix(1 0 0 1 177.7666 121.3199)" font-family="'JosefinSans-Thin'" font-size="35">s</text>
</svg>
