<?xml version="1.0" encoding="utf-8"?>
<!-- Generator: Adobe Illustrator 16.0.0, SVG Export Plug-In . SVG Version: 6.00 Build 0)  -->
<!DOCTYPE svg PUBLIC "-//W3C//DTD SVG 1.1//EN" "http://www.w3.org/Graphics/SVG/1.1/DTD/svg11.dtd">
<svg version="1.1" id="Layer_1" xmlns="http://www.w3.org/2000/svg" xmlns:xlink="http://www.w3.org/1999/xlink" x="0px" y="0px"
	 width="510.236328px" height="70.865723px" viewBox="0 0 510.236328 70.865723" enable-background="new 0 0 510.236328 70.865723"
	 xml:space="preserve">
<g id="AVOCCADO_14_">
	<path fill="#333333" d="M125.145508,24.196777c1.519043-3.546875,3.599121-6.652344,6.238281-9.317383
		c2.638672-2.666992,5.731934-4.772461,9.276855-6.319336c3.545898-1.544922,7.317871-2.318359,11.316895-2.318359
		s7.78418,0.773438,11.356934,2.318359c3.572266,1.546875,6.678223,3.652344,9.316895,6.319336
		c2.63916,2.665039,4.732422,5.770508,6.27832,9.317383c1.545898,3.544922,2.318848,7.318359,2.318848,11.316406
		c0,4-0.772949,7.771484-2.318848,11.316406c-1.545898,3.545898-3.63916,6.638672-6.27832,9.277344
		c-2.638672,2.638672-5.744629,4.71875-9.316895,6.238281c-3.572754,1.519531-7.35791,2.279297-11.356934,2.279297
		s-7.770996-0.759766-11.316895-2.279297c-3.544922-1.519531-6.638184-3.599609-9.276855-6.238281
		c-2.63916-2.638672-4.719238-5.731445-6.238281-9.277344c-1.52002-3.544922-2.279785-7.316406-2.279785-11.316406
		C122.865723,31.515137,123.625488,27.741699,125.145508,24.196777 M130.183594,44.830566
		c1.25293,2.905273,2.945801,5.438477,5.079102,7.59668c2.131836,2.160156,4.637695,3.866211,7.51709,5.119141
		c2.878906,1.25293,5.945801,1.879883,9.197754,1.879883s6.331055-0.626953,9.237305-1.879883
		c2.905762-1.25293,5.438965-2.958984,7.597656-5.119141c2.160156-2.158203,3.866211-4.691406,5.119141-7.59668
		c1.251953-2.905273,1.878906-6.011719,1.878906-9.317383s-0.626953-6.412109-1.878906-9.317383
		c-1.25293-2.90625-2.958984-5.452148-5.119141-7.637695c-2.158691-2.186523-4.691895-3.90625-7.597656-5.158203
		c-2.90625-1.253906-5.985352-1.878906-9.237305-1.878906c-3.306152,0-6.384766,0.625-9.236816,1.878906
		c-2.853027,1.251953-5.358887,2.97168-7.519043,5.158203c-2.15918,2.185547-3.852051,4.731445-5.078125,7.637695
		c-1.226074,2.905273-1.838867,6.011719-1.838867,9.317383S128.930664,41.925293,130.183594,44.830566"/>
	<path fill="#333333" d="M231.709961,63.185059c-2.826172,0.959961-6.10498,1.439453-9.836914,1.439453
		c-4.425781,0-8.411133-0.773438-11.957031-2.319336c-3.544922-1.545898-6.558105-3.638672-9.037109-6.27832
		c-2.479004-2.638672-4.398926-5.69043-5.758789-9.15625c-1.358887-3.466797-2.039063-7.145508-2.039063-11.037109
		c0-4.212891,0.772949-8.130859,2.318848-11.757813c1.547363-3.625,3.65332-6.757813,6.317871-9.396484
		c2.666016-2.640625,5.786133-4.705078,9.358398-6.197266c3.571777-1.494141,7.383789-2.240234,11.437012-2.240234
		c1.438965,0,2.891602,0.091797,4.35791,0.279297c1.466797,0.1875,2.865723,0.466797,4.19873,0.839844
		s2.560059,0.798828,3.679199,1.280273c1.120117,0.479492,2.080078,1.012695,2.878906,1.598633
		c-0.266113,0.427734-0.47998,0.773438-0.638672,1.041016c-0.160156,0.266602-0.321289,0.544922-0.480469,0.839844
		c-0.159668,0.292969-0.34668,0.625-0.55957,1c-0.213379,0.373047-0.480469,0.851563-0.800293,1.438477
		c-1.706055-1.06543-3.691895-1.866211-5.958008-2.399414s-4.438965-0.798828-6.519043-0.798828
		c-3.35791,0-6.503906,0.638672-9.437012,1.917969c-2.931641,1.280273-5.478027,3.026367-7.636719,5.239258
		c-2.160156,2.211914-3.866211,4.770508-5.119141,7.676758c-1.25293,2.907227-1.878906,5.985352-1.878906,9.238281
		c0,3.09375,0.559082,6.064453,1.678711,8.916992c1.120117,2.852539,2.719238,5.358398,4.79834,7.518555
		c2.080078,2.158203,4.559082,3.891602,7.437988,5.199219c2.879883,1.305664,6.078613,1.958008,9.597656,1.958008
		c1.546387,0,3.039063-0.120117,4.478027-0.359375c1.44043-0.240234,2.773438-0.560547,3.999023-0.959961
		c1.227051-0.399414,2.306152-0.813477,3.240234-1.239258c0.932129-0.426758,1.666016-0.854492,2.19873-1.280273l2.479004,4.958008
		C236.801758,61.212402,234.536133,62.225098,231.709961,63.185059"/>
	<path fill="#333333" d="M288.810547,63.185059c-2.826172,0.959961-6.106445,1.439453-9.838867,1.439453
		c-4.424805,0-8.40918-0.773438-11.956055-2.319336c-3.545898-1.545898-6.557617-3.638672-9.036621-6.27832
		c-2.47998-2.638672-4.398926-5.69043-5.758789-9.15625c-1.358887-3.466797-2.039063-7.145508-2.039063-11.037109
		c0-4.212891,0.772949-8.130859,2.318848-11.757813c1.545898-3.625,3.652344-6.757813,6.318359-9.396484
		c2.666016-2.640625,5.785156-4.705078,9.356445-6.197266c3.573242-1.494141,7.385742-2.240234,11.4375-2.240234
		c1.439453,0,2.891602,0.091797,4.358398,0.279297s2.866211,0.466797,4.199219,0.839844s2.55957,0.798828,3.678711,1.280273
		c1.120117,0.479492,2.080078,1.012695,2.879883,1.598633c-0.267578,0.427734-0.480469,0.773438-0.640625,1.041016
		c-0.15918,0.266602-0.319336,0.544922-0.479492,0.839844c-0.160156,0.292969-0.34668,0.625-0.560547,1
		c-0.212891,0.373047-0.478516,0.851563-0.798828,1.438477c-1.707031-1.06543-3.693359-1.866211-5.958008-2.399414
		c-2.266602-0.533203-4.438477-0.798828-6.518555-0.798828c-3.359375,0-6.504883,0.638672-9.438477,1.917969
		c-2.930664,1.280273-5.476563,3.026367-7.636719,5.239258c-2.15918,2.211914-3.866211,4.770508-5.118164,7.676758
		c-1.25293,2.907227-1.879883,5.985352-1.879883,9.238281c0,3.09375,0.560059,6.064453,1.679688,8.916992
		c1.119141,2.852539,2.71875,5.358398,4.797852,7.518555c2.080078,2.158203,4.55957,3.891602,7.438477,5.199219
		c2.878906,1.305664,6.078125,1.958008,9.597656,1.958008c1.544922,0,3.038086-0.120117,4.478516-0.359375
		c1.439453-0.240234,2.772461-0.560547,3.999023-0.959961c1.225586-0.399414,2.305664-0.813477,3.238281-1.239258
		c0.933594-0.426758,1.666016-0.854492,2.199219-1.280273l2.480469,4.958008
		C293.901367,61.212402,291.635742,62.225098,288.810547,63.185059"/>
	<path fill="#333333" d="M425.071289,24.196777c1.520508-3.546875,3.600586-6.652344,6.239258-9.317383
		c2.638672-2.666992,5.731445-4.772461,9.277344-6.319336c3.544922-1.544922,7.317383-2.318359,11.316406-2.318359
		s7.78418,0.773438,11.356445,2.318359c3.573242,1.546875,6.677734,3.652344,9.318359,6.319336
		c2.638672,2.665039,4.731445,5.770508,6.277344,9.317383c1.546875,3.544922,2.319336,7.318359,2.319336,11.316406
		c0,4-0.772461,7.771484-2.319336,11.316406c-1.545898,3.545898-3.638672,6.638672-6.277344,9.277344
		c-2.640625,2.638672-5.745117,4.71875-9.318359,6.238281c-3.572266,1.519531-7.357422,2.279297-11.356445,2.279297
		s-7.771484-0.759766-11.316406-2.279297c-3.545898-1.519531-6.638672-3.599609-9.277344-6.238281
		s-4.71875-5.731445-6.239258-9.277344c-1.518555-3.544922-2.27832-7.316406-2.27832-11.316406
		C422.792969,31.515137,423.552734,27.741699,425.071289,24.196777 M430.110352,44.830566
		c1.25293,2.905273,2.946289,5.438477,5.079102,7.59668c2.132813,2.160156,4.637695,3.866211,7.517578,5.119141
		s5.944336,1.879883,9.197266,1.879883c3.251953,0,6.331055-0.626953,9.237305-1.879883s5.438477-2.958984,7.597656-5.119141
		c2.15918-2.158203,3.866211-4.691406,5.118164-7.59668c1.253906-2.905273,1.879883-6.011719,1.879883-9.317383
		s-0.625977-6.412109-1.879883-9.317383c-1.251953-2.90625-2.958984-5.452148-5.118164-7.637695
		c-2.15918-2.186523-4.691406-3.90625-7.597656-5.158203c-2.90625-1.253906-5.985352-1.878906-9.237305-1.878906
		c-3.305664,0-6.384766,0.625-9.236328,1.878906c-2.853516,1.251953-5.359375,2.97168-7.518555,5.158203
		c-2.160156,2.185547-3.852539,4.731445-5.079102,7.637695c-1.225586,2.905273-1.838867,6.011719-1.838867,9.317383
		S428.857422,41.925293,430.110352,44.830566"/>
	<path fill="#333333" d="M487.857422,11.524902c1.361328-1.335938,3.050781-2.003906,5.067383-2.003906
		c0.958008,0,1.866211,0.175781,2.722656,0.529297c0.857422,0.353516,1.600586,0.844727,2.230469,1.474609
		c0.630859,0.630859,1.12207,1.374023,1.475586,2.231445c0.352539,0.856445,0.529297,1.764648,0.529297,2.722656
		c0,1.008789-0.176758,1.928711-0.529297,2.760742c-0.353516,0.832031-0.844727,1.5625-1.475586,2.192383
		c-0.629883,0.630859-1.373047,1.123047-2.230469,1.475586c-0.856445,0.352539-1.764648,0.52832-2.722656,0.52832
		c-2.016602,0-3.706055-0.666992-5.067383-2.003906c-1.361328-1.335938-2.041992-2.987305-2.041992-4.953125
		C485.81543,14.512207,486.496094,12.86084,487.857422,11.524902 M495.772461,19.32373
		c0.763672-0.764648,1.145508-1.711914,1.145508-2.844727c0-1.134766-0.381836-2.082031-1.145508-2.844727
		c-0.762695-0.762695-1.709961-1.145508-2.84375-1.145508c-1.132813,0-2.081055,0.382813-2.842773,1.145508
		c-0.763672,0.762695-1.145508,1.709961-1.145508,2.844727c0,1.132813,0.381836,2.080078,1.145508,2.844727
		c0.761719,0.761719,1.709961,1.143555,2.842773,1.143555C494.0625,20.467285,495.009766,20.085449,495.772461,19.32373"/>
	<path fill="#333333" d="M57.052734,45.909668c-1.545898-3.785156-3.15918-7.717773-4.838867-11.796875
		c-1.679199-4.078125-3.291992-8.009766-4.838379-11.795898c-1.545898-3.786133-2.98584-7.250977-4.318848-10.397461
		c-0.801758-1.892578-1.505859-3.569336-2.114746-5.039063h-2.212402c-0.621582,1.469727-1.324707,3.146484-2.11084,5.039063
		c-1.306152,3.146484-2.73291,6.611328-4.278809,10.397461s-3.145996,7.717773-4.799316,11.795898
		c-1.651855,4.079102-3.251953,8.011719-4.797852,11.796875s-2.98584,7.265625-4.318848,10.4375
		s-2.398926,5.717773-3.199219,7.637695h5.437988c1.066895-2.452148,2.320313-5.464844,3.760254-9.038086l14.634766-36.708984
		c0.106934-0.212891,0.240234-0.572266,0.399902-1.080078c0.160156-0.505859,0.292969-0.972656,0.400391-1.398438
		c0.106934,0.425781,0.239746,0.892578,0.399902,1.398438c0.159668,0.507813,0.292969,0.867188,0.399902,1.080078
		L55.29248,54.946777c1.44043,3.573242,2.693359,6.585938,3.759277,9.038086h5.519043
		c-0.853027-1.919922-1.933105-4.46582-3.239258-7.637695C60.024902,53.175293,58.598633,49.694824,57.052734,45.909668"/>
	<path fill="#333333" d="M349.507813,45.909668c-1.545898-3.785156-3.158203-7.717773-4.838867-11.796875
		c-1.678711-4.078125-3.291992-8.009766-4.837891-11.795898s-2.986328-7.250977-4.319336-10.397461
		c-0.801758-1.892578-1.505859-3.569336-2.114258-5.039063h-2.211914c-0.62207,1.469727-1.325195,3.146484-2.111328,5.039063
		c-1.305664,3.146484-2.733398,6.611328-4.279297,10.397461s-3.145508,7.717773-4.798828,11.795898
		c-1.652344,4.079102-3.251953,8.011719-4.797852,11.796875s-2.986328,7.265625-4.319336,10.4375
		s-2.398438,5.717773-3.198242,7.637695h5.4375c1.067383-2.452148,2.320313-5.464844,3.759766-9.038086l14.635742-36.708984
		c0.106445-0.212891,0.239258-0.572266,0.399414-1.080078c0.160156-0.505859,0.292969-0.972656,0.400391-1.398438
		c0.106445,0.425781,0.239258,0.892578,0.399414,1.398438c0.160156,0.507813,0.292969,0.867188,0.400391,1.080078
		l14.634766,36.708984c1.44043,3.573242,2.693359,6.585938,3.758789,9.038086h5.519531
		c-0.853516-1.919922-1.933594-4.46582-3.239258-7.637695C352.480469,53.175293,351.054688,49.694824,349.507813,45.909668"/>
	<path fill="#333333" d="M72.804199,24.956543c1.545898,3.785156,3.145996,7.717773,4.799316,11.796875
		c1.652832,4.078125,3.251953,7.996094,4.797852,11.755859c1.546875,3.758789,2.98584,7.224609,4.318848,10.396484
		c0.804199,1.912109,1.508301,3.602539,2.118164,5.079102h2.162109c0.609863-1.476563,1.314941-3.166992,2.117676-5.079102
		c1.333008-3.171875,2.772949-6.637695,4.319336-10.396484c1.545898-3.759766,3.158691-7.677734,4.838867-11.755859
		c1.678711-4.079102,3.291992-8.011719,4.837891-11.796875c1.546875-3.785156,2.973145-7.251953,4.279297-10.397461
		c1.306641-3.145508,2.385742-5.705078,3.23877-7.677734h-5.518066c-0.74707,1.813477-1.612793,3.946289-2.599121,6.397461
		c-0.986816,2.453125-2.040039,5.06543-3.159668,7.837891c-1.119141,2.772461-2.266113,5.638672-3.438965,8.597656
		c-1.17334,2.959961-2.319336,5.826172-3.438965,8.597656c-1.120117,2.773438-2.172363,5.384766-3.15918,7.837891
		c-0.98584,2.452148-1.853027,4.585938-2.599121,6.398438l-0.799805,2.558594l-0.800293-2.558594
		c-0.745605-1.8125-1.611816-3.946289-2.598633-6.398438c-0.986328-2.453125-2.039063-5.064453-3.15918-7.837891
		c-1.120117-2.771484-2.266113-5.637695-3.438965-8.597656c-1.172852-2.958984-2.318848-5.825195-3.438965-8.597656
		s-2.171875-5.384766-3.15918-7.837891c-0.98584-2.451172-1.853027-4.583984-2.599121-6.397461h-5.438965
		c0.800293,1.972656,1.866211,4.532227,3.200195,7.677734C69.818359,17.70459,71.258301,21.171387,72.804199,24.956543"/>
	<path fill="#333333" d="M409.201172,25.63623c-1.120117-3.439453-2.933594-6.544922-5.439453-9.317383
		s-5.757813-5.039063-9.755859-6.797852c-4-1.759766-10.879883-2.638672-16.638672-2.638672h-6.224609v5.277344h5.518555h1.917969
		h0.467773c3.731445,0,9.092773,0.599609,12.079102,1.799805c2.985352,1.199219,5.544922,2.838867,7.677734,4.918945
		c2.132813,2.078125,3.772461,4.544922,4.917969,7.397461c1.147461,2.852539,1.719727,5.931641,1.719727,9.237305
		c0,3.625-0.612305,6.876953-1.839844,9.757813c-1.225586,2.878906-2.917969,5.318359-5.078125,7.316406
		c-2.15918,2-4.691406,3.533203-7.597656,4.599609s-6.011719,1.599609-9.317383,1.599609h-3.029297h-1.917969h-5.518555v5.198242
		h11.026367c3.891602,0,7.570313-0.65332,11.037109-1.958984c3.464844-1.307617,6.504883-3.186523,9.116211-5.639648
		c2.612305-2.451172,4.692383-5.410156,6.238281-8.876953c1.545898-3.464844,2.319336-7.357422,2.319336-11.676758
		C410.879883,32.474121,410.319336,29.074707,409.201172,25.63623"/>
</g>
<g>
</g>
<g>
</g>
<g>
</g>
<g>
</g>
<g>
</g>
<g>
</g>
<g>
</g>
<g>
</g>
<g>
</g>
<g>
</g>
<g>
</g>
<g>
</g>
<g>
</g>
<g>
</g>
<g>
</g>
</svg>
