<?xml version="1.0" encoding="UTF-8" standalone="no"?>
<!-- Created with Inkscape (http://www.inkscape.org/) -->

<svg
   xmlns:dc="http://purl.org/dc/elements/1.1/"
   xmlns:cc="http://creativecommons.org/ns#"
   xmlns:rdf="http://www.w3.org/1999/02/22-rdf-syntax-ns#"
   xmlns:svg="http://www.w3.org/2000/svg"
   xmlns="http://www.w3.org/2000/svg"
   xmlns:sodipodi="http://sodipodi.sourceforge.net/DTD/sodipodi-0.dtd"
   xmlns:inkscape="http://www.inkscape.org/namespaces/inkscape"
   id="svg2"
   version="1.1"
   inkscape:version="0.48.5 r10040"
   width="1052.3625"
   height="1488.1875"
   xml:space="preserve"
   sodipodi:docname="avoccado_logo_sketching.ai"><metadata
     id="metadata8"><rdf:RDF><cc:Work
         rdf:about=""><dc:format>image/svg+xml</dc:format><dc:type
           rdf:resource="http://purl.org/dc/dcmitype/StillImage" /><dc:title></dc:title></cc:Work></rdf:RDF></metadata><defs
     id="defs6"><clipPath
       clipPathUnits="userSpaceOnUse"
       id="clipPath16"><path
         d="m 0,1190.551 841.89,0 L 841.89,0 0,0 0,1190.551 z"
         id="path18" /></clipPath></defs><sodipodi:namedview
     pagecolor="#ffffff"
     bordercolor="#666666"
     borderopacity="1"
     objecttolerance="10"
     gridtolerance="10"
     guidetolerance="10"
     inkscape:pageopacity="0"
     inkscape:pageshadow="2"
     inkscape:window-width="1280"
     inkscape:window-height="724"
     id="namedview4"
     showgrid="false"
     inkscape:zoom="0.63432867"
     inkscape:cx="406.56906"
     inkscape:cy="1529.4846"
     inkscape:window-x="0"
     inkscape:window-y="24"
     inkscape:window-maximized="1"
     inkscape:current-layer="g14" /><g
     id="g10"
     inkscape:groupmode="layer"
     inkscape:label="avoccado_logo_sketching"
     transform="matrix(1.25,0,0,-1.25,0,1488.1875)"><g
       id="g12"><g
         id="g14"
         clip-path="url(#clipPath16)"><g
           id="g146"
           transform="translate(122.96471,1145.2499)"><path
             d="m 0,0 c 1.253,-2.905 2.946,-5.438 5.079,-7.597 2.132,-2.16 4.638,-3.866 7.517,-5.119 2.879,-1.253 5.946,-1.88 9.198,-1.88 3.252,0 6.331,0.627 9.237,1.88 2.906,1.253 5.439,2.959 7.598,5.119 2.16,2.159 3.866,4.692 5.119,7.597 1.252,2.906 1.879,6.012 1.879,9.318 0,3.305 -0.627,6.411 -1.879,9.317 -1.253,2.906 -2.959,5.452 -5.119,7.638 -2.159,2.186 -4.692,3.906 -7.598,5.158 -2.906,1.253 -5.985,1.879 -9.237,1.879 -3.306,0 -6.385,-0.626 -9.237,-1.879 C 9.704,30.179 7.198,28.459 5.038,26.273 2.879,24.087 1.186,21.541 -0.04,18.635 -1.266,15.729 -1.879,12.623 -1.879,9.318 -1.879,6.012 -1.253,2.906 0,0 m -5.038,20.634 c 1.519,3.546 3.599,6.652 6.238,9.317 2.639,2.667 5.732,4.773 9.277,6.319 3.546,1.546 7.318,2.319 11.317,2.319 3.999,0 7.784,-0.773 11.357,-2.319 3.572,-1.546 6.678,-3.652 9.317,-6.319 2.639,-2.665 4.732,-5.771 6.278,-9.317 1.546,-3.545 2.319,-7.318 2.319,-11.316 0,-4 -0.773,-7.772 -2.319,-11.317 -1.546,-3.546 -3.639,-6.639 -6.278,-9.278 -2.639,-2.638 -5.745,-4.718 -9.317,-6.238 -3.573,-1.519 -7.358,-2.279 -11.357,-2.279 -3.999,0 -7.771,0.76 -11.317,2.279 -3.545,1.52 -6.638,3.6 -9.277,6.238 -2.639,2.639 -4.719,5.732 -6.238,9.278 -1.52,3.545 -2.28,7.317 -2.28,11.317 0,3.998 0.76,7.771 2.28,11.316"
             style="fill:#2d2c2e;fill-opacity:1;fill-rule:nonzero;stroke:none"
             id="path148"
             inkscape:connector-curvature="0" /></g><g
           id="g150"
           transform="translate(224.49121,1126.8954)"><path
             d="m 0,0 c -2.826,-0.96 -6.105,-1.439 -9.837,-1.439 -4.426,0 -8.411,0.773 -11.957,2.319 -3.545,1.546 -6.558,3.639 -9.037,6.278 -2.479,2.639 -4.399,5.691 -5.759,9.157 -1.359,3.466 -2.039,7.145 -2.039,11.037 0,4.212 0.773,8.131 2.319,11.757 1.547,3.625 3.653,6.758 6.318,9.397 2.666,2.64 5.786,4.705 9.358,6.198 3.572,1.494 7.384,2.239 11.437,2.239 1.439,0 2.892,-0.092 4.358,-0.279 1.467,-0.187 2.866,-0.466 4.199,-0.84 1.333,-0.373 2.56,-0.799 3.679,-1.28 1.12,-0.479 2.08,-1.013 2.879,-1.599 -0.266,-0.427 -0.48,-0.773 -0.639,-1.04 -0.16,-0.267 -0.321,-0.546 -0.48,-0.84 -0.16,-0.293 -0.347,-0.626 -0.56,-1 -0.213,-0.373 -0.48,-0.852 -0.8,-1.439 -1.706,1.066 -3.692,1.867 -5.958,2.399 -2.266,0.534 -4.439,0.8 -6.518,0.8 -3.359,0 -6.505,-0.64 -9.438,-1.919 -2.932,-1.28 -5.478,-3.026 -7.637,-5.239 -2.16,-2.212 -3.866,-4.771 -5.119,-7.677 -1.253,-2.907 -1.879,-5.985 -1.879,-9.238 0,-3.093 0.559,-6.065 1.679,-8.917 1.12,-2.853 2.719,-5.358 4.798,-7.518 2.08,-2.159 4.559,-3.892 7.439,-5.199 2.879,-1.306 6.078,-1.959 9.597,-1.959 1.546,0 3.039,0.12 4.478,0.36 1.44,0.239 2.773,0.56 3.999,0.96 1.227,0.399 2.306,0.813 3.24,1.239 0.932,0.426 1.666,0.854 2.199,1.28 L 6.798,3.04 C 5.092,1.973 2.826,0.96 0,0"
             style="fill:#2d2c2e;fill-opacity:1;fill-rule:nonzero;stroke:none"
             id="path152"
             inkscape:connector-curvature="0" /></g><g
           id="g154"
           transform="translate(281.59131,1126.8954)"><path
             d="m 0,0 c -2.826,-0.96 -6.106,-1.439 -9.838,-1.439 -4.425,0 -8.41,0.773 -11.956,2.319 -3.546,1.546 -6.558,3.639 -9.037,6.278 -2.48,2.639 -4.399,5.691 -5.759,9.157 -1.359,3.466 -2.039,7.145 -2.039,11.037 0,4.212 0.773,8.131 2.319,11.757 1.546,3.625 3.652,6.758 6.318,9.397 2.666,2.64 5.785,4.705 9.357,6.198 3.573,1.494 7.385,2.239 11.437,2.239 1.44,0 2.892,-0.092 4.359,-0.279 1.466,-0.187 2.866,-0.466 4.199,-0.84 1.333,-0.373 2.559,-0.799 3.679,-1.28 1.12,-0.479 2.08,-1.013 2.879,-1.599 -0.267,-0.427 -0.48,-0.773 -0.64,-1.04 -0.159,-0.267 -0.32,-0.546 -0.48,-0.84 -0.16,-0.293 -0.346,-0.626 -0.56,-1 -0.213,-0.373 -0.479,-0.852 -0.799,-1.439 -1.707,1.066 -3.693,1.867 -5.958,2.399 -2.267,0.534 -4.44,0.8 -6.519,0.8 -3.359,0 -6.505,-0.64 -9.438,-1.919 -2.931,-1.28 -5.477,-3.026 -7.637,-5.239 -2.159,-2.212 -3.866,-4.771 -5.118,-7.677 -1.253,-2.907 -1.88,-5.985 -1.88,-9.238 0,-3.093 0.56,-6.065 1.68,-8.917 1.119,-2.853 2.719,-5.358 4.798,-7.518 2.08,-2.159 4.559,-3.892 7.438,-5.199 2.879,-1.306 6.078,-1.959 9.598,-1.959 1.545,0 3.038,0.12 4.478,0.36 1.44,0.239 2.773,0.56 3.999,0.96 1.226,0.399 2.306,0.813 3.239,1.239 0.933,0.426 1.666,0.854 2.199,1.28 L 6.798,3.04 C 5.091,1.973 2.826,0.96 0,0"
             style="fill:#2d2c2e;fill-opacity:1;fill-rule:nonzero;stroke:none"
             id="path156"
             inkscape:connector-curvature="0" /></g><g
           id="g158"
           transform="translate(427.89671,1145.2499)"><path
             d="m 0,0 c 1.253,-2.905 2.946,-5.438 5.079,-7.597 2.133,-2.16 4.638,-3.866 7.517,-5.119 2.88,-1.253 5.945,-1.88 9.198,-1.88 3.252,0 6.331,0.627 9.237,1.88 2.906,1.253 5.438,2.959 7.598,5.119 2.159,2.159 3.866,4.692 5.118,7.597 1.254,2.906 1.88,6.012 1.88,9.318 0,3.305 -0.626,6.411 -1.88,9.317 -1.252,2.906 -2.959,5.452 -5.118,7.638 -2.16,2.186 -4.692,3.906 -7.598,5.158 -2.906,1.253 -5.985,1.879 -9.237,1.879 -3.306,0 -6.385,-0.626 -9.237,-1.879 C 9.704,30.179 7.198,28.459 5.039,26.273 2.879,24.087 1.186,21.541 -0.04,18.635 -1.266,15.729 -1.879,12.623 -1.879,9.318 -1.879,6.012 -1.253,2.906 0,0 m -5.039,20.634 c 1.52,3.546 3.6,6.652 6.239,9.317 2.639,2.667 5.731,4.773 9.277,6.319 3.545,1.546 7.318,2.319 11.317,2.319 3.999,0 7.784,-0.773 11.356,-2.319 3.573,-1.546 6.678,-3.652 9.318,-6.319 2.639,-2.665 4.732,-5.771 6.278,-9.317 1.547,-3.545 2.319,-7.318 2.319,-11.316 0,-4 -0.772,-7.772 -2.319,-11.317 -1.546,-3.546 -3.639,-6.639 -6.278,-9.278 -2.64,-2.638 -5.745,-4.718 -9.318,-6.238 -3.572,-1.519 -7.357,-2.279 -11.356,-2.279 -3.999,0 -7.772,0.76 -11.317,2.279 -3.546,1.52 -6.638,3.6 -9.277,6.238 -2.639,2.639 -4.719,5.732 -6.239,9.278 -1.519,3.545 -2.279,7.317 -2.279,11.317 0,3.998 0.76,7.771 2.279,11.316"
             style="fill:#2d2c2e;fill-opacity:1;fill-rule:nonzero;stroke:none"
             id="path160"
             inkscape:connector-curvature="0" /></g><g
           id="g162"
           transform="translate(493.79411,1170.5224)"><path
             d="m 0,0 c 0.826,0.827 1.239,1.853 1.239,3.079 0,1.227 -0.413,2.254 -1.239,3.08 -0.826,0.826 -1.852,1.239 -3.079,1.239 -1.227,0 -2.253,-0.413 -3.079,-1.239 -0.826,-0.826 -1.239,-1.853 -1.239,-3.08 0,-1.226 0.413,-2.252 1.239,-3.079 0.826,-0.826 1.852,-1.239 3.079,-1.239 1.227,0 2.253,0.413 3.079,1.239 m -8.151,8.034 c 1.362,1.336 3.051,2.003 5.068,2.003 0.958,0 1.866,-0.176 2.722,-0.529 C 0.497,9.155 1.24,8.663 1.87,8.034 2.501,7.403 2.992,6.659 3.345,5.802 3.698,4.945 3.875,4.037 3.875,3.079 3.875,2.071 3.698,1.151 3.345,0.319 2.992,-0.513 2.501,-1.244 1.87,-1.874 1.24,-2.505 0.497,-2.997 -0.361,-3.349 c -0.856,-0.353 -1.764,-0.529 -2.722,-0.529 -2.017,0 -3.706,0.667 -5.068,2.004 -1.361,1.336 -2.042,2.987 -2.042,4.953 0,1.967 0.681,3.619 2.042,4.955"
             style="fill:#2d2c2e;fill-opacity:1;fill-rule:nonzero;stroke:none"
             id="path164"
             inkscape:connector-curvature="0" /></g><g
           id="g166"
           transform="translate(49.833912,1144.1707)"><path
             d="m 0,0 c -1.546,3.785 -3.159,7.718 -4.839,11.797 -1.679,4.078 -3.292,8.01 -4.838,11.796 -1.546,3.786 -2.986,7.251 -4.319,10.397 -0.802,1.893 -1.506,3.57 -2.115,5.039 l -2.212,0 c -0.622,-1.469 -1.325,-3.146 -2.111,-5.039 -1.306,-3.146 -2.733,-6.611 -4.279,-10.397 -1.546,-3.786 -3.146,-7.718 -4.799,-11.796 C -31.164,7.718 -32.764,3.785 -34.31,0 c -1.546,-3.785 -2.986,-7.265 -4.319,-10.437 -1.333,-3.172 -2.399,-5.718 -3.199,-7.638 l 5.438,0 c 1.067,2.452 2.32,5.465 3.76,9.038 l 14.635,36.709 c 0.107,0.213 0.24,0.573 0.4,1.08 0.16,0.506 0.293,0.973 0.4,1.399 0.107,-0.426 0.24,-0.893 0.4,-1.399 0.16,-0.507 0.293,-0.867 0.4,-1.08 L -1.76,-9.037 c 1.44,-3.573 2.693,-6.586 3.759,-9.038 l 5.519,0 c -0.853,1.92 -1.933,4.466 -3.239,7.638 C 2.972,-7.265 1.546,-3.785 0,0"
             style="fill:#2d2c2e;fill-opacity:1;fill-rule:nonzero;stroke:none"
             id="path168"
             inkscape:connector-curvature="0" /></g><g
           id="g170"
           transform="translate(342.28931,1144.1707)"><path
             d="m 0,0 c -1.546,3.785 -3.159,7.718 -4.839,11.797 -1.679,4.078 -3.292,8.01 -4.838,11.796 -1.546,3.786 -2.986,7.251 -4.319,10.397 -0.802,1.893 -1.506,3.57 -2.115,5.039 l -2.212,0 c -0.622,-1.469 -1.325,-3.146 -2.111,-5.039 -1.307,-3.146 -2.733,-6.611 -4.279,-10.397 -1.546,-3.786 -3.146,-7.718 -4.799,-11.796 C -31.164,7.718 -32.764,3.785 -34.31,0 c -1.546,-3.785 -2.986,-7.265 -4.319,-10.437 -1.333,-3.172 -2.399,-5.718 -3.199,-7.638 l 5.438,0 c 1.067,2.452 2.32,5.465 3.76,9.038 l 14.635,36.709 c 0.107,0.213 0.24,0.573 0.4,1.08 0.16,0.506 0.293,0.973 0.4,1.399 0.107,-0.426 0.24,-0.893 0.4,-1.399 0.16,-0.507 0.293,-0.867 0.4,-1.08 L -1.76,-9.037 c 1.44,-3.573 2.693,-6.586 3.759,-9.038 l 5.519,0 c -0.853,1.92 -1.933,4.466 -3.239,7.638 C 2.972,-7.265 1.546,-3.785 0,0"
             style="fill:#2d2c2e;fill-opacity:1;fill-rule:nonzero;stroke:none"
             id="path172"
             inkscape:connector-curvature="0" /></g><g
           id="g174"
           transform="translate(65.585412,1165.1243)"><path
             d="m 0,0 c 1.546,-3.785 3.146,-7.718 4.799,-11.797 1.653,-4.078 3.252,-7.997 4.798,-11.756 1.547,-3.759 2.986,-7.225 4.319,-10.397 0.804,-1.912 1.508,-3.602 2.118,-5.079 l 2.162,0 c 0.61,1.477 1.315,3.167 2.118,5.079 1.333,3.172 2.773,6.638 4.319,10.397 1.546,3.759 3.159,7.678 4.839,11.756 1.679,4.079 3.292,8.012 4.838,11.797 1.547,3.785 2.973,7.251 4.279,10.397 1.307,3.146 2.386,5.705 3.239,7.678 l -5.518,0 c -0.747,-1.813 -1.613,-3.946 -2.599,-6.398 -0.987,-2.453 -2.04,-5.065 -3.16,-7.838 -1.119,-2.772 -2.266,-5.638 -3.439,-8.598 -1.173,-2.959 -2.319,-5.825 -3.439,-8.597 -1.12,-2.773 -2.172,-5.385 -3.159,-7.837 -0.986,-2.453 -1.853,-4.586 -2.599,-6.399 l -0.8,-2.559 -0.8,2.559 c -0.746,1.813 -1.612,3.946 -2.599,6.399 -0.986,2.452 -2.039,5.064 -3.159,7.837 -1.12,2.772 -2.266,5.638 -3.439,8.597 -1.173,2.96 -2.319,5.826 -3.439,8.598 -1.12,2.773 -2.172,5.385 -3.159,7.838 -0.986,2.452 -1.853,4.585 -2.599,6.398 l -5.439,0 c 0.8,-1.973 1.866,-4.532 3.2,-7.678 C -2.986,7.251 -1.546,3.785 0,0"
             style="fill:#2d2c2e;fill-opacity:1;fill-rule:nonzero;stroke:none"
             id="path176"
             inkscape:connector-curvature="0" /></g><g
           id="g178"
           transform="translate(406.98671,1164.4449)"><path
             d="m 0,0 c -1.12,3.439 -2.933,6.545 -5.439,9.317 -2.506,2.773 -5.758,5.039 -9.756,6.798 -4,1.76 -8.878,2.639 -14.637,2.639 l -13.276,0 0,-5.278 5.519,0 1.918,0 7.519,0 c 3.732,0 7.091,-0.6 10.077,-1.8 2.986,-1.199 5.545,-2.838 7.678,-4.918 2.133,-2.079 3.772,-4.546 4.918,-7.398 1.147,-2.853 1.72,-5.932 1.72,-9.237 0,-3.626 -0.613,-6.878 -1.84,-9.758 -1.226,-2.879 -2.918,-5.318 -5.078,-7.317 -2.159,-2 -4.692,-3.533 -7.598,-4.599 -2.906,-1.067 -6.012,-1.6 -9.317,-1.6 l -8.079,0 -1.918,0 -5.519,0 0,-5.198 16.076,0 c 3.892,0 7.571,0.653 11.037,1.959 3.465,1.307 6.505,3.186 9.117,5.639 2.612,2.452 4.692,5.411 6.238,8.877 1.546,3.465 2.319,7.358 2.319,11.677 C 1.679,-6.838 1.119,-3.439 0,0"
             style="fill:#2d2c2e;fill-opacity:1;fill-rule:nonzero;stroke:none"
             id="path180"
             inkscape:connector-curvature="0" /></g></g></g><text
       transform="scale(1,-1)"
       id="text218"
       x="136.90132"
       y="-1082.3276"><tspan
         style="font-size:35px;font-variant:normal;font-weight:100;font-stretch:normal;writing-mode:lr-tb;fill:#2d2c2e;fill-opacity:1;fill-rule:nonzero;stroke:none;font-family:Josefin Sans;-inkscape-font-specification:JosefinSans-Thin"
         x="136.90132 155.48631 188.03632 196.85632 214.28632 237.00131 262.62131 271.79132 293.07132 315.40131 336.6813 356.52631 377.31631 394.74631 420.3663 429.18631 457.50131"
         y="-1082.3276"
         sodipodi:role="line"
         id="tspan220">SWITCH EVERYTHING</tspan></text>
</g></svg>