  0
SECTION
  2
HEADER
  9
$ACADVER
  1
AC1024
  9
$ACADMAINTVER
 70
     6
  9
$DWGCODEPAGE
  3
ANSI_1252
  9
$INSBASE
 10
0.0
 20
0.0
 30
0.0
  9
$EXTMIN
 10
1.000000000000000E+20
 20
1.000000000000000E+20
 30
1.000000000000000E+20
  9
$EXTMAX
 10
-1.000000000000000E+20
 20
-1.000000000000000E+20
 30
-1.000000000000000E+20
  9
$LIMMIN
 10
0.0
 20
0.0
  9
$LIMMAX
 10
12.0
 20
9.0
  9
$ORTHOMODE
 70
     0
  9
$REGENMODE
 70
     1
  9
$FILLMODE
 70
     1
  9
$QTEXTMODE
 70
     0
  9
$MIRRTEXT
 70
     1
  9
$LTSCALE
 40
1.0
  9
$ATTMODE
 70
     1
  9
$TEXTSIZE
 40
0.2
  9
$TRACEWID
 40
0.05
  9
$TEXTSTYLE
  7
Standard
  9
$CLAYER
  8
0
  9
$CELTYPE
  6
ByLayer
  9
$CECOLOR
 62
   256
  9
$CELTSCALE
 40
1.0
  9
$DISPSILH
 70
     0
  9
$DIMSCALE
 40
1.0
  9
$DIMASZ
 40
0.18
  9
$DIMEXO
 40
0.0625
  9
$DIMDLI
 40
0.38
  9
$DIMRND
 40
0.0
  9
$DIMDLE
 40
0.0
  9
$DIMEXE
 40
0.18
  9
$DIMTP
 40
0.0
  9
$DIMTM
 40
0.0
  9
$DIMTXT
 40
0.18
  9
$DIMCEN
 40
0.09
  9
$DIMTSZ
 40
0.0
  9
$DIMTOL
 70
     0
  9
$DIMLIM
 70
     0
  9
$DIMTIH
 70
     1
  9
$DIMTOH
 70
     1
  9
$DIMSE1
 70
     0
  9
$DIMSE2
 70
     0
  9
$DIMTAD
 70
     0
  9
$DIMZIN
 70
     0
  9
$DIMBLK
  1

  9
$DIMASO
 70
     1
  9
$DIMSHO
 70
     1
  9
$DIMPOST
  1

  9
$DIMAPOST
  1

  9
$DIMALT
 70
     0
  9
$DIMALTD
 70
     2
  9
$DIMALTF
 40
25.4
  9
$DIMLFAC
 40
1.0
  9
$DIMTOFL
 70
     0
  9
$DIMTVP
 40
0.0
  9
$DIMTIX
 70
     0
  9
$DIMSOXD
 70
     0
  9
$DIMSAH
 70
     0
  9
$DIMBLK1
  1

  9
$DIMBLK2
  1

  9
$DIMSTYLE
  2
Standard
  9
$DIMCLRD
 70
     0
  9
$DIMCLRE
 70
     0
  9
$DIMCLRT
 70
     0
  9
$DIMTFAC
 40
1.0
  9
$DIMGAP
 40
0.09
  9
$DIMJUST
 70
     0
  9
$DIMSD1
 70
     0
  9
$DIMSD2
 70
     0
  9
$DIMTOLJ
 70
     1
  9
$DIMTZIN
 70
     0
  9
$DIMALTZ
 70
     0
  9
$DIMALTTZ
 70
     0
  9
$DIMUPT
 70
     0
  9
$DIMDEC
 70
     4
  9
$DIMTDEC
 70
     4
  9
$DIMALTU
 70
     2
  9
$DIMALTTD
 70
     2
  9
$DIMTXSTY
  7
Standard
  9
$DIMAUNIT
 70
     0
  9
$DIMADEC
 70
     0
  9
$DIMALTRND
 40
0.0
  9
$DIMAZIN
 70
     0
  9
$DIMDSEP
 70
    46
  9
$DIMATFIT
 70
     3
  9
$DIMFRAC
 70
     0
  9
$DIMLDRBLK
  1

  9
$DIMLUNIT
 70
     2
  9
$DIMLWD
 70
    -2
  9
$DIMLWE
 70
    -2
  9
$DIMTMOVE
 70
     0
  9
$DIMFXL
 40
1.0
  9
$DIMFXLON
 70
     0
  9
$DIMJOGANG
 40
0.7853981633974483
  9
$DIMTFILL
 70
     0
  9
$DIMTFILLCLR
 70
     0
  9
$DIMARCSYM
 70
     0
  9
$DIMLTYPE
  6

  9
$DIMLTEX1
  6

  9
$DIMLTEX2
  6

  9
$DIMTXTDIRECTION
 70
     0
  9
$LUNITS
 70
     2
  9
$LUPREC
 70
     4
  9
$SKETCHINC
 40
0.1
  9
$FILLETRAD
 40
0.5
  9
$AUNITS
 70
     0
  9
$AUPREC
 70
     0
  9
$MENU
  1
.
  9
$ELEVATION
 40
0.0
  9
$PELEVATION
 40
0.0
  9
$THICKNESS
 40
0.0
  9
$LIMCHECK
 70
     0
  9
$CHAMFERA
 40
0.5
  9
$CHAMFERB
 40
0.5
  9
$CHAMFERC
 40
1.0
  9
$CHAMFERD
 40
0.0
  9
$SKPOLY
 70
     0
  9
$TDCREATE
 40
2457035.01965963
  9
$TDUCREATE
 40
2457034.977992963
  9
$TDUPDATE
 40
2457035.019659676
  9
$TDUUPDATE
 40
2457034.977993009
  9
$TDINDWG
 40
0.0000000116
  9
$TDUSRTIMER
 40
0.0000000116
  9
$USRTIMER
 70
     1
  9
$ANGBASE
 50
0.0
  9
$ANGDIR
 70
     0
  9
$PDMODE
 70
     0
  9
$PDSIZE
 40
0.0
  9
$PLINEWID
 40
0.0
  9
$SPLFRAME
 70
     0
  9
$SPLINETYPE
 70
     6
  9
$SPLINESEGS
 70
     8
  9
$HANDSEED
  5
59
  9
$SURFTAB1
 70
     6
  9
$SURFTAB2
 70
     6
  9
$SURFTYPE
 70
     6
  9
$SURFU
 70
     6
  9
$SURFV
 70
     6
  9
$UCSBASE
  2

  9
$UCSNAME
  2

  9
$UCSORG
 10
0.0
 20
0.0
 30
0.0
  9
$UCSXDIR
 10
1.0
 20
0.0
 30
0.0
  9
$UCSYDIR
 10
0.0
 20
1.0
 30
0.0
  9
$UCSORTHOREF
  2

  9
$UCSORTHOVIEW
 70
     0
  9
$UCSORGTOP
 10
0.0
 20
0.0
 30
0.0
  9
$UCSORGBOTTOM
 10
0.0
 20
0.0
 30
0.0
  9
$UCSORGLEFT
 10
0.0
 20
0.0
 30
0.0
  9
$UCSORGRIGHT
 10
0.0
 20
0.0
 30
0.0
  9
$UCSORGFRONT
 10
0.0
 20
0.0
 30
0.0
  9
$UCSORGBACK
 10
0.0
 20
0.0
 30
0.0
  9
$PUCSBASE
  2

  9
$PUCSNAME
  2

  9
$PUCSORG
 10
0.0
 20
0.0
 30
0.0
  9
$PUCSXDIR
 10
1.0
 20
0.0
 30
0.0
  9
$PUCSYDIR
 10
0.0
 20
1.0
 30
0.0
  9
$PUCSORTHOREF
  2

  9
$PUCSORTHOVIEW
 70
     0
  9
$PUCSORGTOP
 10
0.0
 20
0.0
 30
0.0
  9
$PUCSORGBOTTOM
 10
0.0
 20
0.0
 30
0.0
  9
$PUCSORGLEFT
 10
0.0
 20
0.0
 30
0.0
  9
$PUCSORGRIGHT
 10
0.0
 20
0.0
 30
0.0
  9
$PUCSORGFRONT
 10
0.0
 20
0.0
 30
0.0
  9
$PUCSORGBACK
 10
0.0
 20
0.0
 30
0.0
  9
$USERI1
 70
     0
  9
$USERI2
 70
     0
  9
$USERI3
 70
     0
  9
$USERI4
 70
     0
  9
$USERI5
 70
     0
  9
$USERR1
 40
0.0
  9
$USERR2
 40
0.0
  9
$USERR3
 40
0.0
  9
$USERR4
 40
0.0
  9
$USERR5
 40
0.0
  9
$WORLDVIEW
 70
     1
  9
$SHADEDGE
 70
     3
  9
$SHADEDIF
 70
    70
  9
$TILEMODE
 70
     1
  9
$MAXACTVP
 70
    64
  9
$PINSBASE
 10
0.0
 20
0.0
 30
0.0
  9
$PLIMCHECK
 70
     0
  9
$PEXTMIN
 10
1.000000000000000E+20
 20
1.000000000000000E+20
 30
1.000000000000000E+20
  9
$PEXTMAX
 10
-1.000000000000000E+20
 20
-1.000000000000000E+20
 30
-1.000000000000000E+20
  9
$PLIMMIN
 10
0.0
 20
0.0
  9
$PLIMMAX
 10
12.0
 20
9.0
  9
$UNITMODE
 70
     0
  9
$VISRETAIN
 70
     1
  9
$PLINEGEN
 70
     0
  9
$PSLTSCALE
 70
     1
  9
$TREEDEPTH
 70
  3020
  9
$CMLSTYLE
  2
Standard
  9
$CMLJUST
 70
     0
  9
$CMLSCALE
 40
1.0
  9
$PROXYGRAPHICS
 70
     1
  9
$MEASUREMENT
 70
     0
  9
$CELWEIGHT
370
    -1
  9
$ENDCAPS
280
     0
  9
$JOINSTYLE
280
     0
  9
$LWDISPLAY
290
     1
  9
$INSUNITS
 70
     1
  9
$HYPERLINKBASE
  1

  9
$STYLESHEET
  1

  9
$XEDIT
290
     1
  9
$CEPSNTYPE
380
     0
  9
$PSTYLEMODE
290
     1
  9
$FINGERPRINTGUID
  2
{F86AD550-5078-4A3E-B9C2-FA8D1F6D5105}
  9
$VERSIONGUID
  2
{FAEB1C32-E019-11D5-929B-00C0DF256EC4}
  9
$EXTNAMES
290
     1
  9
$PSVPSCALE
 40
0.0
  9
$OLESTARTUP
290
     0
  9
$SORTENTS
280
   127
  9
$INDEXCTL
280
     0
  9
$HIDETEXT
280
     1
  9
$XCLIPFRAME
280
     2
  9
$HALOGAP
280
     0
  9
$OBSCOLOR
 70
   257
  9
$OBSLTYPE
280
     0
  9
$INTERSECTIONDISPLAY
280
     0
  9
$INTERSECTIONCOLOR
 70
   257
  9
$DIMASSOC
280
     2
  9
$PROJECTNAME
  1

  9
$CAMERADISPLAY
290
     0
  9
$LENSLENGTH
 40
50.0
  9
$CAMERAHEIGHT
 40
0.0
  9
$STEPSPERSEC
 40
2.0
  9
$STEPSIZE
 40
6.0
  9
$3DDWFPREC
 40
2.0
  9
$PSOLWIDTH
 40
0.25
  9
$PSOLHEIGHT
 40
4.0
  9
$LOFTANG1
 40
1.570796326794897
  9
$LOFTANG2
 40
1.570796326794897
  9
$LOFTMAG1
 40
0.0
  9
$LOFTMAG2
 40
0.0
  9
$LOFTPARAM
 70
     7
  9
$LOFTNORMALS
280
     1
  9
$LATITUDE
 40
37.795
  9
$LONGITUDE
 40
-122.394
  9
$NORTHDIRECTION
 40
0.0
  9
$TIMEZONE
 70
 -8000
  9
$LIGHTGLYPHDISPLAY
280
     1
  9
$TILEMODELIGHTSYNCH
280
     1
  9
$CMATERIAL
347
3C
  9
$SOLIDHIST
280
     1
  9
$SHOWHIST
280
     1
  9
$DWFFRAME
280
     2
  9
$DGNFRAME
280
     2
  9
$REALWORLDSCALE
290
     1
  9
$INTERFERECOLOR
 62
   256
  9
$CSHADOW
280
     0
  9
$SHADOWPLANELOCATION
 40
0.0
  0
ENDSEC
  0
SECTION
  2
CLASSES
  0
CLASS
  1
ACDBDICTIONARYWDFLT
  2
AcDbDictionaryWithDefault
  3
ObjectDBX Classes
 90
        0
 91
        4
280
     0
281
     0
  0
CLASS
  1
VISUALSTYLE
  2
AcDbVisualStyle
  3
ObjectDBX Classes
 90
     4095
 91
        4
280
     0
281
     0
  0
CLASS
  1
MATERIAL
  2
AcDbMaterial
  3
ObjectDBX Classes
 90
     1153
 91
        4
280
     0
281
     0
  0
CLASS
  1
SUN
  2
AcDbSun
  3
SCENEOE
 90
     1024
 91
        4
280
     0
281
     0
  0
ENDSEC
  0
SECTION
  2
TABLES
  0
TABLE
  2
VPORT
  5
8
330
0
100
AcDbSymbolTable
 70
     1
  0
VPORT
  5
29
330
8
100
AcDbSymbolTableRecord
100
AcDbViewportTableRecord
  2
*Active
 70
     0
 10
0.0
 20
0.0
 11
1.0
 21
1.0
 12
0.0
 22
0.0
 13
0.0
 23
0.0
 14
0.5
 24
0.5
 15
0.5
 25
0.5
 16
0.0
 26
0.0
 36
1.0
 17
10.56490776009545
 27
-1.256770833019141
 37
0.0
 40
3.999999998999733
 41
5.000000000000321
 42
50.0
 43
0.0
 44
0.0
 50
0.0
 51
0.0
 71
     0
 72
   100
 73
     1
 74
     3
 75
     0
 76
     0
 77
     0
 78
     0
281
     0
 65
     1
110
0.0
120
0.0
130
0.0
111
1.0
121
0.0
131
0.0
112
0.0
122
1.0
132
0.0
 79
     0
146
0.0
 60
     3
 61
     5
292
     1
282
     1
141
0.0
142
0.0
 63
   250
361
3F
  0
ENDTAB
  0
TABLE
  2
LTYPE
  5
5
330
0
100
AcDbSymbolTable
 70
     1
  0
LTYPE
  5
14
330
5
100
AcDbSymbolTableRecord
100
AcDbLinetypeTableRecord
  2
ByBlock
 70
     0
  3

 72
    65
 73
     0
 40
0.0
  0
LTYPE
  5
15
330
5
100
AcDbSymbolTableRecord
100
AcDbLinetypeTableRecord
  2
ByLayer
 70
     0
  3

 72
    65
 73
     0
 40
0.0
  0
LTYPE
  5
16
330
5
100
AcDbSymbolTableRecord
100
AcDbLinetypeTableRecord
  2
Continuous
 70
     0
  3
Solid line
 72
    65
 73
     0
 40
0.0
  0
ENDTAB
  0
TABLE
  2
LAYER
  5
2
330
0
100
AcDbSymbolTable
 70
     2
  0
LAYER
  5
10
330
2
100
AcDbSymbolTableRecord
100
AcDbLayerTableRecord
  2
0
 70
     0
 62
     7
  6
Continuous
370
    -3
390
F
347
3E
  0
LAYER
  5
40
330
2
100
AcDbSymbolTableRecord
100
AcDbLayerTableRecord
  2
Layer 1
 70
     0
 62
     7
  6
Continuous
370
    -3
390
F
347
3E
  0
ENDTAB
  0
TABLE
  2
STYLE
  5
3
330
0
100
AcDbSymbolTable
 70
     1
  0
STYLE
  5
11
330
3
100
AcDbSymbolTableRecord
100
AcDbTextStyleTableRecord
  2
Standard
 70
     0
 40
0.0
 41
1.0
 50
0.0
 71
     0
 42
0.2
  3
txt
  4

  0
ENDTAB
  0
TABLE
  2
VIEW
  5
6
330
0
100
AcDbSymbolTable
 70
     0
  0
ENDTAB
  0
TABLE
  2
UCS
  5
7
330
0
100
AcDbSymbolTable
 70
     0
  0
ENDTAB
  0
TABLE
  2
APPID
  5
9
330
0
100
AcDbSymbolTable
 70
     1
  0
APPID
  5
12
330
9
100
AcDbSymbolTableRecord
100
AcDbRegAppTableRecord
  2
ACAD
 70
     0
  0
ENDTAB
  0
TABLE
  2
DIMSTYLE
  5
A
330
0
100
AcDbSymbolTable
 70
     1
100
AcDbDimStyleTable
  0
DIMSTYLE
105
27
330
A
100
AcDbSymbolTableRecord
100
AcDbDimStyleTableRecord
  2
Standard
 70
     0
178
     0
340
11
  0
ENDTAB
  0
TABLE
  2
BLOCK_RECORD
  5
1
330
0
100
AcDbSymbolTable
 70
     2
  0
BLOCK_RECORD
  5
1F
330
1
100
AcDbSymbolTableRecord
100
AcDbBlockTableRecord
  2
*Model_Space
340
22
 70
     0
280
     1
281
     0
  0
BLOCK_RECORD
  5
1B
330
1
100
AcDbSymbolTableRecord
100
AcDbBlockTableRecord
  2
*Paper_Space
340
1E
 70
     0
280
     1
281
     0
  0
BLOCK_RECORD
  5
23
330
1
100
AcDbSymbolTableRecord
100
AcDbBlockTableRecord
  2
*Paper_Space0
340
26
 70
     0
280
     1
281
     0
  0
BLOCK_RECORD
  5
41
330
1
100
AcDbSymbolTableRecord
100
AcDbBlockTableRecord
  2
block 2
340
0
102
{BLKREFS
331
42
102
}
 70
     0
280
     1
281
     0
  0
ENDTAB
  0
ENDSEC
  0
SECTION
  2
BLOCKS
  0
BLOCK
  5
20
330
1F
100
AcDbEntity
  8
0
100
AcDbBlockBegin
  2
*Model_Space
 70
     0
 10
0.0
 20
0.0
 30
0.0
  3
*Model_Space
  1

  0
ENDBLK
  5
21
330
1F
100
AcDbEntity
  8
0
100
AcDbBlockEnd
  0
BLOCK
  5
1C
330
1B
100
AcDbEntity
 67
     1
  8
0
100
AcDbBlockBegin
  2
*Paper_Space
 70
     0
 10
0.0
 20
0.0
 30
0.0
  3
*Paper_Space
  1

  0
ENDBLK
  5
1D
330
1B
100
AcDbEntity
 67
     1
  8
0
100
AcDbBlockEnd
  0
BLOCK
  5
24
330
23
100
AcDbEntity
  8
0
100
AcDbBlockBegin
  2
*Paper_Space0
 70
     0
 10
0.0
 20
0.0
 30
0.0
  3
*Paper_Space0
  1

  0
ENDBLK
  5
25
330
23
100
AcDbEntity
  8
0
100
AcDbBlockEnd
  0
BLOCK
  5
43
330
41
100
AcDbEntity
  8
0
100
AcDbBlockBegin
  2
block 2
 70
     0
 10
0.0
 20
0.0
 30
0.0
  3
block 2
  1

  0
SPLINE
  5
45
330
41
100
AcDbEntity
  8
Layer 1
370
     0
100
AcDbSpline
210
0.0
220
0.0
230
1.0
 70
    11
 71
     3
 72
   104
 73
   100
 74
     0
 42
0.0000000001
 43
0.0000000001
 12
1.0
 22
0.0
 32
0.0
 13
1.0
 23
0.0
 33
0.0
 40
0.0
 40
0.0
 40
0.0
 40
0.0
 40
1.0
 40
1.0
 40
1.0
 40
2.0
 40
2.0
 40
2.0
 40
3.0
 40
3.0
 40
3.0
 40
4.0
 40
4.0
 40
4.0
 40
5.0
 40
5.0
 40
5.0
 40
6.0
 40
6.0
 40
6.0
 40
7.0
 40
7.0
 40
7.0
 40
8.0
 40
8.0
 40
8.0
 40
9.0
 40
9.0
 40
9.0
 40
10.0
 40
10.0
 40
10.0
 40
11.0
 40
11.0
 40
11.0
 40
12.0
 40
12.0
 40
12.0
 40
13.0
 40
13.0
 40
13.0
 40
14.0
 40
14.0
 40
14.0
 40
15.0
 40
15.0
 40
15.0
 40
16.0
 40
16.0
 40
16.0
 40
17.0
 40
17.0
 40
17.0
 40
18.0
 40
18.0
 40
18.0
 40
19.0
 40
19.0
 40
19.0
 40
20.0
 40
20.0
 40
20.0
 40
21.0
 40
21.0
 40
21.0
 40
22.0
 40
22.0
 40
22.0
 40
23.0
 40
23.0
 40
23.0
 40
24.0
 40
24.0
 40
24.0
 40
25.0
 40
25.0
 40
25.0
 40
26.0
 40
26.0
 40
26.0
 40
27.0
 40
27.0
 40
27.0
 40
28.0
 40
28.0
 40
28.0
 40
29.0
 40
29.0
 40
29.0
 40
30.0
 40
30.0
 40
30.0
 40
31.0
 40
31.0
 40
31.0
 40
32.0
 40
32.0
 40
32.0
 40
33.0
 40
33.0
 40
33.0
 40
33.0
 10
9.52961705696792
 20
-2.428123260231596
 30
0.0
 10
9.419631286380346
 20
-2.465479212159787
 30
0.0
 10
9.292016181278164
 20
-2.48414199042126
 30
0.0
 10
9.146756543959397
 20
-2.48414199042126
 30
0.0
 10
8.974520985292823
 20
-2.48414199042126
 30
0.0
 10
8.819413236969403
 20
-2.45405054012927
 30
0.0
 10
8.681418101286516
 20
-2.393867639545289
 30
0.0
 10
8.543422965603948
 20
-2.33371513436559
 30
0.0
 10
8.426172693380172
 20
-2.252255450746762
 30
0.0
 10
8.32968248231781
 20
-2.149549379497368
 30
0.0
 10
8.233192271254486
 20
-2.046812912844013
 30
0.0
 10
8.158480367398425
 20
-1.928027672700955
 30
0.0
 10
8.105561968450324
 20
-1.793132868260913
 30
0.0
 10
8.052658767204846
 20
-1.65823806382023
 30
0.0
 10
8.026199567730796
 20
-1.515075709400761
 30
0.0
 10
8.026199567730796
 20
-1.36358501419298
 30
0.0
 10
8.026199567730796
 20
-1.199662598612418
 30
0.0
 10
8.056275820321126
 20
-1.047138459657449
 30
0.0
 10
8.116458720904786
 20
-0.9060125973280734
 30
0.0
 10
8.176641621489088
 20
-0.7649171304036216
 30
0.0
 10
8.258602829279369
 20
-0.6430011636140766
 30
0.0
 10
8.362357541978252
 20
-0.5402950923646826
 30
0.0
 10
8.466112254676814
 20
-0.4375586257113278
 30
0.0
 10
8.587511499592605
 20
-0.35716278124429
 30
0.0
 10
8.72654007902268
 20
-0.2990467681550059
 30
0.0
 10
8.865583856154737
 20
-0.2409307550657216
 30
0.0
 10
9.01394382471571
 20
-0.211903143925201
 30
0.0
 10
9.171665577811863
 20
-0.211903143925201
 30
0.0
 10
9.227684308001848
 20
-0.211903143925201
 30
0.0
 10
9.28423495776821
 20
-0.2155201970411604
 30
0.0
 10
9.341302329408004
 20
-0.222784698677361
 30
0.0
 10
9.398369701047159
 20
-0.2300492003132408
 30
0.0
 10
9.452838265616522
 20
-0.2409307550657216
 30
0.0
 10
9.504723220817114
 20
-0.255459758337802
 30
0.0
 10
9.556592978315726
 20
-0.2699887616098824
 30
0.0
 10
9.604328960824303
 20
-0.2865846523776219
 30
0.0
 10
9.647900772938884
 20
-0.3052778260436979
 30
0.0
 10
9.691472585053786
 20
-0.3239406043054919
 30
0.0
 10
9.728828536981977
 20
-0.3447006654665852
 30
0.0
 10
9.759953431021477
 20
-0.3675276141223749
 30
0.0
 10
9.74957340044077
 20
-0.3841235048894726
 30
0.0
 10
9.74127545505706
 20
-0.397619064414686
 30
0.0
 10
9.73505959487067
 20
-0.4079838972927709
 30
0.0
 10
9.728828536981977
 20
-0.4183791255757793
 30
0.0
 10
9.722597479092965
 20
-0.4292606803276185
 30
0.0
 10
9.716381618906574
 20
-0.4406893523578146
 30
0.0
 10
9.710150561017882
 20
-0.4520876289834082
 30
0.0
 10
9.702886059381681
 20
-0.4650664666345465
 30
0.0
 10
9.694588113997971
 20
-0.4795954699069477
 30
0.0
 10
9.686290168614264
 20
-0.494124473179349
 30
0.0
 10
9.675910138033878
 20
-0.512787251441464
 30
0.0
 10
9.663463219958794
 20
-0.5356142000972536
 30
0.0
 10
9.59706445918778
 20
-0.494124473179349
 30
0.0
 10
9.519753748260968
 20
-0.4629691837355682
 30
0.0
 10
9.431561482581674
 20
-0.4422395179790776
 30
0.0
 10
9.343369216903023
 20
-0.4214794568176635
 30
0.0
 10
9.258809202041668
 20
-0.4111146239395786
 30
0.0
 10
9.177881437998574
 20
-0.4111146239395786
 30
0.0
 10
9.047150803951887
 20
-0.4111146239395786
 30
0.0
 10
8.924718115288908
 20
-0.4360084600897439
 30
0.0
 10
8.810583372009638
 20
-0.4857961323916787
 30
0.0
 10
8.696463826432671
 20
-0.5356142000972536
 30
0.0
 10
8.597374808299236
 20
-0.6035783241911892
 30
0.0
 10
8.513331515311958
 20
-0.6896885046731646
 30
0.0
 10
8.42928822232468
 20
-0.7757986851554608
 30
0.0
 10
8.362874263851685
 20
-0.8754044251626496
 30
0.0
 10
8.314120035297579
 20
-0.9885057246944102
 30
0.0
 10
8.265350609041814
 20
-1.101607024226492
 30
0.0
 10
8.240973494764441
 20
-1.221425708116096
 30
0.0
 10
8.240973494764441
 20
-1.34802256717307
 30
0.0
 10
8.240973494764441
 20
-1.468388368341673
 30
0.0
 10
8.262751801970742
 20
-1.584073277242205
 30
0.0
 10
8.306338811787946
 20
-1.695077293874667
 30
0.0
 10
8.349910623903169
 20
-1.806111705912052
 30
0.0
 10
8.412160411981525
 20
-1.903620163019621
 30
0.0
 10
8.493088176024619
 20
-1.987663456007541
 30
0.0
 10
8.574031137769692
 20
-2.071706748994499
 30
0.0
 10
8.670521348832375
 20
-2.139154151214681
 30
0.0
 10
8.782574006914647
 20
-2.190005662668085
 30
0.0
 10
8.89462666499756
 20
-2.240826778716566
 30
0.0
 10
9.019141438856893
 20
-2.26626773214573
 30
0.0
 10
9.156103130792273
 20
-2.26626773214573
 30
0.0
 10
9.216270833673953
 20
-2.26626773214573
 30
0.0
 10
9.274371649061578
 20
-2.261586839877659
 30
0.0
 10
9.330405576953543
 20
-2.252255450746762
 30
0.0
 10
9.38643950484583
 20
-2.242924061615544
 30
0.0
 10
9.438309262344442
 20
-2.23046194583816
 30
0.0
 10
9.48604524485334
 20
-2.214899498818571
 30
0.0
 10
9.533766029659615
 20
-2.199337051799303
 30
0.0
 10
9.575787676153254
 20
-2.183257882905639
 30
0.0
 10
9.612110184333936
 20
-2.16666199213822
 30
0.0
 10
9.648417494812639
 20
-2.150066101371122
 30
0.0
 10
9.676958779483687
 20
-2.133439815200064
 30
0.0
 10
9.697703642942157
 20
-2.116843924432645
 30
0.0
 10
9.697703642942157
 20
-2.116843924432645
 30
0.0
 10
9.794193854005481
 20
-2.309824346558331
 30
0.0
 10
9.794193854005481
 20
-2.309824346558331
 30
0.0
 10
9.72779509323447
 20
-2.351344468880518
 30
0.0
 10
9.639602827555496
 20
-2.390767308303084
 30
0.0
 10
9.52961705696792
 20
-2.428123260231596
 30
0.0
  0
HATCH
  5
46
330
41
100
AcDbEntity
  8
Layer 1
 62
   250
420
  2301728
100
AcDbHatch
 10
0.0
 20
0.0
 30
0.0
210
0.0
220
0.0
230
1.0
  2
SOLID
 70
     1
 71
     0
 91
        1
 92
        1
 93
        1
 72
     4
 94
        3
 73
     0
 74
     1
 95
      104
 96
      100
 40
0.0
 40
0.0
 40
0.0
 40
0.0
 40
1.0
 40
1.0
 40
1.0
 40
2.0
 40
2.0
 40
2.0
 40
3.0
 40
3.0
 40
3.0
 40
4.0
 40
4.0
 40
4.0
 40
5.0
 40
5.0
 40
5.0
 40
6.0
 40
6.0
 40
6.0
 40
7.0
 40
7.0
 40
7.0
 40
8.0
 40
8.0
 40
8.0
 40
9.0
 40
9.0
 40
9.0
 40
10.0
 40
10.0
 40
10.0
 40
11.0
 40
11.0
 40
11.0
 40
12.0
 40
12.0
 40
12.0
 40
13.0
 40
13.0
 40
13.0
 40
14.0
 40
14.0
 40
14.0
 40
15.0
 40
15.0
 40
15.0
 40
16.0
 40
16.0
 40
16.0
 40
17.0
 40
17.0
 40
17.0
 40
18.0
 40
18.0
 40
18.0
 40
19.0
 40
19.0
 40
19.0
 40
20.0
 40
20.0
 40
20.0
 40
21.0
 40
21.0
 40
21.0
 40
22.0
 40
22.0
 40
22.0
 40
23.0
 40
23.0
 40
23.0
 40
24.0
 40
24.0
 40
24.0
 40
25.0
 40
25.0
 40
25.0
 40
26.0
 40
26.0
 40
26.0
 40
27.0
 40
27.0
 40
27.0
 40
28.0
 40
28.0
 40
28.0
 40
29.0
 40
29.0
 40
29.0
 40
30.0
 40
30.0
 40
30.0
 40
31.0
 40
31.0
 40
31.0
 40
32.0
 40
32.0
 40
32.0
 40
33.0
 40
33.0
 40
33.0
 40
33.0
 10
9.52961705696792
 20
-2.428123260231596
 10
9.419631286380346
 20
-2.465479212159787
 10
9.292016181278164
 20
-2.48414199042126
 10
9.146756543959397
 20
-2.48414199042126
 10
8.974520985292823
 20
-2.48414199042126
 10
8.819413236969403
 20
-2.45405054012927
 10
8.681418101286516
 20
-2.393867639545289
 10
8.543422965603948
 20
-2.33371513436559
 10
8.426172693380172
 20
-2.252255450746762
 10
8.32968248231781
 20
-2.149549379497368
 10
8.233192271254486
 20
-2.046812912844013
 10
8.158480367398425
 20
-1.928027672700955
 10
8.105561968450324
 20
-1.793132868260913
 10
8.052658767204846
 20
-1.65823806382023
 10
8.026199567730796
 20
-1.515075709400761
 10
8.026199567730796
 20
-1.36358501419298
 10
8.026199567730796
 20
-1.199662598612418
 10
8.056275820321126
 20
-1.047138459657449
 10
8.116458720904786
 20
-0.9060125973280734
 10
8.176641621489088
 20
-0.7649171304036216
 10
8.258602829279369
 20
-0.6430011636140766
 10
8.362357541978252
 20
-0.5402950923646826
 10
8.466112254676814
 20
-0.4375586257113278
 10
8.587511499592605
 20
-0.35716278124429
 10
8.72654007902268
 20
-0.2990467681550059
 10
8.865583856154737
 20
-0.2409307550657216
 10
9.01394382471571
 20
-0.211903143925201
 10
9.171665577811863
 20
-0.211903143925201
 10
9.227684308001848
 20
-0.211903143925201
 10
9.28423495776821
 20
-0.2155201970411604
 10
9.341302329408004
 20
-0.222784698677361
 10
9.398369701047159
 20
-0.2300492003132408
 10
9.452838265616522
 20
-0.2409307550657216
 10
9.504723220817114
 20
-0.255459758337802
 10
9.556592978315726
 20
-0.2699887616098824
 10
9.604328960824303
 20
-0.2865846523776219
 10
9.647900772938884
 20
-0.3052778260436979
 10
9.691472585053786
 20
-0.3239406043054919
 10
9.728828536981977
 20
-0.3447006654665852
 10
9.759953431021477
 20
-0.3675276141223749
 10
9.74957340044077
 20
-0.3841235048894726
 10
9.74127545505706
 20
-0.397619064414686
 10
9.73505959487067
 20
-0.4079838972927709
 10
9.728828536981977
 20
-0.4183791255757793
 10
9.722597479092965
 20
-0.4292606803276185
 10
9.716381618906574
 20
-0.4406893523578146
 10
9.710150561017882
 20
-0.4520876289834082
 10
9.702886059381681
 20
-0.4650664666345465
 10
9.694588113997971
 20
-0.4795954699069477
 10
9.686290168614264
 20
-0.494124473179349
 10
9.675910138033878
 20
-0.512787251441464
 10
9.663463219958794
 20
-0.5356142000972536
 10
9.59706445918778
 20
-0.494124473179349
 10
9.519753748260968
 20
-0.4629691837355682
 10
9.431561482581674
 20
-0.4422395179790776
 10
9.343369216903023
 20
-0.4214794568176635
 10
9.258809202041668
 20
-0.4111146239395786
 10
9.177881437998574
 20
-0.4111146239395786
 10
9.047150803951887
 20
-0.4111146239395786
 10
8.924718115288908
 20
-0.4360084600897439
 10
8.810583372009638
 20
-0.4857961323916787
 10
8.696463826432671
 20
-0.5356142000972536
 10
8.597374808299236
 20
-0.6035783241911892
 10
8.513331515311958
 20
-0.6896885046731646
 10
8.42928822232468
 20
-0.7757986851554608
 10
8.362874263851685
 20
-0.8754044251626496
 10
8.314120035297579
 20
-0.9885057246944102
 10
8.265350609041814
 20
-1.101607024226492
 10
8.240973494764441
 20
-1.221425708116096
 10
8.240973494764441
 20
-1.34802256717307
 10
8.240973494764441
 20
-1.468388368341673
 10
8.262751801970742
 20
-1.584073277242205
 10
8.306338811787946
 20
-1.695077293874667
 10
8.349910623903169
 20
-1.806111705912052
 10
8.412160411981525
 20
-1.903620163019621
 10
8.493088176024619
 20
-1.987663456007541
 10
8.574031137769692
 20
-2.071706748994499
 10
8.670521348832375
 20
-2.139154151214681
 10
8.782574006914647
 20
-2.190005662668085
 10
8.89462666499756
 20
-2.240826778716566
 10
9.019141438856893
 20
-2.26626773214573
 10
9.156103130792273
 20
-2.26626773214573
 10
9.216270833673953
 20
-2.26626773214573
 10
9.274371649061578
 20
-2.261586839877659
 10
9.330405576953543
 20
-2.252255450746762
 10
9.38643950484583
 20
-2.242924061615544
 10
9.438309262344442
 20
-2.23046194583816
 10
9.48604524485334
 20
-2.214899498818571
 10
9.533766029659615
 20
-2.199337051799303
 10
9.575787676153254
 20
-2.183257882905639
 10
9.612110184333936
 20
-2.16666199213822
 10
9.648417494812639
 20
-2.150066101371122
 10
9.676958779483687
 20
-2.133439815200064
 10
9.697703642942157
 20
-2.116843924432645
 10
9.697703642942157
 20
-2.116843924432645
 10
9.794193854005481
 20
-2.309824346558331
 10
9.794193854005481
 20
-2.309824346558331
 10
9.72779509323447
 20
-2.351344468880518
 10
9.639602827555496
 20
-2.390767308303084
 10
9.52961705696792
 20
-2.428123260231596
 97
        0
 97
        0
 75
     2
 76
     1
 98
        0
  0
SPLINE
  5
47
330
41
100
AcDbEntity
  8
Layer 1
370
     0
100
AcDbSpline
210
0.0
220
0.0
230
1.0
 70
    11
 71
     3
 72
   104
 73
   100
 74
     0
 42
0.0000000001
 43
0.0000000001
 12
1.0
 22
0.0
 32
0.0
 13
1.0
 23
0.0
 33
0.0
 40
0.0
 40
0.0
 40
0.0
 40
0.0
 40
1.0
 40
1.0
 40
1.0
 40
2.0
 40
2.0
 40
2.0
 40
3.0
 40
3.0
 40
3.0
 40
4.0
 40
4.0
 40
4.0
 40
5.0
 40
5.0
 40
5.0
 40
6.0
 40
6.0
 40
6.0
 40
7.0
 40
7.0
 40
7.0
 40
8.0
 40
8.0
 40
8.0
 40
9.0
 40
9.0
 40
9.0
 40
10.0
 40
10.0
 40
10.0
 40
11.0
 40
11.0
 40
11.0
 40
12.0
 40
12.0
 40
12.0
 40
13.0
 40
13.0
 40
13.0
 40
14.0
 40
14.0
 40
14.0
 40
15.0
 40
15.0
 40
15.0
 40
16.0
 40
16.0
 40
16.0
 40
17.0
 40
17.0
 40
17.0
 40
18.0
 40
18.0
 40
18.0
 40
19.0
 40
19.0
 40
19.0
 40
20.0
 40
20.0
 40
20.0
 40
21.0
 40
21.0
 40
21.0
 40
22.0
 40
22.0
 40
22.0
 40
23.0
 40
23.0
 40
23.0
 40
24.0
 40
24.0
 40
24.0
 40
25.0
 40
25.0
 40
25.0
 40
26.0
 40
26.0
 40
26.0
 40
27.0
 40
27.0
 40
27.0
 40
28.0
 40
28.0
 40
28.0
 40
29.0
 40
29.0
 40
29.0
 40
30.0
 40
30.0
 40
30.0
 40
31.0
 40
31.0
 40
31.0
 40
32.0
 40
32.0
 40
32.0
 40
33.0
 40
33.0
 40
33.0
 40
33.0
 10
11.75193145184294
 20
-2.428123260231596
 30
0.0
 10
11.64193048355338
 20
-2.465479212159787
 30
0.0
 10
11.5143001807489
 20
-2.48414199042126
 30
0.0
 10
11.36904054342981
 20
-2.48414199042126
 30
0.0
 10
11.19682018246554
 20
-2.48414199042126
 30
0.0
 10
11.04171243414244
 20
-2.45405054012927
 30
0.0
 10
10.90371729845987
 20
-2.393867639545289
 30
0.0
 10
10.76572216277698
 20
-2.33371513436559
 30
0.0
 10
10.64847189055289
 20
-2.252255450746762
 30
0.0
 10
10.55198167949053
 20
-2.149549379497368
 30
0.0
 10
10.45549146842816
 20
-2.046812912844013
 30
0.0
 10
10.38077956457146
 20
-1.928027672700955
 30
0.0
 10
10.32786116562368
 20
-1.793132868260913
 30
0.0
 10
10.2749579643782
 20
-1.65823806382023
 30
0.0
 10
10.24849876490415
 20
-1.515075709400761
 30
0.0
 10
10.24849876490415
 20
-1.36358501419298
 30
0.0
 10
10.24849876490415
 20
-1.199662598612418
 30
0.0
 10
10.27857501749384
 20
-1.047138459657449
 30
0.0
 10
10.33875791807782
 20
-0.9060125973280734
 30
0.0
 10
10.3989408186618
 20
-0.7649171304036216
 30
0.0
 10
10.48090202645208
 20
-0.6430011636140766
 30
0.0
 10
10.58465673915129
 20
-0.5402950923646826
 30
0.0
 10
10.68841145184985
 20
-0.4375586257113278
 30
0.0
 10
10.80979549906334
 20
-0.35716278124429
 30
0.0
 10
10.94882407849341
 20
-0.2990467681550059
 30
0.0
 10
11.08788305332777
 20
-0.2409307550657216
 30
0.0
 10
11.23624302188875
 20
-0.211903143925201
 30
0.0
 10
11.39396477498522
 20
-0.211903143925201
 30
0.0
 10
11.4499835051752
 20
-0.211903143925201
 30
0.0
 10
11.50651895723894
 20
-0.2155201970411604
 30
0.0
 10
11.56360152658072
 20
-0.222784698677361
 30
0.0
 10
11.62065370051821
 20
-0.2300492003132408
 30
0.0
 10
11.67515266049186
 20
-0.2409307550657216
 30
0.0
 10
11.72700722028817
 20
-0.255459758337802
 30
0.0
 10
11.77889217548844
 20
-0.2699887616098824
 30
0.0
 10
11.82661296029472
 20
-0.2865846523776219
 30
0.0
 10
11.87019997011224
 20
-0.3052778260436979
 30
0.0
 10
11.91378697992912
 20
-0.3239406043054919
 30
0.0
 10
11.95114293185699
 20
-0.3447006654665852
 30
0.0
 10
11.98226782589649
 20
-0.3675276141223749
 30
0.0
 10
11.9718725976138
 20
-0.3841235048894726
 30
0.0
 10
11.96357465223042
 20
-0.397619064414686
 30
0.0
 10
11.95734359434172
 20
-0.4079838972927709
 30
0.0
 10
11.95114293185699
 20
-0.4183791255757793
 30
0.0
 10
11.9449118739683
 20
-0.4292606803276185
 30
0.0
 10
11.93868081607929
 20
-0.4406893523578146
 30
0.0
 10
11.9324497581906
 20
-0.4520876289834082
 30
0.0
 10
11.92518525655472
 20
-0.4650664666345465
 30
0.0
 10
11.91688731117133
 20
-0.4795954699069477
 30
0.0
 10
11.90858936578762
 20
-0.494124473179349
 30
0.0
 10
11.89822453290921
 20
-0.512787251441464
 30
0.0
 10
11.88576241713151
 20
-0.5356142000972536
 30
0.0
 10
11.81934845865884
 20
-0.494124473179349
 30
0.0
 10
11.742052945434
 20
-0.4629691837355682
 30
0.0
 10
11.65387587745733
 20
-0.4422395179790776
 30
0.0
 10
11.56566841407574
 20
-0.4214794568176635
 30
0.0
 10
11.48110839921502
 20
-0.4111146239395786
 30
0.0
 10
11.40016543746963
 20
-0.4111146239395786
 30
0.0
 10
11.26943480342294
 20
-0.4111146239395786
 30
0.0
 10
11.14700211476028
 20
-0.4360084600897439
 30
0.0
 10
11.03286737148069
 20
-0.4857961323916787
 30
0.0
 10
10.91876302360571
 20
-0.5356142000972536
 30
0.0
 10
10.81967400547227
 20
-0.6035783241911892
 30
0.0
 10
10.73563071248531
 20
-0.6896885046731646
 30
0.0
 10
10.65158741949771
 20
-0.7757986851554608
 30
0.0
 10
10.58517346102472
 20
-0.8754044251626496
 30
0.0
 10
10.53641923247126
 20
-0.9885057246944102
 30
0.0
 10
10.48764980621485
 20
-1.101607024226492
 30
0.0
 10
10.46327269193812
 20
-1.221425708116096
 30
0.0
 10
10.46327269193812
 20
-1.34802256717307
 30
0.0
 10
10.46327269193812
 20
-1.468388368341673
 30
0.0
 10
10.4850509991441
 20
-1.584073277242205
 30
0.0
 10
10.52863800896098
 20
-1.695077293874667
 30
0.0
 10
10.57220982107588
 20
-1.806111705912052
 30
0.0
 10
10.63445960915488
 20
-1.903620163019621
 30
0.0
 10
10.71538737319733
 20
-1.987663456007541
 30
0.0
 10
10.79633033494273
 20
-2.071706748994499
 30
0.0
 10
10.89280534830343
 20
-2.139154151214681
 30
0.0
 10
11.004873204088
 20
-2.190005662668085
 30
0.0
 10
11.11691066446797
 20
-2.240826778716566
 30
0.0
 10
11.24144063603025
 20
-2.26626773214573
 30
0.0
 10
11.37840232796531
 20
-2.26626773214573
 30
0.0
 10
11.43855483314501
 20
-2.26626773214573
 30
0.0
 10
11.49667084623461
 20
-2.261586839877659
 30
0.0
 10
11.5526895764246
 20
-2.252255450746762
 30
0.0
 10
11.60873870201919
 20
-2.242924061615544
 30
0.0
 10
11.66062365721946
 20
-2.23046194583816
 30
0.0
 10
11.70834444202637
 20
-2.214899498818571
 30
0.0
 10
11.75606522683265
 20
-2.199337051799303
 30
0.0
 10
11.79810207102859
 20
-2.183257882905639
 30
0.0
 10
11.83439418380499
 20
-2.16666199213822
 30
0.0
 10
11.87071669198567
 20
-2.150066101371122
 30
0.0
 10
11.8992579766564
 20
-2.133439815200064
 30
0.0
 10
11.91998764241321
 20
-2.116843924432645
 30
0.0
 10
11.91998764241321
 20
-2.116843924432645
 30
0.0
 10
12.01649305117852
 20
-2.309824346558331
 30
0.0
 10
12.01649305117852
 20
-2.309824346558331
 30
0.0
 10
11.95007909270552
 20
-2.351344468880518
 30
0.0
 10
11.86190202472853
 20
-2.390767308303084
 30
0.0
 10
11.75193145184294
 20
-2.428123260231596
 30
0.0
  0
HATCH
  5
48
330
41
100
AcDbEntity
  8
Layer 1
 62
   250
420
  2301728
100
AcDbHatch
 10
0.0
 20
0.0
 30
0.0
210
0.0
220
0.0
230
1.0
  2
SOLID
 70
     1
 71
     0
 91
        1
 92
        1
 93
        1
 72
     4
 94
        3
 73
     0
 74
     1
 95
      104
 96
      100
 40
0.0
 40
0.0
 40
0.0
 40
0.0
 40
1.0
 40
1.0
 40
1.0
 40
2.0
 40
2.0
 40
2.0
 40
3.0
 40
3.0
 40
3.0
 40
4.0
 40
4.0
 40
4.0
 40
5.0
 40
5.0
 40
5.0
 40
6.0
 40
6.0
 40
6.0
 40
7.0
 40
7.0
 40
7.0
 40
8.0
 40
8.0
 40
8.0
 40
9.0
 40
9.0
 40
9.0
 40
10.0
 40
10.0
 40
10.0
 40
11.0
 40
11.0
 40
11.0
 40
12.0
 40
12.0
 40
12.0
 40
13.0
 40
13.0
 40
13.0
 40
14.0
 40
14.0
 40
14.0
 40
15.0
 40
15.0
 40
15.0
 40
16.0
 40
16.0
 40
16.0
 40
17.0
 40
17.0
 40
17.0
 40
18.0
 40
18.0
 40
18.0
 40
19.0
 40
19.0
 40
19.0
 40
20.0
 40
20.0
 40
20.0
 40
21.0
 40
21.0
 40
21.0
 40
22.0
 40
22.0
 40
22.0
 40
23.0
 40
23.0
 40
23.0
 40
24.0
 40
24.0
 40
24.0
 40
25.0
 40
25.0
 40
25.0
 40
26.0
 40
26.0
 40
26.0
 40
27.0
 40
27.0
 40
27.0
 40
28.0
 40
28.0
 40
28.0
 40
29.0
 40
29.0
 40
29.0
 40
30.0
 40
30.0
 40
30.0
 40
31.0
 40
31.0
 40
31.0
 40
32.0
 40
32.0
 40
32.0
 40
33.0
 40
33.0
 40
33.0
 40
33.0
 10
11.75193145184294
 20
-2.428123260231596
 10
11.64193048355338
 20
-2.465479212159787
 10
11.5143001807489
 20
-2.48414199042126
 10
11.36904054342981
 20
-2.48414199042126
 10
11.19682018246554
 20
-2.48414199042126
 10
11.04171243414244
 20
-2.45405054012927
 10
10.90371729845987
 20
-2.393867639545289
 10
10.76572216277698
 20
-2.33371513436559
 10
10.64847189055289
 20
-2.252255450746762
 10
10.55198167949053
 20
-2.149549379497368
 10
10.45549146842816
 20
-2.046812912844013
 10
10.38077956457146
 20
-1.928027672700955
 10
10.32786116562368
 20
-1.793132868260913
 10
10.2749579643782
 20
-1.65823806382023
 10
10.24849876490415
 20
-1.515075709400761
 10
10.24849876490415
 20
-1.36358501419298
 10
10.24849876490415
 20
-1.199662598612418
 10
10.27857501749384
 20
-1.047138459657449
 10
10.33875791807782
 20
-0.9060125973280734
 10
10.3989408186618
 20
-0.7649171304036216
 10
10.48090202645208
 20
-0.6430011636140766
 10
10.58465673915129
 20
-0.5402950923646826
 10
10.68841145184985
 20
-0.4375586257113278
 10
10.80979549906334
 20
-0.35716278124429
 10
10.94882407849341
 20
-0.2990467681550059
 10
11.08788305332777
 20
-0.2409307550657216
 10
11.23624302188875
 20
-0.211903143925201
 10
11.39396477498522
 20
-0.211903143925201
 10
11.4499835051752
 20
-0.211903143925201
 10
11.50651895723894
 20
-0.2155201970411604
 10
11.56360152658072
 20
-0.222784698677361
 10
11.62065370051821
 20
-0.2300492003132408
 10
11.67515266049186
 20
-0.2409307550657216
 10
11.72700722028817
 20
-0.255459758337802
 10
11.77889217548844
 20
-0.2699887616098824
 10
11.82661296029472
 20
-0.2865846523776219
 10
11.87019997011224
 20
-0.3052778260436979
 10
11.91378697992912
 20
-0.3239406043054919
 10
11.95114293185699
 20
-0.3447006654665852
 10
11.98226782589649
 20
-0.3675276141223749
 10
11.9718725976138
 20
-0.3841235048894726
 10
11.96357465223042
 20
-0.397619064414686
 10
11.95734359434172
 20
-0.4079838972927709
 10
11.95114293185699
 20
-0.4183791255757793
 10
11.9449118739683
 20
-0.4292606803276185
 10
11.93868081607929
 20
-0.4406893523578146
 10
11.9324497581906
 20
-0.4520876289834082
 10
11.92518525655472
 20
-0.4650664666345465
 10
11.91688731117133
 20
-0.4795954699069477
 10
11.90858936578762
 20
-0.494124473179349
 10
11.89822453290921
 20
-0.512787251441464
 10
11.88576241713151
 20
-0.5356142000972536
 10
11.81934845865884
 20
-0.494124473179349
 10
11.742052945434
 20
-0.4629691837355682
 10
11.65387587745733
 20
-0.4422395179790776
 10
11.56566841407574
 20
-0.4214794568176635
 10
11.48110839921502
 20
-0.4111146239395786
 10
11.40016543746963
 20
-0.4111146239395786
 10
11.26943480342294
 20
-0.4111146239395786
 10
11.14700211476028
 20
-0.4360084600897439
 10
11.03286737148069
 20
-0.4857961323916787
 10
10.91876302360571
 20
-0.5356142000972536
 10
10.81967400547227
 20
-0.6035783241911892
 10
10.73563071248531
 20
-0.6896885046731646
 10
10.65158741949771
 20
-0.7757986851554608
 10
10.58517346102472
 20
-0.8754044251626496
 10
10.53641923247126
 20
-0.9885057246944102
 10
10.48764980621485
 20
-1.101607024226492
 10
10.46327269193812
 20
-1.221425708116096
 10
10.46327269193812
 20
-1.34802256717307
 10
10.46327269193812
 20
-1.468388368341673
 10
10.4850509991441
 20
-1.584073277242205
 10
10.52863800896098
 20
-1.695077293874667
 10
10.57220982107588
 20
-1.806111705912052
 10
10.63445960915488
 20
-1.903620163019621
 10
10.71538737319733
 20
-1.987663456007541
 10
10.79633033494273
 20
-2.071706748994499
 10
10.89280534830343
 20
-2.139154151214681
 10
11.004873204088
 20
-2.190005662668085
 10
11.11691066446797
 20
-2.240826778716566
 10
11.24144063603025
 20
-2.26626773214573
 10
11.37840232796531
 20
-2.26626773214573
 10
11.43855483314501
 20
-2.26626773214573
 10
11.49667084623461
 20
-2.261586839877659
 10
11.5526895764246
 20
-2.252255450746762
 10
11.60873870201919
 20
-2.242924061615544
 10
11.66062365721946
 20
-2.23046194583816
 10
11.70834444202637
 20
-2.214899498818571
 10
11.75606522683265
 20
-2.199337051799303
 10
11.79810207102859
 20
-2.183257882905639
 10
11.83439418380499
 20
-2.16666199213822
 10
11.87071669198567
 20
-2.150066101371122
 10
11.8992579766564
 20
-2.133439815200064
 10
11.91998764241321
 20
-2.116843924432645
 10
11.91998764241321
 20
-2.116843924432645
 10
12.01649305117852
 20
-2.309824346558331
 10
12.01649305117852
 20
-2.309824346558331
 10
11.95007909270552
 20
-2.351344468880518
 10
11.86190202472853
 20
-2.390767308303084
 10
11.75193145184294
 20
-2.428123260231596
 97
        0
 97
        0
 75
     2
 76
     1
 98
        0
  0
SPLINE
  5
49
330
41
100
AcDbEntity
  8
Layer 1
370
     0
100
AcDbSpline
210
0.0
220
0.0
230
1.0
 70
    11
 71
     3
 72
    74
 73
    70
 74
     0
 42
0.0000000001
 43
0.0000000001
 12
1.0
 22
0.0
 32
0.0
 13
1.0
 23
0.0
 33
0.0
 40
0.0
 40
0.0
 40
0.0
 40
0.0
 40
1.0
 40
1.0
 40
1.0
 40
2.0
 40
2.0
 40
2.0
 40
3.0
 40
3.0
 40
3.0
 40
4.0
 40
4.0
 40
4.0
 40
5.0
 40
5.0
 40
5.0
 40
6.0
 40
6.0
 40
6.0
 40
7.0
 40
7.0
 40
7.0
 40
8.0
 40
8.0
 40
8.0
 40
9.0
 40
9.0
 40
9.0
 40
10.0
 40
10.0
 40
10.0
 40
11.0
 40
11.0
 40
11.0
 40
12.0
 40
12.0
 40
12.0
 40
13.0
 40
13.0
 40
13.0
 40
14.0
 40
14.0
 40
14.0
 40
15.0
 40
15.0
 40
15.0
 40
16.0
 40
16.0
 40
16.0
 40
17.0
 40
17.0
 40
17.0
 40
18.0
 40
18.0
 40
18.0
 40
19.0
 40
19.0
 40
19.0
 40
20.0
 40
20.0
 40
20.0
 40
21.0
 40
21.0
 40
21.0
 40
22.0
 40
22.0
 40
22.0
 40
23.0
 40
23.0
 40
23.0
 40
23.0
 10
2.732019226806087
 20
-1.755775700516461
 30
0.0
 10
2.671836326222106
 20
-1.608449175702676
 30
0.0
 10
2.609069816269675
 20
-1.455408314874274
 30
0.0
 10
2.543704499246491
 20
-1.296653118030292
 30
0.0
 10
2.478339182223308
 20
-1.137928316590913
 30
0.0
 10
2.415572672270556
 20
-0.9848874557625106
 30
0.0
 10
2.355389771686254
 20
-0.8375305355447641
 30
0.0
 10
2.295206871102594
 20
-0.6902040107309786
 30
0.0
 10
2.239172943210308
 20
-0.5553396016948979
 30
0.0
 10
2.187303185711696
 20
-0.4329069130315986
 30
0.0
 10
2.15607190775705
 20
-0.3592132552207448
 30
0.0
 10
2.128683748738172
 20
-0.2939543221127083
 30
0.0
 10
2.104975333356603
 20
-0.2367957642597468
 30
0.0
 10
2.104975333356603
 20
-0.2367957642597468
 30
0.0
 10
2.018889849140547
 20
-0.2367957642597468
 30
0.0
 10
2.018889849140547
 20
-0.2367957642597468
 30
0.0
 10
1.994679909587205
 20
-0.2939543221127083
 30
0.0
 10
1.967337343674909
 20
-0.3592132552207448
 30
0.0
 10
1.936738670073103
 20
-0.4329069130315986
 30
0.0
 10
1.885887158619699
 20
-0.5553396016948979
 30
0.0
 10
1.830385150303468
 20
-0.6902040107309786
 30
0.0
 10
1.770202249719487
 20
-0.8375305355447641
 30
0.0
 10
1.710019349135506
 20
-0.9848874557625106
 30
0.0
 10
1.647769561056829
 20
-1.137928316590913
 30
0.0
 10
1.583437687780834
 20
-1.296653118030292
 30
0.0
 10
1.51912101220746
 20
-1.455408314874274
 30
0.0
 10
1.45685602642584
 20
-1.608449175702676
 30
0.0
 10
1.39668832354384
 20
-1.755775700516461
 30
0.0
 10
1.336505422959859
 20
-1.903102225330247
 30
0.0
 10
1.280471495067894
 20
-2.038513751644364
 30
0.0
 10
1.228601737569282
 20
-2.16197988405453
 30
0.0
 10
1.17671678236869
 20
-2.285446016465017
 30
0.0
 10
1.135211857748805
 20
-2.384535034598452
 30
0.0
 10
1.104086963709627
 20
-2.459246938454834
 30
0.0
 10
1.104086963709627
 20
-2.459246938454834
 30
0.0
 10
1.315745361799087
 20
-2.459246938454834
 30
0.0
 10
1.315745361799087
 20
-2.459246938454834
 30
0.0
 10
1.357250286418972
 20
-2.36380536884164
 30
0.0
 10
1.406019712675058
 20
-2.246539898915243
 30
0.0
 10
1.462053640567345
 20
-2.107511319485487
 30
0.0
 10
1.462053640567345
 20
-2.107511319485487
 30
0.0
 10
2.031663517812542
 20
-0.6788057341047434
 30
0.0
 10
2.031663517812542
 20
-0.6788057341047434
 30
0.0
 10
2.035812490504236
 20
-0.6705077887213551
 30
0.0
 10
2.041010104645741
 20
-0.6564955073227081
 30
0.0
 10
2.047225964832131
 20
-0.6367688899094444
 30
0.0
 10
2.053457022720823
 20
-0.6170726678998207
 30
0.0
 10
2.058639439160347
 20
-0.5988962161071782
 30
0.0
 10
2.062788411852041
 20
-0.5823003253400805
 30
0.0
 10
2.066952582245716
 20
-0.5988962161071782
 30
0.0
 10
2.072134998684918
 20
-0.6170726678998207
 30
0.0
 10
2.078350858871951
 20
-0.6367688899094444
 30
0.0
 10
2.084581916760322
 20
-0.6564955073227081
 30
0.0
 10
2.089764333199846
 20
-0.6705077887213551
 30
0.0
 10
2.09392850359352
 20
-0.6788057341047434
 30
0.0
 10
2.09392850359352
 20
-0.6788057341047434
 30
0.0
 10
2.663538380838397
 20
-2.107511319485487
 30
0.0
 10
2.663538380838397
 20
-2.107511319485487
 30
0.0
 10
2.719572308731004
 20
-2.246539898915243
 30
0.0
 10
2.76834173498709
 20
-2.36380536884164
 30
0.0
 10
2.809831461904995
 20
-2.459246938454834
 30
0.0
 10
2.809831461904995
 20
-2.459246938454834
 30
0.0
 10
3.024620586640942
 20
-2.459246938454834
 30
0.0
 10
3.024620586640942
 20
-2.459246938454834
 30
0.0
 10
2.991413607404766
 20
-2.384535034598452
 30
0.0
 10
2.949391960911127
 20
-2.285446016465017
 30
0.0
 10
2.898555647159703
 20
-2.16197988405453
 30
0.0
 10
2.84770413570694
 20
-2.038513751644364
 30
0.0
 10
2.792202127390389
 20
-1.903102225330247
 30
0.0
 10
2.732019226806087
 20
-1.755775700516461
 30
0.0
  0
HATCH
  5
4A
330
41
100
AcDbEntity
  8
Layer 1
 62
   250
420
  2301728
100
AcDbHatch
 10
0.0
 20
0.0
 30
0.0
210
0.0
220
0.0
230
1.0
  2
SOLID
 70
     1
 71
     0
 91
        1
 92
        1
 93
        1
 72
     4
 94
        3
 73
     0
 74
     1
 95
       74
 96
       70
 40
0.0
 40
0.0
 40
0.0
 40
0.0
 40
1.0
 40
1.0
 40
1.0
 40
2.0
 40
2.0
 40
2.0
 40
3.0
 40
3.0
 40
3.0
 40
4.0
 40
4.0
 40
4.0
 40
5.0
 40
5.0
 40
5.0
 40
6.0
 40
6.0
 40
6.0
 40
7.0
 40
7.0
 40
7.0
 40
8.0
 40
8.0
 40
8.0
 40
9.0
 40
9.0
 40
9.0
 40
10.0
 40
10.0
 40
10.0
 40
11.0
 40
11.0
 40
11.0
 40
12.0
 40
12.0
 40
12.0
 40
13.0
 40
13.0
 40
13.0
 40
14.0
 40
14.0
 40
14.0
 40
15.0
 40
15.0
 40
15.0
 40
16.0
 40
16.0
 40
16.0
 40
17.0
 40
17.0
 40
17.0
 40
18.0
 40
18.0
 40
18.0
 40
19.0
 40
19.0
 40
19.0
 40
20.0
 40
20.0
 40
20.0
 40
21.0
 40
21.0
 40
21.0
 40
22.0
 40
22.0
 40
22.0
 40
23.0
 40
23.0
 40
23.0
 40
23.0
 10
2.732019226806087
 20
-1.755775700516461
 10
2.671836326222106
 20
-1.608449175702676
 10
2.609069816269675
 20
-1.455408314874274
 10
2.543704499246491
 20
-1.296653118030292
 10
2.478339182223308
 20
-1.137928316590913
 10
2.415572672270556
 20
-0.9848874557625106
 10
2.355389771686254
 20
-0.8375305355447641
 10
2.295206871102594
 20
-0.6902040107309786
 10
2.239172943210308
 20
-0.5553396016948979
 10
2.187303185711696
 20
-0.4329069130315986
 10
2.15607190775705
 20
-0.3592132552207448
 10
2.128683748738172
 20
-0.2939543221127083
 10
2.104975333356603
 20
-0.2367957642597468
 10
2.104975333356603
 20
-0.2367957642597468
 10
2.018889849140547
 20
-0.2367957642597468
 10
2.018889849140547
 20
-0.2367957642597468
 10
1.994679909587205
 20
-0.2939543221127083
 10
1.967337343674909
 20
-0.3592132552207448
 10
1.936738670073103
 20
-0.4329069130315986
 10
1.885887158619699
 20
-0.5553396016948979
 10
1.830385150303468
 20
-0.6902040107309786
 10
1.770202249719487
 20
-0.8375305355447641
 10
1.710019349135506
 20
-0.9848874557625106
 10
1.647769561056829
 20
-1.137928316590913
 10
1.583437687780834
 20
-1.296653118030292
 10
1.51912101220746
 20
-1.455408314874274
 10
1.45685602642584
 20
-1.608449175702676
 10
1.39668832354384
 20
-1.755775700516461
 10
1.336505422959859
 20
-1.903102225330247
 10
1.280471495067894
 20
-2.038513751644364
 10
1.228601737569282
 20
-2.16197988405453
 10
1.17671678236869
 20
-2.285446016465017
 10
1.135211857748805
 20
-2.384535034598452
 10
1.104086963709627
 20
-2.459246938454834
 10
1.104086963709627
 20
-2.459246938454834
 10
1.315745361799087
 20
-2.459246938454834
 10
1.315745361799087
 20
-2.459246938454834
 10
1.357250286418972
 20
-2.36380536884164
 10
1.406019712675058
 20
-2.246539898915243
 10
1.462053640567345
 20
-2.107511319485487
 10
1.462053640567345
 20
-2.107511319485487
 10
2.031663517812542
 20
-0.6788057341047434
 10
2.031663517812542
 20
-0.6788057341047434
 10
2.035812490504236
 20
-0.6705077887213551
 10
2.041010104645741
 20
-0.6564955073227081
 10
2.047225964832131
 20
-0.6367688899094444
 10
2.053457022720823
 20
-0.6170726678998207
 10
2.058639439160347
 20
-0.5988962161071782
 10
2.062788411852041
 20
-0.5823003253400805
 10
2.066952582245716
 20
-0.5988962161071782
 10
2.072134998684918
 20
-0.6170726678998207
 10
2.078350858871951
 20
-0.6367688899094444
 10
2.084581916760322
 20
-0.6564955073227081
 10
2.089764333199846
 20
-0.6705077887213551
 10
2.09392850359352
 20
-0.6788057341047434
 10
2.09392850359352
 20
-0.6788057341047434
 10
2.663538380838397
 20
-2.107511319485487
 10
2.663538380838397
 20
-2.107511319485487
 10
2.719572308731004
 20
-2.246539898915243
 10
2.76834173498709
 20
-2.36380536884164
 10
2.809831461904995
 20
-2.459246938454834
 10
2.809831461904995
 20
-2.459246938454834
 10
3.024620586640942
 20
-2.459246938454834
 10
3.024620586640942
 20
-2.459246938454834
 10
2.991413607404766
 20
-2.384535034598452
 10
2.949391960911127
 20
-2.285446016465017
 10
2.898555647159703
 20
-2.16197988405453
 10
2.84770413570694
 20
-2.038513751644364
 10
2.792202127390389
 20
-1.903102225330247
 10
2.732019226806087
 20
-1.755775700516461
 97
        0
 97
        0
 75
     2
 76
     1
 98
        0
  0
SPLINE
  5
4B
330
41
100
AcDbEntity
  8
Layer 1
370
     0
100
AcDbSpline
210
0.0
220
0.0
230
1.0
 70
    11
 71
     3
 72
    74
 73
    70
 74
     0
 42
0.0000000001
 43
0.0000000001
 12
1.0
 22
0.0
 32
0.0
 13
1.0
 23
0.0
 33
0.0
 40
0.0
 40
0.0
 40
0.0
 40
0.0
 40
1.0
 40
1.0
 40
1.0
 40
2.0
 40
2.0
 40
2.0
 40
3.0
 40
3.0
 40
3.0
 40
4.0
 40
4.0
 40
4.0
 40
5.0
 40
5.0
 40
5.0
 40
6.0
 40
6.0
 40
6.0
 40
7.0
 40
7.0
 40
7.0
 40
8.0
 40
8.0
 40
8.0
 40
9.0
 40
9.0
 40
9.0
 40
10.0
 40
10.0
 40
10.0
 40
11.0
 40
11.0
 40
11.0
 40
12.0
 40
12.0
 40
12.0
 40
13.0
 40
13.0
 40
13.0
 40
14.0
 40
14.0
 40
14.0
 40
15.0
 40
15.0
 40
15.0
 40
16.0
 40
16.0
 40
16.0
 40
17.0
 40
17.0
 40
17.0
 40
18.0
 40
18.0
 40
18.0
 40
19.0
 40
19.0
 40
19.0
 40
20.0
 40
20.0
 40
20.0
 40
21.0
 40
21.0
 40
21.0
 40
22.0
 40
22.0
 40
22.0
 40
23.0
 40
23.0
 40
23.0
 40
23.0
 10
14.11427747449126
 20
-1.755775700516461
 30
0.0
 10
14.05409457390728
 20
-1.608449175702676
 30
0.0
 10
13.99132806395484
 20
-1.455408314874274
 30
0.0
 10
13.92596274693134
 20
-1.296653118030292
 30
0.0
 10
13.86059742990848
 20
-1.137928316590913
 30
0.0
 10
13.79783091995573
 20
-0.9848874557625106
 30
0.0
 10
13.73764801937175
 20
-0.8375305355447641
 30
0.0
 10
13.67746511878776
 20
-0.6902040107309786
 30
0.0
 10
13.62143119089548
 20
-0.5553396016948979
 30
0.0
 10
13.56956143339687
 20
-0.4329069130315986
 30
0.0
 10
13.53833015544222
 20
-0.3592132552207448
 30
0.0
 10
13.51094199642334
 20
-0.2939543221127083
 30
0.0
 10
13.48723358104177
 20
-0.2367957642597468
 30
0.0
 10
13.48723358104177
 20
-0.2367957642597468
 30
0.0
 10
13.40114809682572
 20
-0.2367957642597468
 30
0.0
 10
13.40114809682572
 20
-0.2367957642597468
 30
0.0
 10
13.37693815727237
 20
-0.2939543221127083
 30
0.0
 10
13.34959559136008
 20
-0.3592132552207448
 30
0.0
 10
13.31899691775827
 20
-0.4329069130315986
 30
0.0
 10
13.26814540630487
 20
-0.5553396016948979
 30
0.0
 10
13.21264339798864
 20
-0.6902040107309786
 30
0.0
 10
13.15246049740434
 20
-0.8375305355447641
 30
0.0
 10
13.09227759682036
 20
-0.9848874557625106
 30
0.0
 10
13.03002780874168
 20
-1.137928316590913
 30
0.0
 10
12.96569593546536
 20
-1.296653118030292
 30
0.0
 10
12.90137925989199
 20
-1.455408314874274
 30
0.0
 10
12.83911427411133
 20
-1.608449175702676
 30
0.0
 10
12.77894657122933
 20
-1.755775700516461
 30
0.0
 10
12.71876367064503
 20
-1.903102225330247
 30
0.0
 10
12.66272974275274
 20
-2.038513751644364
 30
0.0
 10
12.61085998525477
 20
-2.16197988405453
 30
0.0
 10
12.55897503005386
 20
-2.285446016465017
 30
0.0
 10
12.51747010543397
 20
-2.384535034598452
 30
0.0
 10
12.4863452113948
 20
-2.459246938454834
 30
0.0
 10
12.4863452113948
 20
-2.459246938454834
 30
0.0
 10
12.69800360948394
 20
-2.459246938454834
 30
0.0
 10
12.69800360948394
 20
-2.459246938454834
 30
0.0
 10
12.73950853410414
 20
-2.36380536884164
 30
0.0
 10
12.78827796035991
 20
-2.246539898915243
 30
0.0
 10
12.84431188825219
 20
-2.107511319485487
 30
0.0
 10
12.84431188825219
 20
-2.107511319485487
 30
0.0
 10
13.41392176549739
 20
-0.6788057341047434
 30
0.0
 10
13.41392176549739
 20
-0.6788057341047434
 30
0.0
 10
13.41807073818909
 20
-0.6705077887213551
 30
0.0
 10
13.42326835233059
 20
-0.6564955073227081
 30
0.0
 10
13.4294842125173
 20
-0.6367688899094444
 30
0.0
 10
13.43571527040599
 20
-0.6170726678998207
 30
0.0
 10
13.4408976868452
 20
-0.5988962161071782
 30
0.0
 10
13.44504665953689
 20
-0.5823003253400805
 30
0.0
 10
13.44921082993089
 20
-0.5988962161071782
 30
0.0
 10
13.45439324637009
 20
-0.6170726678998207
 30
0.0
 10
13.46060910655648
 20
-0.6367688899094444
 30
0.0
 10
13.46684016444549
 20
-0.6564955073227081
 30
0.0
 10
13.47202258088437
 20
-0.6705077887213551
 30
0.0
 10
13.47618675127869
 20
-0.6788057341047434
 30
0.0
 10
13.47618675127869
 20
-0.6788057341047434
 30
0.0
 10
14.04579662852389
 20
-2.107511319485487
 30
0.0
 10
14.04579662852389
 20
-2.107511319485487
 30
0.0
 10
14.10183055641617
 20
-2.246539898915243
 30
0.0
 10
14.15059998267226
 20
-2.36380536884164
 30
0.0
 10
14.19208970958984
 20
-2.459246938454834
 30
0.0
 10
14.19208970958984
 20
-2.459246938454834
 30
0.0
 10
14.40687883432579
 20
-2.459246938454834
 30
0.0
 10
14.40687883432579
 20
-2.459246938454834
 30
0.0
 10
14.37367185508929
 20
-2.384535034598452
 30
0.0
 10
14.33165020859598
 20
-2.285446016465017
 30
0.0
 10
14.28081389484487
 20
-2.16197988405453
 30
0.0
 10
14.22996238339211
 20
-2.038513751644364
 30
0.0
 10
14.17446037507588
 20
-1.903102225330247
 30
0.0
 10
14.11427747449126
 20
-1.755775700516461
 30
0.0
  0
HATCH
  5
4C
330
41
100
AcDbEntity
  8
Layer 1
 62
   250
420
  2301728
100
AcDbHatch
 10
0.0
 20
0.0
 30
0.0
210
0.0
220
0.0
230
1.0
  2
SOLID
 70
     1
 71
     0
 91
        1
 92
        1
 93
        1
 72
     4
 94
        3
 73
     0
 74
     1
 95
       74
 96
       70
 40
0.0
 40
0.0
 40
0.0
 40
0.0
 40
1.0
 40
1.0
 40
1.0
 40
2.0
 40
2.0
 40
2.0
 40
3.0
 40
3.0
 40
3.0
 40
4.0
 40
4.0
 40
4.0
 40
5.0
 40
5.0
 40
5.0
 40
6.0
 40
6.0
 40
6.0
 40
7.0
 40
7.0
 40
7.0
 40
8.0
 40
8.0
 40
8.0
 40
9.0
 40
9.0
 40
9.0
 40
10.0
 40
10.0
 40
10.0
 40
11.0
 40
11.0
 40
11.0
 40
12.0
 40
12.0
 40
12.0
 40
13.0
 40
13.0
 40
13.0
 40
14.0
 40
14.0
 40
14.0
 40
15.0
 40
15.0
 40
15.0
 40
16.0
 40
16.0
 40
16.0
 40
17.0
 40
17.0
 40
17.0
 40
18.0
 40
18.0
 40
18.0
 40
19.0
 40
19.0
 40
19.0
 40
20.0
 40
20.0
 40
20.0
 40
21.0
 40
21.0
 40
21.0
 40
22.0
 40
22.0
 40
22.0
 40
23.0
 40
23.0
 40
23.0
 40
23.0
 10
14.11427747449126
 20
-1.755775700516461
 10
14.05409457390728
 20
-1.608449175702676
 10
13.99132806395484
 20
-1.455408314874274
 10
13.92596274693134
 20
-1.296653118030292
 10
13.86059742990848
 20
-1.137928316590913
 10
13.79783091995573
 20
-0.9848874557625106
 10
13.73764801937175
 20
-0.8375305355447641
 10
13.67746511878776
 20
-0.6902040107309786
 10
13.62143119089548
 20
-0.5553396016948979
 10
13.56956143339687
 20
-0.4329069130315986
 10
13.53833015544222
 20
-0.3592132552207448
 10
13.51094199642334
 20
-0.2939543221127083
 10
13.48723358104177
 20
-0.2367957642597468
 10
13.48723358104177
 20
-0.2367957642597468
 10
13.40114809682572
 20
-0.2367957642597468
 10
13.40114809682572
 20
-0.2367957642597468
 10
13.37693815727237
 20
-0.2939543221127083
 10
13.34959559136008
 20
-0.3592132552207448
 10
13.31899691775827
 20
-0.4329069130315986
 10
13.26814540630487
 20
-0.5553396016948979
 10
13.21264339798864
 20
-0.6902040107309786
 10
13.15246049740434
 20
-0.8375305355447641
 10
13.09227759682036
 20
-0.9848874557625106
 10
13.03002780874168
 20
-1.137928316590913
 10
12.96569593546536
 20
-1.296653118030292
 10
12.90137925989199
 20
-1.455408314874274
 10
12.83911427411133
 20
-1.608449175702676
 10
12.77894657122933
 20
-1.755775700516461
 10
12.71876367064503
 20
-1.903102225330247
 10
12.66272974275274
 20
-2.038513751644364
 10
12.61085998525477
 20
-2.16197988405453
 10
12.55897503005386
 20
-2.285446016465017
 10
12.51747010543397
 20
-2.384535034598452
 10
12.4863452113948
 20
-2.459246938454834
 10
12.4863452113948
 20
-2.459246938454834
 10
12.69800360948394
 20
-2.459246938454834
 10
12.69800360948394
 20
-2.459246938454834
 10
12.73950853410414
 20
-2.36380536884164
 10
12.78827796035991
 20
-2.246539898915243
 10
12.84431188825219
 20
-2.107511319485487
 10
12.84431188825219
 20
-2.107511319485487
 10
13.41392176549739
 20
-0.6788057341047434
 10
13.41392176549739
 20
-0.6788057341047434
 10
13.41807073818909
 20
-0.6705077887213551
 10
13.42326835233059
 20
-0.6564955073227081
 10
13.4294842125173
 20
-0.6367688899094444
 10
13.43571527040599
 20
-0.6170726678998207
 10
13.4408976868452
 20
-0.5988962161071782
 10
13.44504665953689
 20
-0.5823003253400805
 10
13.44921082993089
 20
-0.5988962161071782
 10
13.45439324637009
 20
-0.6170726678998207
 10
13.46060910655648
 20
-0.6367688899094444
 10
13.46684016444549
 20
-0.6564955073227081
 10
13.47202258088437
 20
-0.6705077887213551
 10
13.47618675127869
 20
-0.6788057341047434
 10
13.47618675127869
 20
-0.6788057341047434
 10
14.04579662852389
 20
-2.107511319485487
 10
14.04579662852389
 20
-2.107511319485487
 10
14.10183055641617
 20
-2.246539898915243
 10
14.15059998267226
 20
-2.36380536884164
 10
14.19208970958984
 20
-2.459246938454834
 10
14.19208970958984
 20
-2.459246938454834
 10
14.40687883432579
 20
-2.459246938454834
 10
14.40687883432579
 20
-2.459246938454834
 10
14.37367185508929
 20
-2.384535034598452
 10
14.33165020859598
 20
-2.285446016465017
 10
14.28081389484487
 20
-2.16197988405453
 10
14.22996238339211
 20
-2.038513751644364
 10
14.17446037507588
 20
-1.903102225330247
 10
14.11427747449126
 20
-1.755775700516461
 97
        0
 97
        0
 75
     2
 76
     1
 98
        0
  0
SPLINE
  5
4D
330
41
100
AcDbEntity
  8
Layer 1
370
     0
100
AcDbSpline
210
0.0
220
0.0
230
1.0
 70
    11
 71
     3
 72
    92
 73
    88
 74
     0
 42
0.0000000001
 43
0.0000000001
 12
1.0
 22
0.0
 32
0.0
 13
1.0
 23
0.0
 33
0.0
 40
0.0
 40
0.0
 40
0.0
 40
0.0
 40
1.0
 40
1.0
 40
1.0
 40
2.0
 40
2.0
 40
2.0
 40
3.0
 40
3.0
 40
3.0
 40
4.0
 40
4.0
 40
4.0
 40
5.0
 40
5.0
 40
5.0
 40
6.0
 40
6.0
 40
6.0
 40
7.0
 40
7.0
 40
7.0
 40
8.0
 40
8.0
 40
8.0
 40
9.0
 40
9.0
 40
9.0
 40
10.0
 40
10.0
 40
10.0
 40
11.0
 40
11.0
 40
11.0
 40
12.0
 40
12.0
 40
12.0
 40
13.0
 40
13.0
 40
13.0
 40
14.0
 40
14.0
 40
14.0
 40
15.0
 40
15.0
 40
15.0
 40
16.0
 40
16.0
 40
16.0
 40
17.0
 40
17.0
 40
17.0
 40
18.0
 40
18.0
 40
18.0
 40
19.0
 40
19.0
 40
19.0
 40
20.0
 40
20.0
 40
20.0
 40
21.0
 40
21.0
 40
21.0
 40
22.0
 40
22.0
 40
22.0
 40
23.0
 40
23.0
 40
23.0
 40
24.0
 40
24.0
 40
24.0
 40
25.0
 40
25.0
 40
25.0
 40
26.0
 40
26.0
 40
26.0
 40
27.0
 40
27.0
 40
27.0
 40
28.0
 40
28.0
 40
28.0
 40
29.0
 40
29.0
 40
29.0
 40
29.0
 10
3.345064136847079
 20
-0.9402670021977982
 30
0.0
 10
3.405247037430739
 20
-1.087593527011584
 30
0.0
 10
3.467496825509737
 20
-1.240634387840307
 30
0.0
 10
3.531828698785411
 20
-1.399389584683968
 30
0.0
 10
3.596160572061086
 20
-1.558114386123347
 30
0.0
 10
3.658410360140405
 20
-1.710638525078316
 30
0.0
 10
3.718593260724385
 20
-1.856931606144592
 30
0.0
 10
3.778776161308366
 20
-2.003224687210869
 30
0.0
 10
3.834794891498672
 20
-2.138119491651232
 30
0.0
 10
3.886679846699264
 20
-2.261585624061719
 30
0.0
 10
3.917945319483446
 20
-2.336008771576942
 30
0.0
 10
3.945375272183654
 20
-2.401784426558732
 30
0.0
 10
3.969104584405566
 20
-2.459246938454834
 30
0.0
 10
3.969104584405566
 20
-2.459246938454834
 30
0.0
 10
4.053254261307992
 20
-2.459246938454834
 30
0.0
 10
4.053254261307992
 20
-2.459246938454834
 30
0.0
 10
4.076985473242691
 20
-2.401784426558732
 30
0.0
 10
4.104419225368474
 20
-2.336008771576942
 30
0.0
 10
4.135694196716595
 20
-2.261585624061719
 30
0.0
 10
4.187563954214886
 20
-2.138119491651232
 30
0.0
 10
4.243597882107172
 20
-2.003224687210869
 30
0.0
 10
4.303780782691152
 20
-1.856931606144592
 30
0.0
 10
4.363948485573153
 20
-1.710638525078316
 30
0.0
 10
4.426730193227885
 20
-1.558114386123347
 30
0.0
 10
4.492095510251069
 20
-1.399389584683968
 30
0.0
 10
4.557460827274573
 20
-1.240634387840307
 30
0.0
 10
4.620227337227325
 20
-1.087593527011584
 30
0.0
 10
4.680410237811306
 20
-0.9402670021977982
 30
0.0
 10
4.740593138394645
 20
-0.7929404773843336
 30
0.0
 10
4.796095146711518
 20
-0.6580456729439711
 30
0.0
 10
4.8469314604623
 20
-0.5356129842809925
 30
0.0
 10
4.897782971915704
 20
-0.413180295618014
 30
0.0
 10
4.939804618409344
 20
-0.3135745556108251
 30
0.0
 10
4.972996399943218
 20
-0.2367957642597468
 30
0.0
 10
4.972996399943218
 20
-0.2367957642597468
 30
0.0
 10
4.758222472909572
 20
-0.2367957642597468
 30
0.0
 10
4.758222472909572
 20
-0.2367957642597468
 30
0.0
 10
4.729179664067392
 20
-0.307343497722454
 30
0.0
 10
4.695455962957141
 20
-0.3903533469622243
 30
0.0
 10
4.657066567281441
 20
-0.4857949165754176
 30
0.0
 10
4.618677171605742
 20
-0.5812668815928927
 30
0.0
 10
4.577688968859611
 20
-0.682939509094778
 30
0.0
 10
4.534117156744708
 20
-0.7908431944856761
 30
0.0
 10
4.490530146927825
 20
-0.8987468798759325
 30
0.0
 10
4.445924891065414
 20
-1.010298013787072
 30
0.0
 10
4.400270993754156
 20
-1.125466200813529
 30
0.0
 10
4.354617096441935
 20
-1.240634387840307
 30
0.0
 10
4.309996642877864
 20
-1.352185521751125
 30
0.0
 10
4.266424830763283
 20
-1.460089207141703
 30
0.0
 10
4.222837820946078
 20
-1.56799289253228
 30
0.0
 10
4.181864815901928
 20
-1.669665520034165
 30
0.0
 10
4.143475420226229
 20
-1.765107089647358
 30
0.0
 10
4.10508602455085
 20
-1.860579054664834
 30
0.0
 10
4.071362323440599
 20
-1.943588903904604
 30
0.0
 10
4.042304316896439
 20
-2.014136637367311
 30
0.0
 10
4.042304316896439
 20
-2.014136637367311
 30
0.0
 10
4.011179422856618
 20
-2.113742377374179
 30
0.0
 10
4.011179422856618
 20
-2.113742377374179
 30
0.0
 10
4.011179422856618
 20
-2.113742377374179
 30
0.0
 10
3.980054528817119
 20
-2.014136637367311
 30
0.0
 10
3.980054528817119
 20
-2.014136637367311
 30
0.0
 10
3.951011719974939
 20
-1.943588903904604
 30
0.0
 10
3.917288018864688
 20
-1.860579054664834
 30
0.0
 10
3.878898623188988
 20
-1.765107089647358
 30
0.0
 10
3.84050922751361
 20
-1.669665520034165
 30
0.0
 10
3.799521024767479
 20
-1.56799289253228
 30
0.0
 10
3.755949212652256
 20
-1.460089207141703
 30
0.0
 10
3.712362202835373
 20
-1.352185521751125
 30
0.0
 10
3.667756946973283
 20
-1.240634387840307
 30
0.0
 10
3.622103049661382
 20
-1.125466200813529
 30
0.0
 10
3.576449152349482
 20
-1.010298013787072
 30
0.0
 10
3.531828698785411
 20
-0.8987468798759325
 30
0.0
 10
3.48825688667083
 20
-0.7908431944856761
 30
0.0
 10
3.444669876853626
 20
-0.682939509094778
 30
0.0
 10
3.403696871809155
 20
-0.5812668815928927
 30
0.0
 10
3.365307476134097
 20
-0.4857949165754176
 30
0.0
 10
3.326918080458397
 20
-0.3903533469622243
 30
0.0
 10
3.293194379348146
 20
-0.307343497722454
 30
0.0
 10
3.264136372803665
 20
-0.2367957642597468
 30
0.0
 10
3.264136372803665
 20
-0.2367957642597468
 30
0.0
 10
3.052477974714204
 20
-0.2367957642597468
 30
0.0
 10
3.052477974714204
 20
-0.2367957642597468
 30
0.0
 10
3.083602868754024
 20
-0.3135745556108251
 30
0.0
 10
3.125107793373588
 20
-0.413180295618014
 30
0.0
 10
3.176992748574501
 20
-0.5356129842809925
 30
0.0
 10
3.228862506072471
 20
-0.6580456729439711
 30
0.0
 10
3.284896433964758
 20
-0.7929404773843336
 30
0.0
 10
3.345064136847079
 20
-0.9402670021977982
 30
0.0
  0
HATCH
  5
4E
330
41
100
AcDbEntity
  8
Layer 1
 62
   250
420
  2301728
100
AcDbHatch
 10
0.0
 20
0.0
 30
0.0
210
0.0
220
0.0
230
1.0
  2
SOLID
 70
     1
 71
     0
 91
        1
 92
        1
 93
        1
 72
     4
 94
        3
 73
     0
 74
     1
 95
       92
 96
       88
 40
0.0
 40
0.0
 40
0.0
 40
0.0
 40
1.0
 40
1.0
 40
1.0
 40
2.0
 40
2.0
 40
2.0
 40
3.0
 40
3.0
 40
3.0
 40
4.0
 40
4.0
 40
4.0
 40
5.0
 40
5.0
 40
5.0
 40
6.0
 40
6.0
 40
6.0
 40
7.0
 40
7.0
 40
7.0
 40
8.0
 40
8.0
 40
8.0
 40
9.0
 40
9.0
 40
9.0
 40
10.0
 40
10.0
 40
10.0
 40
11.0
 40
11.0
 40
11.0
 40
12.0
 40
12.0
 40
12.0
 40
13.0
 40
13.0
 40
13.0
 40
14.0
 40
14.0
 40
14.0
 40
15.0
 40
15.0
 40
15.0
 40
16.0
 40
16.0
 40
16.0
 40
17.0
 40
17.0
 40
17.0
 40
18.0
 40
18.0
 40
18.0
 40
19.0
 40
19.0
 40
19.0
 40
20.0
 40
20.0
 40
20.0
 40
21.0
 40
21.0
 40
21.0
 40
22.0
 40
22.0
 40
22.0
 40
23.0
 40
23.0
 40
23.0
 40
24.0
 40
24.0
 40
24.0
 40
25.0
 40
25.0
 40
25.0
 40
26.0
 40
26.0
 40
26.0
 40
27.0
 40
27.0
 40
27.0
 40
28.0
 40
28.0
 40
28.0
 40
29.0
 40
29.0
 40
29.0
 40
29.0
 10
3.345064136847079
 20
-0.9402670021977982
 10
3.405247037430739
 20
-1.087593527011584
 10
3.467496825509737
 20
-1.240634387840307
 10
3.531828698785411
 20
-1.399389584683968
 10
3.596160572061086
 20
-1.558114386123347
 10
3.658410360140405
 20
-1.710638525078316
 10
3.718593260724385
 20
-1.856931606144592
 10
3.778776161308366
 20
-2.003224687210869
 10
3.834794891498672
 20
-2.138119491651232
 10
3.886679846699264
 20
-2.261585624061719
 10
3.917945319483446
 20
-2.336008771576942
 10
3.945375272183654
 20
-2.401784426558732
 10
3.969104584405566
 20
-2.459246938454834
 10
3.969104584405566
 20
-2.459246938454834
 10
4.053254261307992
 20
-2.459246938454834
 10
4.053254261307992
 20
-2.459246938454834
 10
4.076985473242691
 20
-2.401784426558732
 10
4.104419225368474
 20
-2.336008771576942
 10
4.135694196716595
 20
-2.261585624061719
 10
4.187563954214886
 20
-2.138119491651232
 10
4.243597882107172
 20
-2.003224687210869
 10
4.303780782691152
 20
-1.856931606144592
 10
4.363948485573153
 20
-1.710638525078316
 10
4.426730193227885
 20
-1.558114386123347
 10
4.492095510251069
 20
-1.399389584683968
 10
4.557460827274573
 20
-1.240634387840307
 10
4.620227337227325
 20
-1.087593527011584
 10
4.680410237811306
 20
-0.9402670021977982
 10
4.740593138394645
 20
-0.7929404773843336
 10
4.796095146711518
 20
-0.6580456729439711
 10
4.8469314604623
 20
-0.5356129842809925
 10
4.897782971915704
 20
-0.413180295618014
 10
4.939804618409344
 20
-0.3135745556108251
 10
4.972996399943218
 20
-0.2367957642597468
 10
4.972996399943218
 20
-0.2367957642597468
 10
4.758222472909572
 20
-0.2367957642597468
 10
4.758222472909572
 20
-0.2367957642597468
 10
4.729179664067392
 20
-0.307343497722454
 10
4.695455962957141
 20
-0.3903533469622243
 10
4.657066567281441
 20
-0.4857949165754176
 10
4.618677171605742
 20
-0.5812668815928927
 10
4.577688968859611
 20
-0.682939509094778
 10
4.534117156744708
 20
-0.7908431944856761
 10
4.490530146927825
 20
-0.8987468798759325
 10
4.445924891065414
 20
-1.010298013787072
 10
4.400270993754156
 20
-1.125466200813529
 10
4.354617096441935
 20
-1.240634387840307
 10
4.309996642877864
 20
-1.352185521751125
 10
4.266424830763283
 20
-1.460089207141703
 10
4.222837820946078
 20
-1.56799289253228
 10
4.181864815901928
 20
-1.669665520034165
 10
4.143475420226229
 20
-1.765107089647358
 10
4.10508602455085
 20
-1.860579054664834
 10
4.071362323440599
 20
-1.943588903904604
 10
4.042304316896439
 20
-2.014136637367311
 10
4.042304316896439
 20
-2.014136637367311
 10
4.011179422856618
 20
-2.113742377374179
 10
4.011179422856618
 20
-2.113742377374179
 10
4.011179422856618
 20
-2.113742377374179
 10
3.980054528817119
 20
-2.014136637367311
 10
3.980054528817119
 20
-2.014136637367311
 10
3.951011719974939
 20
-1.943588903904604
 10
3.917288018864688
 20
-1.860579054664834
 10
3.878898623188988
 20
-1.765107089647358
 10
3.84050922751361
 20
-1.669665520034165
 10
3.799521024767479
 20
-1.56799289253228
 10
3.755949212652256
 20
-1.460089207141703
 10
3.712362202835373
 20
-1.352185521751125
 10
3.667756946973283
 20
-1.240634387840307
 10
3.622103049661382
 20
-1.125466200813529
 10
3.576449152349482
 20
-1.010298013787072
 10
3.531828698785411
 20
-0.8987468798759325
 10
3.48825688667083
 20
-0.7908431944856761
 10
3.444669876853626
 20
-0.682939509094778
 10
3.403696871809155
 20
-0.5812668815928927
 10
3.365307476134097
 20
-0.4857949165754176
 10
3.326918080458397
 20
-0.3903533469622243
 10
3.293194379348146
 20
-0.307343497722454
 10
3.264136372803665
 20
-0.2367957642597468
 10
3.264136372803665
 20
-0.2367957642597468
 10
3.052477974714204
 20
-0.2367957642597468
 10
3.052477974714204
 20
-0.2367957642597468
 10
3.083602868754024
 20
-0.3135745556108251
 10
3.125107793373588
 20
-0.413180295618014
 10
3.176992748574501
 20
-0.5356129842809925
 10
3.228862506072471
 20
-0.6580456729439711
 10
3.284896433964758
 20
-0.7929404773843336
 10
3.345064136847079
 20
-0.9402670021977982
 97
        0
 97
        0
 75
     2
 76
     1
 98
        0
  0
SPLINE
  5
4F
330
41
100
AcDbEntity
  8
Layer 1
370
     0
100
AcDbSpline
210
0.0
220
0.0
230
1.0
 70
    11
 71
     3
 72
    83
 73
    79
 74
     0
 42
0.0000000001
 43
0.0000000001
 12
1.0
 22
0.0
 32
0.0
 13
1.0
 23
0.0
 33
0.0
 40
0.0
 40
0.0
 40
0.0
 40
0.0
 40
1.0
 40
1.0
 40
1.0
 40
2.0
 40
2.0
 40
2.0
 40
3.0
 40
3.0
 40
3.0
 40
4.0
 40
4.0
 40
4.0
 40
5.0
 40
5.0
 40
5.0
 40
6.0
 40
6.0
 40
6.0
 40
7.0
 40
7.0
 40
7.0
 40
8.0
 40
8.0
 40
8.0
 40
9.0
 40
9.0
 40
9.0
 40
10.0
 40
10.0
 40
10.0
 40
11.0
 40
11.0
 40
11.0
 40
12.0
 40
12.0
 40
12.0
 40
13.0
 40
13.0
 40
13.0
 40
14.0
 40
14.0
 40
14.0
 40
15.0
 40
15.0
 40
15.0
 40
16.0
 40
16.0
 40
16.0
 40
17.0
 40
17.0
 40
17.0
 40
18.0
 40
18.0
 40
18.0
 40
19.0
 40
19.0
 40
19.0
 40
20.0
 40
20.0
 40
20.0
 40
21.0
 40
21.0
 40
21.0
 40
22.0
 40
22.0
 40
22.0
 40
23.0
 40
23.0
 40
23.0
 40
24.0
 40
24.0
 40
24.0
 40
25.0
 40
25.0
 40
25.0
 40
26.0
 40
26.0
 40
26.0
 40
26.0
 10
16.63227836274135
 20
-0.9667110039698681
 30
0.0
 10
16.58869135292415
 20
-0.8328800386809753
 30
0.0
 10
16.51814361946208
 20
-0.7119975156392597
 30
0.0
 10
16.42060476694959
 20
-0.6040938302486825
 30
0.0
 10
16.32306591443742
 20
-0.4961901448581051
 30
0.0
 10
16.19649945078505
 20
-0.4079826814768306
 30
0.0
 10
16.04087498058787
 20
-0.3395018355091408
 30
0.0
 10
15.8852201149861
 20
-0.2710209895414508
 30
0.0
 10
15.69537041950754
 20
-0.2367957642597468
 30
0.0
 10
15.47123470793807
 20
-0.2367957642597468
 30
0.0
 10
15.47123470793807
 20
-0.2367957642597468
 30
0.0
 10
14.95454322964066
 20
-0.2367957642597468
 30
0.0
 10
14.95454322964066
 20
-0.2367957642597468
 30
0.0
 10
14.95454322964066
 20
-0.2367957642597468
 30
0.0
 10
14.95454322964066
 20
-0.4422383021628165
 30
0.0
 10
14.95454322964066
 20
-0.4422383021628165
 30
0.0
 10
14.95454322964066
 20
-0.4422383021628165
 30
0.0
 10
15.16931715667462
 20
-0.4422383021628165
 30
0.0
 10
15.16931715667462
 20
-0.4422383021628165
 30
0.0
 10
15.16931715667462
 20
-0.4422383021628165
 30
0.0
 10
15.24399106627557
 20
-0.4422383021628165
 30
0.0
 10
15.24399106627557
 20
-0.4422383021628165
 30
0.0
 10
15.24399106627557
 20
-0.4422383021628165
 30
0.0
 10
15.53661522266356
 20
-0.4422383021628165
 30
0.0
 10
15.53661522266356
 20
-0.4422383021628165
 30
0.0
 10
15.68187485998233
 20
-0.4422383021628165
 30
0.0
 10
15.81260549402869
 20
-0.4655819726926814
 30
0.0
 10
15.9288071248033
 20
-0.5122693137514485
 30
0.0
 10
16.04500875557759
 20
-0.5589566548108573
 30
0.0
 10
16.14461449558446
 20
-0.6227566085107974
 30
0.0
 10
16.22762434482422
 20
-0.7036995702558713
 30
0.0
 10
16.31063419406432
 20
-0.7846121365963424
 30
0.0
 10
16.37443414776426
 20
-0.8806008234878927
 30
0.0
 10
16.41905460132865
 20
-0.9916048401206751
 30
0.0
 10
16.46367505489272
 20
-1.10263925215806
 30
0.0
 10
16.48598528167507
 20
-1.222488331451946
 30
0.0
 10
16.48598528167507
 20
-1.351121682599335
 30
0.0
 10
16.48598528167507
 20
-1.49224754492871
 30
0.0
 10
16.46212488927178
 20
-1.618814008581082
 30
0.0
 10
16.4143737090609
 20
-1.730881864365975
 30
0.0
 10
16.3666529242543
 20
-1.842949720150548
 30
0.0
 10
16.30078608305999
 20
-1.937874567889666
 30
0.0
 10
16.21674279007206
 20
-2.015686802988574
 30
0.0
 10
16.13269949708511
 20
-2.09349903808684
 30
0.0
 10
16.03412720082511
 20
-2.153165216797387
 30
0.0
 10
15.92102590129335
 20
-2.19465494371465
 30
0.0
 10
15.80792460176158
 20
-2.236175066037478
 30
0.0
 10
15.68704207871923
 20
-2.256935127198572
 30
0.0
 10
15.55840872757248
 20
-2.256935127198572
 30
0.0
 10
15.55840872757248
 20
-2.256935127198572
 30
0.0
 10
15.24399106627557
 20
-2.256935127198572
 30
0.0
 10
15.24399106627557
 20
-2.256935127198572
 30
0.0
 10
15.24399106627557
 20
-2.256935127198572
 30
0.0
 10
15.16931715667462
 20
-2.256935127198572
 30
0.0
 10
15.16931715667462
 20
-2.256935127198572
 30
0.0
 10
15.16931715667462
 20
-2.256935127198572
 30
0.0
 10
14.95454322964066
 20
-2.256935127198572
 30
0.0
 10
14.95454322964066
 20
-2.256935127198572
 30
0.0
 10
14.95454322964066
 20
-2.256935127198572
 30
0.0
 10
14.95454322964066
 20
-2.459246938454834
 30
0.0
 10
14.95454322964066
 20
-2.459246938454834
 30
0.0
 10
14.95454322964066
 20
-2.459246938454834
 30
0.0
 10
15.58020223248076
 20
-2.459246938454834
 30
0.0
 10
15.58020223248076
 20
-2.459246938454834
 30
0.0
 10
15.73166253228362
 20
-2.459246938454834
 30
0.0
 10
15.87485528210801
 20
-2.433836380430273
 30
0.0
 10
16.00975008654838
 20
-2.382984868976868
 30
0.0
 10
16.14461449558446
 20
-2.332133357524105
 30
0.0
 10
16.26291340925772
 20
-2.259002014693589
 30
0.0
 10
16.3645860367596
 20
-2.163530049675472
 30
0.0
 10
16.46625866426149
 20
-2.06808848006292
 30
0.0
 10
16.54720162600657
 20
-1.952920293035822
 30
0.0
 10
16.60738452659022
 20
-1.818025488595138
 30
0.0
 10
16.66753703177056
 20
-1.683161079559058
 30
0.0
 10
16.69762848206224
 20
-1.531670384351277
 30
0.0
 10
16.69762848206224
 20
-1.36358379837704
 30
0.0
 10
16.69762848206224
 20
-1.232853164330352
 30
0.0
 10
16.67583497715395
 20
-1.100572364663043
 30
0.0
 10
16.63227836274135
 20
-0.9667110039698681
 30
0.0
  0
HATCH
  5
50
330
41
100
AcDbEntity
  8
Layer 1
 62
   250
420
  2301728
100
AcDbHatch
 10
0.0
 20
0.0
 30
0.0
210
0.0
220
0.0
230
1.0
  2
SOLID
 70
     1
 71
     0
 91
        1
 92
        1
 93
        1
 72
     4
 94
        3
 73
     0
 74
     1
 95
       83
 96
       79
 40
0.0
 40
0.0
 40
0.0
 40
0.0
 40
1.0
 40
1.0
 40
1.0
 40
2.0
 40
2.0
 40
2.0
 40
3.0
 40
3.0
 40
3.0
 40
4.0
 40
4.0
 40
4.0
 40
5.0
 40
5.0
 40
5.0
 40
6.0
 40
6.0
 40
6.0
 40
7.0
 40
7.0
 40
7.0
 40
8.0
 40
8.0
 40
8.0
 40
9.0
 40
9.0
 40
9.0
 40
10.0
 40
10.0
 40
10.0
 40
11.0
 40
11.0
 40
11.0
 40
12.0
 40
12.0
 40
12.0
 40
13.0
 40
13.0
 40
13.0
 40
14.0
 40
14.0
 40
14.0
 40
15.0
 40
15.0
 40
15.0
 40
16.0
 40
16.0
 40
16.0
 40
17.0
 40
17.0
 40
17.0
 40
18.0
 40
18.0
 40
18.0
 40
19.0
 40
19.0
 40
19.0
 40
20.0
 40
20.0
 40
20.0
 40
21.0
 40
21.0
 40
21.0
 40
22.0
 40
22.0
 40
22.0
 40
23.0
 40
23.0
 40
23.0
 40
24.0
 40
24.0
 40
24.0
 40
25.0
 40
25.0
 40
25.0
 40
26.0
 40
26.0
 40
26.0
 40
26.0
 10
16.63227836274135
 20
-0.9667110039698681
 10
16.58869135292415
 20
-0.8328800386809753
 10
16.51814361946208
 20
-0.7119975156392597
 10
16.42060476694959
 20
-0.6040938302486825
 10
16.32306591443742
 20
-0.4961901448581051
 10
16.19649945078505
 20
-0.4079826814768306
 10
16.04087498058787
 20
-0.3395018355091408
 10
15.8852201149861
 20
-0.2710209895414508
 10
15.69537041950754
 20
-0.2367957642597468
 10
15.47123470793807
 20
-0.2367957642597468
 10
15.47123470793807
 20
-0.2367957642597468
 10
14.95454322964066
 20
-0.2367957642597468
 10
14.95454322964066
 20
-0.2367957642597468
 10
14.95454322964066
 20
-0.2367957642597468
 10
14.95454322964066
 20
-0.4422383021628165
 10
14.95454322964066
 20
-0.4422383021628165
 10
14.95454322964066
 20
-0.4422383021628165
 10
15.16931715667462
 20
-0.4422383021628165
 10
15.16931715667462
 20
-0.4422383021628165
 10
15.16931715667462
 20
-0.4422383021628165
 10
15.24399106627557
 20
-0.4422383021628165
 10
15.24399106627557
 20
-0.4422383021628165
 10
15.24399106627557
 20
-0.4422383021628165
 10
15.53661522266356
 20
-0.4422383021628165
 10
15.53661522266356
 20
-0.4422383021628165
 10
15.68187485998233
 20
-0.4422383021628165
 10
15.81260549402869
 20
-0.4655819726926814
 10
15.9288071248033
 20
-0.5122693137514485
 10
16.04500875557759
 20
-0.5589566548108573
 10
16.14461449558446
 20
-0.6227566085107974
 10
16.22762434482422
 20
-0.7036995702558713
 10
16.31063419406432
 20
-0.7846121365963424
 10
16.37443414776426
 20
-0.8806008234878927
 10
16.41905460132865
 20
-0.9916048401206751
 10
16.46367505489272
 20
-1.10263925215806
 10
16.48598528167507
 20
-1.222488331451946
 10
16.48598528167507
 20
-1.351121682599335
 10
16.48598528167507
 20
-1.49224754492871
 10
16.46212488927178
 20
-1.618814008581082
 10
16.4143737090609
 20
-1.730881864365975
 10
16.3666529242543
 20
-1.842949720150548
 10
16.30078608305999
 20
-1.937874567889666
 10
16.21674279007206
 20
-2.015686802988574
 10
16.13269949708511
 20
-2.09349903808684
 10
16.03412720082511
 20
-2.153165216797387
 10
15.92102590129335
 20
-2.19465494371465
 10
15.80792460176158
 20
-2.236175066037478
 10
15.68704207871923
 20
-2.256935127198572
 10
15.55840872757248
 20
-2.256935127198572
 10
15.55840872757248
 20
-2.256935127198572
 10
15.24399106627557
 20
-2.256935127198572
 10
15.24399106627557
 20
-2.256935127198572
 10
15.24399106627557
 20
-2.256935127198572
 10
15.16931715667462
 20
-2.256935127198572
 10
15.16931715667462
 20
-2.256935127198572
 10
15.16931715667462
 20
-2.256935127198572
 10
14.95454322964066
 20
-2.256935127198572
 10
14.95454322964066
 20
-2.256935127198572
 10
14.95454322964066
 20
-2.256935127198572
 10
14.95454322964066
 20
-2.459246938454834
 10
14.95454322964066
 20
-2.459246938454834
 10
14.95454322964066
 20
-2.459246938454834
 10
15.58020223248076
 20
-2.459246938454834
 10
15.58020223248076
 20
-2.459246938454834
 10
15.73166253228362
 20
-2.459246938454834
 10
15.87485528210801
 20
-2.433836380430273
 10
16.00975008654838
 20
-2.382984868976868
 10
16.14461449558446
 20
-2.332133357524105
 10
16.26291340925772
 20
-2.259002014693589
 10
16.3645860367596
 20
-2.163530049675472
 10
16.46625866426149
 20
-2.06808848006292
 10
16.54720162600657
 20
-1.952920293035822
 10
16.60738452659022
 20
-1.818025488595138
 10
16.66753703177056
 20
-1.683161079559058
 10
16.69762848206224
 20
-1.531670384351277
 10
16.69762848206224
 20
-1.36358379837704
 10
16.69762848206224
 20
-1.232853164330352
 10
16.67583497715395
 20
-1.100572364663043
 10
16.63227836274135
 20
-0.9667110039698681
 97
        0
 97
        0
 75
     2
 76
     1
 98
        0
  0
SPLINE
  5
51
330
41
100
AcDbEntity
  8
Layer 1
370
     0
100
AcDbSpline
210
0.0
220
0.0
230
1.0
 70
    11
 71
     3
 72
   107
 73
   103
 74
     0
 42
0.0000000001
 43
0.0000000001
 12
1.0
 22
0.0
 32
0.0
 13
1.0
 23
0.0
 33
0.0
 40
0.0
 40
0.0
 40
0.0
 40
0.0
 40
1.0
 40
1.0
 40
1.0
 40
2.0
 40
2.0
 40
2.0
 40
3.0
 40
3.0
 40
3.0
 40
4.0
 40
4.0
 40
4.0
 40
5.0
 40
5.0
 40
5.0
 40
6.0
 40
6.0
 40
6.0
 40
7.0
 40
7.0
 40
7.0
 40
8.0
 40
8.0
 40
8.0
 40
9.0
 40
9.0
 40
9.0
 40
10.0
 40
10.0
 40
10.0
 40
11.0
 40
11.0
 40
11.0
 40
12.0
 40
12.0
 40
12.0
 40
13.0
 40
13.0
 40
13.0
 40
14.0
 40
14.0
 40
14.0
 40
15.0
 40
15.0
 40
15.0
 40
16.0
 40
16.0
 40
16.0
 40
17.0
 40
17.0
 40
17.0
 40
18.0
 40
18.0
 40
18.0
 40
19.0
 40
19.0
 40
19.0
 40
20.0
 40
20.0
 40
20.0
 40
21.0
 40
21.0
 40
21.0
 40
22.0
 40
22.0
 40
22.0
 40
23.0
 40
23.0
 40
23.0
 40
24.0
 40
24.0
 40
24.0
 40
25.0
 40
25.0
 40
25.0
 40
26.0
 40
26.0
 40
26.0
 40
27.0
 40
27.0
 40
27.0
 40
28.0
 40
28.0
 40
28.0
 40
29.0
 40
29.0
 40
29.0
 40
30.0
 40
30.0
 40
30.0
 40
31.0
 40
31.0
 40
31.0
 40
32.0
 40
32.0
 40
32.0
 40
33.0
 40
33.0
 40
33.0
 40
34.0
 40
34.0
 40
34.0
 40
34.0
 10
7.475426566056491
 20
-0.9106894596790117
 30
0.0
 10
7.415245054298532
 20
-0.7726918536479729
 30
0.0
 10
7.333790077919157
 20
-0.6518120658092692
 30
0.0
 10
7.231083168765146
 20
-0.5480716280096835
 30
0.0
 10
7.128354727764353
 20
-0.444309658363315
 30
0.0
 10
7.007474939925649
 20
-0.3623163858143688
 30
0.0
 10
6.868443805249036
 20
-0.3021348740564108
 30
0.0
 10
6.729434202419204
 20
-0.2419964259920183
 30
0.0
 10
6.582091774884425
 20
-0.2118949041896478
 30
0.0
 10
6.426459586338264
 20
-0.2118949041896478
 30
0.0
 10
6.270827397792102
 20
-0.2118949041896478
 30
0.0
 10
6.124001734580111
 20
-0.2419964259920183
 30
0.0
 10
5.986004128549072
 20
-0.3021348740564108
 30
0.0
 10
5.848028054364816
 20
-0.3623163858143688
 30
0.0
 10
5.727643499002117
 20
-0.444309658363315
 30
0.0
 10
5.624936589848106
 20
-0.5480716280096835
 30
0.0
 10
5.522229680694096
 20
-0.6518120658092692
 30
0.0
 10
5.441291468637507
 20
-0.7726918536479729
 30
0.0
 10
5.382143485525124
 20
-0.9106894596790117
 30
0.0
 10
5.323017034259523
 20
-1.04868706571005
 30
0.0
 10
5.29343227677994
 20
-1.195491197075259
 30
0.0
 10
5.29343227677994
 20
-1.351123385621421
 30
0.0
 10
5.29343227677994
 20
-1.506777106014365
 30
0.0
 10
5.323017034259523
 20
-1.653581237379574
 30
0.0
 10
5.382143485525124
 20
-1.791578843410612
 30
0.0
 10
5.441291468637507
 20
-1.929576449441651
 30
0.0
 10
5.522229680694096
 20
-2.049939472957568
 30
0.0
 10
5.624936589848106
 20
-2.152646382111578
 30
0.0
 10
5.727643499002117
 20
-2.255353291265589
 30
0.0
 10
5.848028054364816
 20
-2.336291503322177
 30
0.0
 10
5.986004128549072
 20
-2.39543948643456
 30
0.0
 10
6.117520648698485
 20
-2.451788329465178
 30
0.0
 10
6.257585312020673
 20
-2.47937062519396
 30
0.0
 10
6.405121526176497
 20
-2.482040574195028
 30
0.0
 10
6.405121526176497
 20
-2.482040574195028
 30
0.0
 10
6.405121526176497
 20
-2.279705809976948
 30
0.0
 10
6.405121526176497
 20
-2.279705809976948
 30
0.0
 10
6.286653305177469
 20
-2.277078924669446
 30
0.0
 10
6.174063278350148
 20
-2.254621208474973
 30
0.0
 10
6.068492633574023
 20
-2.208672247440453
 30
0.0
 10
5.956440902916272
 20
-2.159902614477386
 30
0.0
 10
5.858901636990136
 20
-2.093498398999195
 30
0.0
 10
5.775896367642398
 20
-2.009459601005882
 30
0.0
 10
5.692891098294659
 20
-1.925399271165786
 30
0.0
 10
5.627003647139256
 20
-1.826826476594075
 30
0.0
 10
5.578255546022971
 20
-1.713762749137532
 30
0.0
 10
5.529485913059903
 20
-1.600655957987423
 30
0.0
 10
5.505090330654978
 20
-1.479776170148719
 30
0.0
 10
5.505090330654978
 20
-1.351123385621421
 30
0.0
 10
5.505090330654978
 20
-1.222492132940905
 30
0.0
 10
5.528969148737116
 20
-1.101612345102201
 30
0.0
 10
5.576705253054609
 20
-0.9885055539520924
 30
0.0
 10
5.624419825525319
 20
-0.8753987628019837
 30
0.0
 10
5.690307276680722
 20
-0.7763092039074853
 30
0.0
 10
5.774346074674035
 20
-0.6912368772685971
 30
0.0
 10
5.858384872667348
 20
-0.6061645506297089
 30
0.0
 10
5.955924138593485
 20
-0.539222038981948
 30
0.0
 10
6.06694234060566
 20
-0.4904739378656628
 30
0.0
 10
6.177960542617837
 20
-0.4417258367493776
 30
0.0
 10
6.297785269964183
 20
-0.4173302543444522
 30
0.0
 10
6.426459586338264
 20
-0.4173302543444522
 30
0.0
 10
6.553045313574413
 20
-0.4173302543444522
 30
0.0
 10
6.672870040920759
 20
-0.4417258367493776
 30
0.0
 10
6.785955300224084
 20
-0.4904739378656628
 30
0.0
 10
6.899062091374193
 20
-0.539222038981948
 30
0.0
 10
6.997634885945904
 20
-0.6061645506297089
 30
0.0
 10
7.081673683939218
 20
-0.6912368772685971
 30
0.0
 10
7.16571248193253
 20
-0.7763092039074853
 30
0.0
 10
7.232116697410721
 20
-0.8753987628019837
 30
0.0
 10
7.280886330373789
 20
-0.9885055539520924
 30
0.0
 10
7.329634431490074
 20
-1.101612345102201
 30
0.0
 10
7.354030013895
 20
-1.222492132940905
 30
0.0
 10
7.354030013895
 20
-1.351123385621421
 30
0.0
 10
7.354030013895
 20
-1.479776170148719
 30
0.0
 10
7.329634431490074
 20
-1.600655957987423
 30
0.0
 10
7.280886330373789
 20
-1.713762749137532
 30
0.0
 10
7.232116697410721
 20
-1.826826476594075
 30
0.0
 10
7.16571248193253
 20
-1.925399271165786
 30
0.0
 10
7.081673683939218
 20
-2.009459601005882
 30
0.0
 10
6.997634885945904
 20
-2.093498398999195
 30
0.0
 10
6.899062091374193
 20
-2.159902614477386
 30
0.0
 10
6.785955300224084
 20
-2.208672247440453
 30
0.0
 10
6.673817442179202
 20
-2.257032775314648
 30
0.0
 10
6.555004711631648
 20
-2.281105380017832
 30
0.0
 10
6.429560172274988
 20
-2.281514485106705
 30
0.0
 10
6.429560172274988
 20
-2.281514485106705
 30
0.0
 10
6.429560172274988
 20
-2.483827717478002
 30
0.0
 10
6.429560172274988
 20
-2.483827717478002
 30
0.0
 10
6.584051172941662
 20
-2.483440144235911
 30
0.0
 10
6.730381603677648
 20
-2.454156832611287
 30
0.0
 10
6.868443805249036
 20
-2.39543948643456
 30
0.0
 10
7.007474939925649
 20
-2.336291503322177
 30
0.0
 10
7.128354727764353
 20
-2.255353291265589
 30
0.0
 10
7.231083168765146
 20
-2.152646382111578
 30
0.0
 10
7.333790077919157
 20
-2.049939472957568
 30
0.0
 10
7.415245054298532
 20
-1.929576449441651
 30
0.0
 10
7.475426566056491
 20
-1.791578843410612
 30
0.0
 10
7.535608077814449
 20
-1.653581237379574
 30
0.0
 10
7.565688067770036
 20
-1.506777106014365
 30
0.0
 10
7.565688067770036
 20
-1.351123385621421
 30
0.0
 10
7.565688067770036
 20
-1.195491197075259
 30
0.0
 10
7.535608077814449
 20
-1.04868706571005
 30
0.0
 10
7.475426566056491
 20
-0.9106894596790117
 30
0.0
  0
HATCH
  5
52
330
41
100
AcDbEntity
  8
Layer 1
 62
   250
420
  2301728
100
AcDbHatch
 10
0.0
 20
0.0
 30
0.0
210
0.0
220
0.0
230
1.0
  2
SOLID
 70
     1
 71
     0
 91
        1
 92
        1
 93
        1
 72
     4
 94
        3
 73
     0
 74
     1
 95
      107
 96
      103
 40
0.0
 40
0.0
 40
0.0
 40
0.0
 40
1.0
 40
1.0
 40
1.0
 40
2.0
 40
2.0
 40
2.0
 40
3.0
 40
3.0
 40
3.0
 40
4.0
 40
4.0
 40
4.0
 40
5.0
 40
5.0
 40
5.0
 40
6.0
 40
6.0
 40
6.0
 40
7.0
 40
7.0
 40
7.0
 40
8.0
 40
8.0
 40
8.0
 40
9.0
 40
9.0
 40
9.0
 40
10.0
 40
10.0
 40
10.0
 40
11.0
 40
11.0
 40
11.0
 40
12.0
 40
12.0
 40
12.0
 40
13.0
 40
13.0
 40
13.0
 40
14.0
 40
14.0
 40
14.0
 40
15.0
 40
15.0
 40
15.0
 40
16.0
 40
16.0
 40
16.0
 40
17.0
 40
17.0
 40
17.0
 40
18.0
 40
18.0
 40
18.0
 40
19.0
 40
19.0
 40
19.0
 40
20.0
 40
20.0
 40
20.0
 40
21.0
 40
21.0
 40
21.0
 40
22.0
 40
22.0
 40
22.0
 40
23.0
 40
23.0
 40
23.0
 40
24.0
 40
24.0
 40
24.0
 40
25.0
 40
25.0
 40
25.0
 40
26.0
 40
26.0
 40
26.0
 40
27.0
 40
27.0
 40
27.0
 40
28.0
 40
28.0
 40
28.0
 40
29.0
 40
29.0
 40
29.0
 40
30.0
 40
30.0
 40
30.0
 40
31.0
 40
31.0
 40
31.0
 40
32.0
 40
32.0
 40
32.0
 40
33.0
 40
33.0
 40
33.0
 40
34.0
 40
34.0
 40
34.0
 40
34.0
 10
7.475426566056491
 20
-0.9106894596790117
 10
7.415245054298532
 20
-0.7726918536479729
 10
7.333790077919157
 20
-0.6518120658092692
 10
7.231083168765146
 20
-0.5480716280096835
 10
7.128354727764353
 20
-0.444309658363315
 10
7.007474939925649
 20
-0.3623163858143688
 10
6.868443805249036
 20
-0.3021348740564108
 10
6.729434202419204
 20
-0.2419964259920183
 10
6.582091774884425
 20
-0.2118949041896478
 10
6.426459586338264
 20
-0.2118949041896478
 10
6.270827397792102
 20
-0.2118949041896478
 10
6.124001734580111
 20
-0.2419964259920183
 10
5.986004128549072
 20
-0.3021348740564108
 10
5.848028054364816
 20
-0.3623163858143688
 10
5.727643499002117
 20
-0.444309658363315
 10
5.624936589848106
 20
-0.5480716280096835
 10
5.522229680694096
 20
-0.6518120658092692
 10
5.441291468637507
 20
-0.7726918536479729
 10
5.382143485525124
 20
-0.9106894596790117
 10
5.323017034259523
 20
-1.04868706571005
 10
5.29343227677994
 20
-1.195491197075259
 10
5.29343227677994
 20
-1.351123385621421
 10
5.29343227677994
 20
-1.506777106014365
 10
5.323017034259523
 20
-1.653581237379574
 10
5.382143485525124
 20
-1.791578843410612
 10
5.441291468637507
 20
-1.929576449441651
 10
5.522229680694096
 20
-2.049939472957568
 10
5.624936589848106
 20
-2.152646382111578
 10
5.727643499002117
 20
-2.255353291265589
 10
5.848028054364816
 20
-2.336291503322177
 10
5.986004128549072
 20
-2.39543948643456
 10
6.117520648698485
 20
-2.451788329465178
 10
6.257585312020673
 20
-2.47937062519396
 10
6.405121526176497
 20
-2.482040574195028
 10
6.405121526176497
 20
-2.482040574195028
 10
6.405121526176497
 20
-2.279705809976948
 10
6.405121526176497
 20
-2.279705809976948
 10
6.286653305177469
 20
-2.277078924669446
 10
6.174063278350148
 20
-2.254621208474973
 10
6.068492633574023
 20
-2.208672247440453
 10
5.956440902916272
 20
-2.159902614477386
 10
5.858901636990136
 20
-2.093498398999195
 10
5.775896367642398
 20
-2.009459601005882
 10
5.692891098294659
 20
-1.925399271165786
 10
5.627003647139256
 20
-1.826826476594075
 10
5.578255546022971
 20
-1.713762749137532
 10
5.529485913059903
 20
-1.600655957987423
 10
5.505090330654978
 20
-1.479776170148719
 10
5.505090330654978
 20
-1.351123385621421
 10
5.505090330654978
 20
-1.222492132940905
 10
5.528969148737116
 20
-1.101612345102201
 10
5.576705253054609
 20
-0.9885055539520924
 10
5.624419825525319
 20
-0.8753987628019837
 10
5.690307276680722
 20
-0.7763092039074853
 10
5.774346074674035
 20
-0.6912368772685971
 10
5.858384872667348
 20
-0.6061645506297089
 10
5.955924138593485
 20
-0.539222038981948
 10
6.06694234060566
 20
-0.4904739378656628
 10
6.177960542617837
 20
-0.4417258367493776
 10
6.297785269964183
 20
-0.4173302543444522
 10
6.426459586338264
 20
-0.4173302543444522
 10
6.553045313574413
 20
-0.4173302543444522
 10
6.672870040920759
 20
-0.4417258367493776
 10
6.785955300224084
 20
-0.4904739378656628
 10
6.899062091374193
 20
-0.539222038981948
 10
6.997634885945904
 20
-0.6061645506297089
 10
7.081673683939218
 20
-0.6912368772685971
 10
7.16571248193253
 20
-0.7763092039074853
 10
7.232116697410721
 20
-0.8753987628019837
 10
7.280886330373789
 20
-0.9885055539520924
 10
7.329634431490074
 20
-1.101612345102201
 10
7.354030013895
 20
-1.222492132940905
 10
7.354030013895
 20
-1.351123385621421
 10
7.354030013895
 20
-1.479776170148719
 10
7.329634431490074
 20
-1.600655957987423
 10
7.280886330373789
 20
-1.713762749137532
 10
7.232116697410721
 20
-1.826826476594075
 10
7.16571248193253
 20
-1.925399271165786
 10
7.081673683939218
 20
-2.009459601005882
 10
6.997634885945904
 20
-2.093498398999195
 10
6.899062091374193
 20
-2.159902614477386
 10
6.785955300224084
 20
-2.208672247440453
 10
6.673817442179202
 20
-2.257032775314648
 10
6.555004711631648
 20
-2.281105380017832
 10
6.429560172274988
 20
-2.281514485106705
 10
6.429560172274988
 20
-2.281514485106705
 10
6.429560172274988
 20
-2.483827717478002
 10
6.429560172274988
 20
-2.483827717478002
 10
6.584051172941662
 20
-2.483440144235911
 10
6.730381603677648
 20
-2.454156832611287
 10
6.868443805249036
 20
-2.39543948643456
 10
7.007474939925649
 20
-2.336291503322177
 10
7.128354727764353
 20
-2.255353291265589
 10
7.231083168765146
 20
-2.152646382111578
 10
7.333790077919157
 20
-2.049939472957568
 10
7.415245054298532
 20
-1.929576449441651
 10
7.475426566056491
 20
-1.791578843410612
 10
7.535608077814449
 20
-1.653581237379574
 10
7.565688067770036
 20
-1.506777106014365
 10
7.565688067770036
 20
-1.351123385621421
 10
7.565688067770036
 20
-1.195491197075259
 10
7.535608077814449
 20
-1.04868706571005
 10
7.475426566056491
 20
-0.9106894596790117
 97
        0
 97
        0
 75
     2
 76
     1
 98
        0
  0
SPLINE
  5
53
330
41
100
AcDbEntity
  8
Layer 1
370
     0
100
AcDbSpline
210
0.0
220
0.0
230
1.0
 70
    11
 71
     3
 72
   107
 73
   103
 74
     0
 42
0.0000000001
 43
0.0000000001
 12
1.0
 22
0.0
 32
0.0
 13
1.0
 23
0.0
 33
0.0
 40
0.0
 40
0.0
 40
0.0
 40
0.0
 40
1.0
 40
1.0
 40
1.0
 40
2.0
 40
2.0
 40
2.0
 40
3.0
 40
3.0
 40
3.0
 40
4.0
 40
4.0
 40
4.0
 40
5.0
 40
5.0
 40
5.0
 40
6.0
 40
6.0
 40
6.0
 40
7.0
 40
7.0
 40
7.0
 40
8.0
 40
8.0
 40
8.0
 40
9.0
 40
9.0
 40
9.0
 40
10.0
 40
10.0
 40
10.0
 40
11.0
 40
11.0
 40
11.0
 40
12.0
 40
12.0
 40
12.0
 40
13.0
 40
13.0
 40
13.0
 40
14.0
 40
14.0
 40
14.0
 40
15.0
 40
15.0
 40
15.0
 40
16.0
 40
16.0
 40
16.0
 40
17.0
 40
17.0
 40
17.0
 40
18.0
 40
18.0
 40
18.0
 40
19.0
 40
19.0
 40
19.0
 40
20.0
 40
20.0
 40
20.0
 40
21.0
 40
21.0
 40
21.0
 40
22.0
 40
22.0
 40
22.0
 40
23.0
 40
23.0
 40
23.0
 40
24.0
 40
24.0
 40
24.0
 40
25.0
 40
25.0
 40
25.0
 40
26.0
 40
26.0
 40
26.0
 40
27.0
 40
27.0
 40
27.0
 40
28.0
 40
28.0
 40
28.0
 40
29.0
 40
29.0
 40
29.0
 40
30.0
 40
30.0
 40
30.0
 40
31.0
 40
31.0
 40
31.0
 40
32.0
 40
32.0
 40
32.0
 40
33.0
 40
33.0
 40
33.0
 40
34.0
 40
34.0
 40
34.0
 40
34.0
 10
19.34326643990024
 20
-0.9106894596790117
 30
0.0
 10
19.28308492814228
 20
-0.7726918536479729
 30
0.0
 10
19.20162995176291
 20
-0.6518120658092692
 30
0.0
 10
19.0989230426089
 20
-0.5480716280096835
 30
0.0
 10
18.9961946016081
 20
-0.444309658363315
 30
0.0
 10
18.8753148137694
 20
-0.3623163858143688
 30
0.0
 10
18.73628367909279
 20
-0.3021348740564108
 30
0.0
 10
18.59727407626296
 20
-0.2419964259920183
 30
0.0
 10
18.44993164872817
 20
-0.2118949041896478
 30
0.0
 10
18.29429946018201
 20
-0.2118949041896478
 30
0.0
 10
18.13866727163585
 20
-0.2118949041896478
 30
0.0
 10
17.99184160842386
 20
-0.2419964259920183
 30
0.0
 10
17.85384400239282
 20
-0.3021348740564108
 30
0.0
 10
17.71586792820857
 20
-0.3623163858143688
 30
0.0
 10
17.59548337284587
 20
-0.444309658363315
 30
0.0
 10
17.49277646369186
 20
-0.5480716280096835
 30
0.0
 10
17.39006955453785
 20
-0.6518120658092692
 30
0.0
 10
17.30913134248126
 20
-0.7726918536479729
 30
0.0
 10
17.24998335936887
 20
-0.9106894596790117
 30
0.0
 10
17.19085690810327
 20
-1.04868706571005
 30
0.0
 10
17.16127215062369
 20
-1.195491197075259
 30
0.0
 10
17.16127215062369
 20
-1.351123385621421
 30
0.0
 10
17.16127215062369
 20
-1.506777106014365
 30
0.0
 10
17.19085690810327
 20
-1.653581237379574
 30
0.0
 10
17.24998335936887
 20
-1.791578843410612
 30
0.0
 10
17.30913134248126
 20
-1.929576449441651
 30
0.0
 10
17.39006955453785
 20
-2.049939472957568
 30
0.0
 10
17.49277646369186
 20
-2.152646382111578
 30
0.0
 10
17.59548337284587
 20
-2.255353291265589
 30
0.0
 10
17.71586792820857
 20
-2.336291503322177
 30
0.0
 10
17.85384400239282
 20
-2.39543948643456
 30
0.0
 10
17.98536052254223
 20
-2.451788329465178
 30
0.0
 10
18.12542518586442
 20
-2.47937062519396
 30
0.0
 10
18.27296140002025
 20
-2.482040574195028
 30
0.0
 10
18.27296140002025
 20
-2.482040574195028
 30
0.0
 10
18.27296140002025
 20
-2.279705809976948
 30
0.0
 10
18.27296140002025
 20
-2.279705809976948
 30
0.0
 10
18.15449317902122
 20
-2.277078924669446
 30
0.0
 10
18.0419031521939
 20
-2.254621208474973
 30
0.0
 10
17.93633250741777
 20
-2.208672247440453
 30
0.0
 10
17.82428077676002
 20
-2.159902614477386
 30
0.0
 10
17.72674151083389
 20
-2.093498398999195
 30
0.0
 10
17.64373624148615
 20
-2.009459601005882
 30
0.0
 10
17.56073097213841
 20
-1.925399271165786
 30
0.0
 10
17.49484352098301
 20
-1.826826476594075
 30
0.0
 10
17.44609541986672
 20
-1.713762749137532
 30
0.0
 10
17.39732578690365
 20
-1.600655957987423
 30
0.0
 10
17.37293020449873
 20
-1.479776170148719
 30
0.0
 10
17.37293020449873
 20
-1.351123385621421
 30
0.0
 10
17.37293020449873
 20
-1.222492132940905
 30
0.0
 10
17.39680902258086
 20
-1.101612345102201
 30
0.0
 10
17.44454512689836
 20
-0.9885055539520924
 30
0.0
 10
17.49225969936907
 20
-0.8753987628019837
 30
0.0
 10
17.55814715052447
 20
-0.7763092039074853
 30
0.0
 10
17.64218594851778
 20
-0.6912368772685971
 30
0.0
 10
17.7262247465111
 20
-0.6061645506297089
 30
0.0
 10
17.82376401243723
 20
-0.539222038981948
 30
0.0
 10
17.93478221444941
 20
-0.4904739378656628
 30
0.0
 10
18.04580041646159
 20
-0.4417258367493776
 30
0.0
 10
18.16562514380793
 20
-0.4173302543444522
 30
0.0
 10
18.29429946018201
 20
-0.4173302543444522
 30
0.0
 10
18.42088518741816
 20
-0.4173302543444522
 30
0.0
 10
18.54070991476451
 20
-0.4417258367493776
 30
0.0
 10
18.65379517406783
 20
-0.4904739378656628
 30
0.0
 10
18.76690196521794
 20
-0.539222038981948
 30
0.0
 10
18.86547475978966
 20
-0.6061645506297089
 30
0.0
 10
18.94951355778297
 20
-0.6912368772685971
 30
0.0
 10
19.03355235577628
 20
-0.7763092039074853
 30
0.0
 10
19.09995657125447
 20
-0.8753987628019837
 30
0.0
 10
19.14872620421754
 20
-0.9885055539520924
 30
0.0
 10
19.19747430533382
 20
-1.101612345102201
 30
0.0
 10
19.22186988773875
 20
-1.222492132940905
 30
0.0
 10
19.22186988773875
 20
-1.351123385621421
 30
0.0
 10
19.22186988773875
 20
-1.479776170148719
 30
0.0
 10
19.19747430533382
 20
-1.600655957987423
 30
0.0
 10
19.14872620421754
 20
-1.713762749137532
 30
0.0
 10
19.09995657125447
 20
-1.826826476594075
 30
0.0
 10
19.03355235577628
 20
-1.925399271165786
 30
0.0
 10
18.94951355778297
 20
-2.009459601005882
 30
0.0
 10
18.86547475978966
 20
-2.093498398999195
 30
0.0
 10
18.76690196521794
 20
-2.159902614477386
 30
0.0
 10
18.65379517406783
 20
-2.208672247440453
 30
0.0
 10
18.54165731602295
 20
-2.257032775314648
 30
0.0
 10
18.4228445854754
 20
-2.281105380017832
 30
0.0
 10
18.29740004611874
 20
-2.281514485106705
 30
0.0
 10
18.29740004611874
 20
-2.281514485106705
 30
0.0
 10
18.29740004611874
 20
-2.483827717478002
 30
0.0
 10
18.29740004611874
 20
-2.483827717478002
 30
0.0
 10
18.45189104678541
 20
-2.483440144235911
 30
0.0
 10
18.5982214775214
 20
-2.454156832611287
 30
0.0
 10
18.73628367909279
 20
-2.39543948643456
 30
0.0
 10
18.8753148137694
 20
-2.336291503322177
 30
0.0
 10
18.9961946016081
 20
-2.255353291265589
 30
0.0
 10
19.0989230426089
 20
-2.152646382111578
 30
0.0
 10
19.20162995176291
 20
-2.049939472957568
 30
0.0
 10
19.28308492814228
 20
-1.929576449441651
 30
0.0
 10
19.34326643990024
 20
-1.791578843410612
 30
0.0
 10
19.4034479516582
 20
-1.653581237379574
 30
0.0
 10
19.43352794161379
 20
-1.506777106014365
 30
0.0
 10
19.43352794161379
 20
-1.351123385621421
 30
0.0
 10
19.43352794161379
 20
-1.195491197075259
 30
0.0
 10
19.4034479516582
 20
-1.04868706571005
 30
0.0
 10
19.34326643990024
 20
-0.9106894596790117
 30
0.0
  0
HATCH
  5
54
330
41
100
AcDbEntity
  8
Layer 1
 62
   250
420
  2301728
100
AcDbHatch
 10
0.0
 20
0.0
 30
0.0
210
0.0
220
0.0
230
1.0
  2
SOLID
 70
     1
 71
     0
 91
        1
 92
        1
 93
        1
 72
     4
 94
        3
 73
     0
 74
     1
 95
      107
 96
      103
 40
0.0
 40
0.0
 40
0.0
 40
0.0
 40
1.0
 40
1.0
 40
1.0
 40
2.0
 40
2.0
 40
2.0
 40
3.0
 40
3.0
 40
3.0
 40
4.0
 40
4.0
 40
4.0
 40
5.0
 40
5.0
 40
5.0
 40
6.0
 40
6.0
 40
6.0
 40
7.0
 40
7.0
 40
7.0
 40
8.0
 40
8.0
 40
8.0
 40
9.0
 40
9.0
 40
9.0
 40
10.0
 40
10.0
 40
10.0
 40
11.0
 40
11.0
 40
11.0
 40
12.0
 40
12.0
 40
12.0
 40
13.0
 40
13.0
 40
13.0
 40
14.0
 40
14.0
 40
14.0
 40
15.0
 40
15.0
 40
15.0
 40
16.0
 40
16.0
 40
16.0
 40
17.0
 40
17.0
 40
17.0
 40
18.0
 40
18.0
 40
18.0
 40
19.0
 40
19.0
 40
19.0
 40
20.0
 40
20.0
 40
20.0
 40
21.0
 40
21.0
 40
21.0
 40
22.0
 40
22.0
 40
22.0
 40
23.0
 40
23.0
 40
23.0
 40
24.0
 40
24.0
 40
24.0
 40
25.0
 40
25.0
 40
25.0
 40
26.0
 40
26.0
 40
26.0
 40
27.0
 40
27.0
 40
27.0
 40
28.0
 40
28.0
 40
28.0
 40
29.0
 40
29.0
 40
29.0
 40
30.0
 40
30.0
 40
30.0
 40
31.0
 40
31.0
 40
31.0
 40
32.0
 40
32.0
 40
32.0
 40
33.0
 40
33.0
 40
33.0
 40
34.0
 40
34.0
 40
34.0
 40
34.0
 10
19.34326643990024
 20
-0.9106894596790117
 10
19.28308492814228
 20
-0.7726918536479729
 10
19.20162995176291
 20
-0.6518120658092692
 10
19.0989230426089
 20
-0.5480716280096835
 10
18.9961946016081
 20
-0.444309658363315
 10
18.8753148137694
 20
-0.3623163858143688
 10
18.73628367909279
 20
-0.3021348740564108
 10
18.59727407626296
 20
-0.2419964259920183
 10
18.44993164872817
 20
-0.2118949041896478
 10
18.29429946018201
 20
-0.2118949041896478
 10
18.13866727163585
 20
-0.2118949041896478
 10
17.99184160842386
 20
-0.2419964259920183
 10
17.85384400239282
 20
-0.3021348740564108
 10
17.71586792820857
 20
-0.3623163858143688
 10
17.59548337284587
 20
-0.444309658363315
 10
17.49277646369186
 20
-0.5480716280096835
 10
17.39006955453785
 20
-0.6518120658092692
 10
17.30913134248126
 20
-0.7726918536479729
 10
17.24998335936887
 20
-0.9106894596790117
 10
17.19085690810327
 20
-1.04868706571005
 10
17.16127215062369
 20
-1.195491197075259
 10
17.16127215062369
 20
-1.351123385621421
 10
17.16127215062369
 20
-1.506777106014365
 10
17.19085690810327
 20
-1.653581237379574
 10
17.24998335936887
 20
-1.791578843410612
 10
17.30913134248126
 20
-1.929576449441651
 10
17.39006955453785
 20
-2.049939472957568
 10
17.49277646369186
 20
-2.152646382111578
 10
17.59548337284587
 20
-2.255353291265589
 10
17.71586792820857
 20
-2.336291503322177
 10
17.85384400239282
 20
-2.39543948643456
 10
17.98536052254223
 20
-2.451788329465178
 10
18.12542518586442
 20
-2.47937062519396
 10
18.27296140002025
 20
-2.482040574195028
 10
18.27296140002025
 20
-2.482040574195028
 10
18.27296140002025
 20
-2.279705809976948
 10
18.27296140002025
 20
-2.279705809976948
 10
18.15449317902122
 20
-2.277078924669446
 10
18.0419031521939
 20
-2.254621208474973
 10
17.93633250741777
 20
-2.208672247440453
 10
17.82428077676002
 20
-2.159902614477386
 10
17.72674151083389
 20
-2.093498398999195
 10
17.64373624148615
 20
-2.009459601005882
 10
17.56073097213841
 20
-1.925399271165786
 10
17.49484352098301
 20
-1.826826476594075
 10
17.44609541986672
 20
-1.713762749137532
 10
17.39732578690365
 20
-1.600655957987423
 10
17.37293020449873
 20
-1.479776170148719
 10
17.37293020449873
 20
-1.351123385621421
 10
17.37293020449873
 20
-1.222492132940905
 10
17.39680902258086
 20
-1.101612345102201
 10
17.44454512689836
 20
-0.9885055539520924
 10
17.49225969936907
 20
-0.8753987628019837
 10
17.55814715052447
 20
-0.7763092039074853
 10
17.64218594851778
 20
-0.6912368772685971
 10
17.7262247465111
 20
-0.6061645506297089
 10
17.82376401243723
 20
-0.539222038981948
 10
17.93478221444941
 20
-0.4904739378656628
 10
18.04580041646159
 20
-0.4417258367493776
 10
18.16562514380793
 20
-0.4173302543444522
 10
18.29429946018201
 20
-0.4173302543444522
 10
18.42088518741816
 20
-0.4173302543444522
 10
18.54070991476451
 20
-0.4417258367493776
 10
18.65379517406783
 20
-0.4904739378656628
 10
18.76690196521794
 20
-0.539222038981948
 10
18.86547475978966
 20
-0.6061645506297089
 10
18.94951355778297
 20
-0.6912368772685971
 10
19.03355235577628
 20
-0.7763092039074853
 10
19.09995657125447
 20
-0.8753987628019837
 10
19.14872620421754
 20
-0.9885055539520924
 10
19.19747430533382
 20
-1.101612345102201
 10
19.22186988773875
 20
-1.222492132940905
 10
19.22186988773875
 20
-1.351123385621421
 10
19.22186988773875
 20
-1.479776170148719
 10
19.19747430533382
 20
-1.600655957987423
 10
19.14872620421754
 20
-1.713762749137532
 10
19.09995657125447
 20
-1.826826476594075
 10
19.03355235577628
 20
-1.925399271165786
 10
18.94951355778297
 20
-2.009459601005882
 10
18.86547475978966
 20
-2.093498398999195
 10
18.76690196521794
 20
-2.159902614477386
 10
18.65379517406783
 20
-2.208672247440453
 10
18.54165731602295
 20
-2.257032775314648
 10
18.4228445854754
 20
-2.281105380017832
 10
18.29740004611874
 20
-2.281514485106705
 10
18.29740004611874
 20
-2.281514485106705
 10
18.29740004611874
 20
-2.483827717478002
 10
18.29740004611874
 20
-2.483827717478002
 10
18.45189104678541
 20
-2.483440144235911
 10
18.5982214775214
 20
-2.454156832611287
 10
18.73628367909279
 20
-2.39543948643456
 10
18.8753148137694
 20
-2.336291503322177
 10
18.9961946016081
 20
-2.255353291265589
 10
19.0989230426089
 20
-2.152646382111578
 10
19.20162995176291
 20
-2.049939472957568
 10
19.28308492814228
 20
-1.929576449441651
 10
19.34326643990024
 20
-1.791578843410612
 10
19.4034479516582
 20
-1.653581237379574
 10
19.43352794161379
 20
-1.506777106014365
 10
19.43352794161379
 20
-1.351123385621421
 10
19.43352794161379
 20
-1.195491197075259
 10
19.4034479516582
 20
-1.04868706571005
 10
19.34326643990024
 20
-0.9106894596790117
 97
        0
 97
        0
 75
     2
 76
     1
 98
        0
  0
SPLINE
  5
55
330
41
100
AcDbEntity
  8
Layer 1
370
     0
100
AcDbSpline
210
0.0
220
0.0
230
1.0
 70
    11
 71
     3
 72
    71
 73
    67
 74
     0
 42
0.0000000001
 43
0.0000000001
 12
1.0
 22
0.0
 32
0.0
 13
1.0
 23
0.0
 33
0.0
 40
0.0
 40
0.0
 40
0.0
 40
0.0
 40
1.0
 40
1.0
 40
1.0
 40
2.0
 40
2.0
 40
2.0
 40
3.0
 40
3.0
 40
3.0
 40
4.0
 40
4.0
 40
4.0
 40
5.0
 40
5.0
 40
5.0
 40
6.0
 40
6.0
 40
6.0
 40
7.0
 40
7.0
 40
7.0
 40
8.0
 40
8.0
 40
8.0
 40
9.0
 40
9.0
 40
9.0
 40
10.0
 40
10.0
 40
10.0
 40
11.0
 40
11.0
 40
11.0
 40
12.0
 40
12.0
 40
12.0
 40
13.0
 40
13.0
 40
13.0
 40
14.0
 40
14.0
 40
14.0
 40
15.0
 40
15.0
 40
15.0
 40
16.0
 40
16.0
 40
16.0
 40
17.0
 40
17.0
 40
17.0
 40
18.0
 40
18.0
 40
18.0
 40
19.0
 40
19.0
 40
19.0
 40
20.0
 40
20.0
 40
20.0
 40
21.0
 40
21.0
 40
21.0
 40
22.0
 40
22.0
 40
22.0
 40
22.0
 10
20.14097560802899
 20
-0.5043404471937933
 30
0.0
 10
20.12723828978156
 20
-0.4710091483740012
 30
0.0
 10
20.1081395416852
 20
-0.4420488144511198
 30
0.0
 10
20.08357170450602
 20
-0.4175025091187147
 30
0.0
 10
20.05906846286718
 20
-0.3929992674798752
 30
0.0
 10
20.03012966079108
 20
-0.3738574556899558
 30
0.0
 10
19.99675529827772
 20
-0.3600986055957393
 30
0.0
 10
19.96340246761115
 20
-0.3463612873483055
 30
0.0
 10
19.92809023888734
 20
-0.3395356919181543
 30
0.0
 10
19.89079708025951
 20
-0.3395356919181543
 30
0.0
 10
19.81229196688938
 20
-0.3395356919181543
 30
0.0
 10
19.74655523866145
 20
-0.3655030991382249
 30
0.0
 10
19.69356536372895
 20
-0.4175025091187147
 30
0.0
 10
19.64059702064324
 20
-0.4695019190992044
 30
0.0
 10
19.6140913172536
 20
-0.5337744817458967
 30
0.0
 10
19.6140913172536
 20
-0.6103201970587915
 30
0.0
 10
19.6140913172536
 20
-0.6868443805249035
 30
0.0
 10
19.64059702064324
 20
-0.7511169431715958
 30
0.0
 10
19.69356536372895
 20
-0.8030948213053027
 30
0.0
 10
19.74582315587084
 20
-0.8544267440355253
 30
0.0
 10
19.81074167392102
 20
-0.8798558550860257
 30
0.0
 10
19.88784721725026
 20
-0.8805664060298585
 30
0.0
 10
19.88784721725026
 20
-0.8805664060298585
 30
0.0
 10
19.88784721725026
 20
-0.777816433182282
 30
0.0
 10
19.88784721725026
 20
-0.777816433182282
 30
0.0
 10
19.841575278514
 20
-0.7770628185448837
 30
0.0
 10
19.80251650844998
 20
-0.7615814207080421
 30
0.0
 10
19.77112307584064
 20
-0.7301664562519202
 30
0.0
 10
19.73895449674712
 20
-0.697976345311617
 30
0.0
 10
19.72289173904714
 20
-0.6580347695295018
 30
0.0
 10
19.72289173904714
 20
-0.6103201970587915
 30
0.0
 10
19.72289173904714
 20
-0.5626056245880813
 30
0.0
 10
19.73895449674712
 20
-0.5226209851124003
 30
0.0
 10
19.77112307584064
 20
-0.4904739378656628
 30
0.0
 10
19.80327012308738
 20
-0.4583053587721425
 30
0.0
 10
19.84321169886949
 20
-0.4422426010721651
 30
0.0
 10
19.89096933503377
 20
-0.4422426010721651
 30
0.0
 10
19.93868390750448
 20
-0.4422426010721651
 30
0.0
 10
19.9786254832866
 20
-0.4583053587721425
 30
0.0
 10
20.01079406238011
 20
-0.4904739378656628
 30
0.0
 10
20.04294110962685
 20
-0.5226209851124003
 30
0.0
 10
20.05902539917361
 20
-0.5626056245880813
 30
0.0
 10
20.05902539917361
 20
-0.6103201970587915
 30
0.0
 10
20.05902539917361
 20
-0.6580347695295018
 30
0.0
 10
20.04294110962685
 20
-0.697976345311617
 30
0.0
 10
20.01079406238011
 20
-0.7301664562519202
 30
0.0
 10
19.98461133669221
 20
-0.756349181939819
 30
0.0
 10
19.95190446142913
 20
-0.7690529715416777
 30
0.0
 10
19.91540798113226
 20
-0.7739191689145931
 30
0.0
 10
19.91540798113226
 20
-0.7739191689145931
 30
0.0
 10
19.91540798113226
 20
-0.8763246322136445
 30
0.0
 10
19.91540798113226
 20
-0.8763246322136445
 30
0.0
 10
19.94333478640957
 20
-0.8738700016804041
 30
0.0
 10
19.97115393245296
 20
-0.8710493297518558
 30
0.0
 10
19.99675529827772
 20
-0.8604987248282782
 30
0.0
 10
20.03012966079108
 20
-0.8467829384276272
 30
0.0
 10
20.05906846286718
 20
-0.8276411266377078
 30
0.0
 10
20.08357170450602
 20
-0.8030948213053027
 30
0.0
 10
20.1081395416852
 20
-0.7785915796664633
 30
0.0
 10
20.12723828978156
 20
-0.7501264782195864
 30
0.0
 10
20.14097560802899
 20
-0.7177641125050208
 30
0.0
 10
20.15471292627643
 20
-0.6853802149436723
 30
0.0
 10
20.16158158540014
 20
-0.649551221897074
 30
0.0
 10
20.16158158540014
 20
-0.6103201970587915
 30
0.0
 10
20.16158158540014
 20
-0.5730485702777448
 30
0.0
 10
20.15471292627643
 20
-0.5377148097071511
 30
0.0
 10
20.14097560802899
 20
-0.5043404471937933
 30
0.0
  0
HATCH
  5
56
330
41
100
AcDbEntity
  8
Layer 1
 62
   250
420
  2301728
100
AcDbHatch
 10
0.0
 20
0.0
 30
0.0
210
0.0
220
0.0
230
1.0
  2
SOLID
 70
     1
 71
     0
 91
        1
 92
        1
 93
        1
 72
     4
 94
        3
 73
     0
 74
     1
 95
       71
 96
       67
 40
0.0
 40
0.0
 40
0.0
 40
0.0
 40
1.0
 40
1.0
 40
1.0
 40
2.0
 40
2.0
 40
2.0
 40
3.0
 40
3.0
 40
3.0
 40
4.0
 40
4.0
 40
4.0
 40
5.0
 40
5.0
 40
5.0
 40
6.0
 40
6.0
 40
6.0
 40
7.0
 40
7.0
 40
7.0
 40
8.0
 40
8.0
 40
8.0
 40
9.0
 40
9.0
 40
9.0
 40
10.0
 40
10.0
 40
10.0
 40
11.0
 40
11.0
 40
11.0
 40
12.0
 40
12.0
 40
12.0
 40
13.0
 40
13.0
 40
13.0
 40
14.0
 40
14.0
 40
14.0
 40
15.0
 40
15.0
 40
15.0
 40
16.0
 40
16.0
 40
16.0
 40
17.0
 40
17.0
 40
17.0
 40
18.0
 40
18.0
 40
18.0
 40
19.0
 40
19.0
 40
19.0
 40
20.0
 40
20.0
 40
20.0
 40
21.0
 40
21.0
 40
21.0
 40
22.0
 40
22.0
 40
22.0
 40
22.0
 10
20.14097560802899
 20
-0.5043404471937933
 10
20.12723828978156
 20
-0.4710091483740012
 10
20.1081395416852
 20
-0.4420488144511198
 10
20.08357170450602
 20
-0.4175025091187147
 10
20.05906846286718
 20
-0.3929992674798752
 10
20.03012966079108
 20
-0.3738574556899558
 10
19.99675529827772
 20
-0.3600986055957393
 10
19.96340246761115
 20
-0.3463612873483055
 10
19.92809023888734
 20
-0.3395356919181543
 10
19.89079708025951
 20
-0.3395356919181543
 10
19.81229196688938
 20
-0.3395356919181543
 10
19.74655523866145
 20
-0.3655030991382249
 10
19.69356536372895
 20
-0.4175025091187147
 10
19.64059702064324
 20
-0.4695019190992044
 10
19.6140913172536
 20
-0.5337744817458967
 10
19.6140913172536
 20
-0.6103201970587915
 10
19.6140913172536
 20
-0.6868443805249035
 10
19.64059702064324
 20
-0.7511169431715958
 10
19.69356536372895
 20
-0.8030948213053027
 10
19.74582315587084
 20
-0.8544267440355253
 10
19.81074167392102
 20
-0.8798558550860257
 10
19.88784721725026
 20
-0.8805664060298585
 10
19.88784721725026
 20
-0.8805664060298585
 10
19.88784721725026
 20
-0.777816433182282
 10
19.88784721725026
 20
-0.777816433182282
 10
19.841575278514
 20
-0.7770628185448837
 10
19.80251650844998
 20
-0.7615814207080421
 10
19.77112307584064
 20
-0.7301664562519202
 10
19.73895449674712
 20
-0.697976345311617
 10
19.72289173904714
 20
-0.6580347695295018
 10
19.72289173904714
 20
-0.6103201970587915
 10
19.72289173904714
 20
-0.5626056245880813
 10
19.73895449674712
 20
-0.5226209851124003
 10
19.77112307584064
 20
-0.4904739378656628
 10
19.80327012308738
 20
-0.4583053587721425
 10
19.84321169886949
 20
-0.4422426010721651
 10
19.89096933503377
 20
-0.4422426010721651
 10
19.93868390750448
 20
-0.4422426010721651
 10
19.9786254832866
 20
-0.4583053587721425
 10
20.01079406238011
 20
-0.4904739378656628
 10
20.04294110962685
 20
-0.5226209851124003
 10
20.05902539917361
 20
-0.5626056245880813
 10
20.05902539917361
 20
-0.6103201970587915
 10
20.05902539917361
 20
-0.6580347695295018
 10
20.04294110962685
 20
-0.697976345311617
 10
20.01079406238011
 20
-0.7301664562519202
 10
19.98461133669221
 20
-0.756349181939819
 10
19.95190446142913
 20
-0.7690529715416777
 10
19.91540798113226
 20
-0.7739191689145931
 10
19.91540798113226
 20
-0.7739191689145931
 10
19.91540798113226
 20
-0.8763246322136445
 10
19.91540798113226
 20
-0.8763246322136445
 10
19.94333478640957
 20
-0.8738700016804041
 10
19.97115393245296
 20
-0.8710493297518558
 10
19.99675529827772
 20
-0.8604987248282782
 10
20.03012966079108
 20
-0.8467829384276272
 10
20.05906846286718
 20
-0.8276411266377078
 10
20.08357170450602
 20
-0.8030948213053027
 10
20.1081395416852
 20
-0.7785915796664633
 10
20.12723828978156
 20
-0.7501264782195864
 10
20.14097560802899
 20
-0.7177641125050208
 10
20.15471292627643
 20
-0.6853802149436723
 10
20.16158158540014
 20
-0.649551221897074
 10
20.16158158540014
 20
-0.6103201970587915
 10
20.16158158540014
 20
-0.5730485702777448
 10
20.15471292627643
 20
-0.5377148097071511
 10
20.14097560802899
 20
-0.5043404471937933
 97
        0
 97
        0
 75
     2
 76
     1
 98
        0
  0
ENDBLK
  5
44
330
41
100
AcDbEntity
  8
0
100
AcDbBlockEnd
  0
ENDSEC
  0
SECTION
  2
ENTITIES
  0
INSERT
  5
42
330
1F
100
AcDbEntity
  8
Layer 1
100
AcDbBlockReference
  2
block 2
 10
0.0
 20
0.0
 30
0.0
  0
ENDSEC
  0
SECTION
  2
OBJECTS
  0
DICTIONARY
  5
C
330
0
100
AcDbDictionary
281
     1
  3
ACAD_GROUP
350
D
  3
ACAD_LAYOUT
350
1A
  3
ACAD_MATERIAL
350
3B
  3
ACAD_MLEADERSTYLE
350
58
  3
ACAD_MLINESTYLE
350
17
  3
ACAD_PLOTSETTINGS
350
19
  3
ACAD_PLOTSTYLENAME
350
E
  3
ACAD_TABLESTYLE
350
57
  3
ACAD_VISUALSTYLE
350
2A
  0
SUN
  5
3F
330
29
100
AcDbSun
 90
        1
290
     0
 63
     7
421
 16777215
 40
1.0
291
     1
 91
  2455826
 92
 54000000
292
     0
 70
     2
 71
   256
280
     1
  0
DICTIONARY
  5
D
102
{ACAD_REACTORS
330
C
102
}
330
C
100
AcDbDictionary
281
     1
  0
DICTIONARY
  5
1A
102
{ACAD_REACTORS
330
C
102
}
330
C
100
AcDbDictionary
281
     1
  3
Layout1
350
1E
  3
Layout2
350
26
  3
Model
350
22
  0
DICTIONARY
  5
3B
102
{ACAD_REACTORS
330
C
102
}
330
C
100
AcDbDictionary
281
     1
  3
ByBlock
350
3D
  3
ByLayer
350
3C
  3
Global
350
3E
  0
DICTIONARY
  5
58
102
{ACAD_REACTORS
330
C
102
}
330
C
100
AcDbDictionary
281
     1
  0
DICTIONARY
  5
17
102
{ACAD_REACTORS
330
C
102
}
330
C
100
AcDbDictionary
281
     1
  3
Standard
350
18
  0
DICTIONARY
  5
19
102
{ACAD_REACTORS
330
C
102
}
330
C
100
AcDbDictionary
281
     1
  0
ACDBDICTIONARYWDFLT
  5
E
102
{ACAD_REACTORS
330
C
102
}
330
C
100
AcDbDictionary
281
     1
  3
Normal
350
F
100
AcDbDictionaryWithDefault
340
F
  0
DICTIONARY
  5
57
102
{ACAD_REACTORS
330
C
102
}
330
C
100
AcDbDictionary
281
     1
  0
DICTIONARY
  5
2A
102
{ACAD_REACTORS
330
C
102
}
330
C
100
AcDbDictionary
281
     1
  3
2dWireframe
350
2F
  3
3D Hidden
350
31
  3
3dWireframe
350
30
  3
Basic
350
32
  3
Brighten
350
36
  3
ColorChange
350
3A
  3
Conceptual
350
34
  3
Dim
350
35
  3
Facepattern
350
39
  3
Flat
350
2B
  3
FlatWithEdges
350
2C
  3
Gouraud
350
2D
  3
GouraudWithEdges
350
2E
  3
Linepattern
350
38
  3
Realistic
350
33
  3
Thicken
350
37
  0
LAYOUT
  5
1E
102
{ACAD_REACTORS
330
1A
102
}
330
1A
100
AcDbPlotSettings
  1

  2
none_device
  4

  6

 40
0.0
 41
0.0
 42
0.0
 43
0.0
 44
0.0
 45
0.0
 46
0.0
 47
0.0
 48
0.0
 49
0.0
140
0.0
141
0.0
142
1.0
143
1.0
 70
   688
 72
     0
 73
     0
 74
     5
  7

 75
    16
 76
     0
 77
     2
 78
   300
147
1.0
148
0.0
149
0.0
100
AcDbLayout
  1
Layout1
 70
     1
 71
     1
 10
0.0
 20
0.0
 11
12.0
 21
9.0
 12
0.0
 22
0.0
 32
0.0
 14
1.000000000000000E+20
 24
1.000000000000000E+20
 34
1.000000000000000E+20
 15
-1.000000000000000E+20
 25
-1.000000000000000E+20
 35
-1.000000000000000E+20
146
0.0
 13
0.0
 23
0.0
 33
0.0
 16
1.0
 26
0.0
 36
0.0
 17
0.0
 27
1.0
 37
0.0
 76
     0
330
1B
  0
LAYOUT
  5
26
102
{ACAD_REACTORS
330
1A
102
}
330
1A
100
AcDbPlotSettings
  1

  2
none_device
  4

  6

 40
0.0
 41
0.0
 42
0.0
 43
0.0
 44
0.0
 45
0.0
 46
0.0
 47
0.0
 48
0.0
 49
0.0
140
0.0
141
0.0
142
1.0
143
1.0
 70
   688
 72
     0
 73
     0
 74
     5
  7

 75
    16
 76
     0
 77
     2
 78
   300
147
1.0
148
0.0
149
0.0
100
AcDbLayout
  1
Layout2
 70
     1
 71
     2
 10
0.0
 20
0.0
 11
0.0
 21
0.0
 12
0.0
 22
0.0
 32
0.0
 14
0.0
 24
0.0
 34
0.0
 15
0.0
 25
0.0
 35
0.0
146
0.0
 13
0.0
 23
0.0
 33
0.0
 16
1.0
 26
0.0
 36
0.0
 17
0.0
 27
1.0
 37
0.0
 76
     0
330
23
  0
LAYOUT
  5
22
102
{ACAD_REACTORS
330
1A
102
}
330
1A
100
AcDbPlotSettings
  1

  2
none_device
  4

  6

 40
0.0
 41
0.0
 42
0.0
 43
0.0
 44
0.0
 45
0.0
 46
0.0
 47
0.0
 48
0.0
 49
0.0
140
0.0
141
0.0
142
1.0
143
1.0
 70
  1712
 72
     0
 73
     0
 74
     0
  7

 75
     0
 76
     0
 77
     2
 78
   300
147
1.0
148
0.0
149
0.0
100
AcDbLayout
  1
Model
 70
     1
 71
     0
 10
0.0
 20
0.0
 11
12.0
 21
9.0
 12
0.0
 22
0.0
 32
0.0
 14
1.000000000000000E+20
 24
1.000000000000000E+20
 34
1.000000000000000E+20
 15
-1.000000000000000E+20
 25
-1.000000000000000E+20
 35
-1.000000000000000E+20
146
0.0
 13
0.0
 23
0.0
 33
0.0
 16
1.0
 26
0.0
 36
0.0
 17
0.0
 27
1.0
 37
0.0
 76
     0
330
1F
331
29
  0
MATERIAL
  5
3D
102
{ACAD_REACTORS
330
3B
102
}
330
3B
100
AcDbMaterial
  1
ByBlock
 72
     1
 94
      127
  0
MATERIAL
  5
3C
102
{ACAD_REACTORS
330
3B
102
}
330
3B
100
AcDbMaterial
  1
ByLayer
 72
     1
 94
      127
  0
MATERIAL
  5
3E
102
{ACAD_REACTORS
330
3B
102
}
330
3B
100
AcDbMaterial
  1
Global
 72
     1
 94
      127
  0
MLINESTYLE
  5
18
102
{ACAD_REACTORS
330
17
102
}
330
17
100
AcDbMlineStyle
  2
Standard
 70
     0
  3

 62
   256
 51
90.0
 52
90.0
 71
     2
 49
0.5
 62
   256
  6
BYLAYER
 49
-0.5
 62
   256
  6
BYLAYER
  0
ACDBPLACEHOLDER
  5
F
102
{ACAD_REACTORS
330
E
102
}
330
E
  0
VISUALSTYLE
  5
2F
102
{ACAD_REACTORS
330
2A
102
}
330
2A
100
AcDbVisualStyle
  2
2dWireframe
 70
     4
177
     2
291
     0
 71
     0
176
     1
 72
     2
176
     1
 73
     0
176
     1
 90
        0
176
     1
 40
-0.6
176
     1
 41
-30.0
176
     1
 62
     5
 63
     7
421
 16777215
176
     1
 74
     1
176
     1
 91
        4
176
     1
 64
     7
176
     1
 65
   257
176
     1
 75
     1
176
     1
175
     1
176
     1
 42
1.0
176
     1
 92
        0
176
     1
 66
   257
176
     1
 43
1.0
176
     1
 76
     1
176
     1
 77
     6
176
     1
 78
     2
176
     1
 67
     7
176
     1
 79
     5
176
     1
170
     0
176
     1
171
     0
176
     1
290
     0
176
     1
 93
        1
176
     1
 44
0.0
176
     1
173
     0
176
     1
  0
VISUALSTYLE
  5
31
102
{ACAD_REACTORS
330
2A
102
}
330
2A
100
AcDbVisualStyle
  2
3D Hidden
 70
     6
177
     2
291
     0
 71
     1
176
     1
 72
     2
176
     1
 73
     2
176
     1
 90
        0
176
     1
 40
-0.6
176
     1
 41
-30.0
176
     1
 62
     5
 63
     7
421
 16777215
176
     1
 74
     2
176
     1
 91
        2
176
     1
 64
     7
176
     1
 65
   257
176
     1
 75
     2
176
     1
175
     1
176
     1
 42
40.0
176
     1
 92
        0
176
     1
 66
   257
176
     1
 43
1.0
176
     1
 76
     1
176
     1
 77
     6
176
     1
 78
     2
176
     1
 67
     7
176
     1
 79
     3
176
     1
170
     0
176
     1
171
     0
176
     1
290
     0
176
     1
 93
        1
176
     1
 44
0.0
176
     1
173
     0
176
     1
  0
VISUALSTYLE
  5
30
102
{ACAD_REACTORS
330
2A
102
}
330
2A
100
AcDbVisualStyle
  2
3dWireframe
 70
     5
177
     2
291
     0
 71
     0
176
     1
 72
     2
176
     1
 73
     0
176
     1
 90
        0
176
     1
 40
-0.6
176
     1
 41
-30.0
176
     1
 62
     5
 63
     7
421
 16777215
176
     1
 74
     1
176
     1
 91
        4
176
     1
 64
     7
176
     1
 65
   257
176
     1
 75
     1
176
     1
175
     1
176
     1
 42
1.0
176
     1
 92
        0
176
     1
 66
   257
176
     1
 43
1.0
176
     1
 76
     1
176
     1
 77
     6
176
     1
 78
     2
176
     1
 67
     7
176
     1
 79
     5
176
     1
170
     0
176
     1
171
     0
176
     1
290
     0
176
     1
 93
        1
176
     1
 44
0.0
176
     1
173
     0
176
     1
  0
VISUALSTYLE
  5
32
102
{ACAD_REACTORS
330
2A
102
}
330
2A
100
AcDbVisualStyle
  2
Basic
 70
     7
177
     2
291
     1
 71
     1
176
     1
 72
     0
176
     1
 73
     1
176
     1
 90
        0
176
     1
 40
-0.6
176
     1
 41
-30.0
176
     1
 62
     5
 63
     7
421
 16777215
176
     1
 74
     0
176
     1
 91
        4
176
     1
 64
     7
176
     1
 65
   257
176
     1
 75
     1
176
     1
175
     1
176
     1
 42
1.0
176
     1
 92
        8
176
     1
 66
     7
176
     1
 43
1.0
176
     1
 76
     1
176
     1
 77
     6
176
     1
 78
     2
176
     1
 67
     7
176
     1
 79
     5
176
     1
170
     0
176
     1
171
     0
176
     1
290
     0
176
     1
 93
        1
176
     1
 44
0.0
176
     1
173
     0
176
     1
  0
VISUALSTYLE
  5
36
102
{ACAD_REACTORS
330
2A
102
}
330
2A
100
AcDbVisualStyle
  2
Brighten
 70
    12
177
     2
291
     1
 71
     2
176
     1
 72
     2
176
     1
 73
     0
176
     1
 90
        0
176
     1
 40
-0.6
176
     1
 41
-30.0
176
     1
 62
     5
 63
     7
421
 16777215
176
     1
 74
     1
176
     1
 91
        4
176
     1
 64
     7
176
     1
 65
   257
176
     1
 75
     1
176
     1
175
     1
176
     1
 42
1.0
176
     1
 92
        8
176
     1
 66
     7
176
     1
 43
1.0
176
     1
 76
     1
176
     1
 77
     6
176
     1
 78
     2
176
     1
 67
     7
176
     1
 79
     5
176
     1
170
     0
176
     1
171
     0
176
     1
290
     0
176
     1
 93
        1
176
     1
 44
50.0
176
     1
173
     0
176
     1
  0
VISUALSTYLE
  5
3A
102
{ACAD_REACTORS
330
2A
102
}
330
2A
100
AcDbVisualStyle
  2
ColorChange
 70
    16
177
     2
291
     1
 71
     2
176
     1
 72
     2
176
     1
 73
     3
176
     1
 90
        0
176
     1
 40
-0.6
176
     1
 41
-30.0
176
     1
 62
     5
 63
     8
421
  8421504
176
     1
 74
     1
176
     1
 91
        4
176
     1
 64
     7
176
     1
 65
   257
176
     1
 75
     1
176
     1
175
     1
176
     1
 42
1.0
176
     1
 92
        8
176
     1
 66
     8
424
  8421504
176
     1
 43
1.0
176
     1
 76
     1
176
     1
 77
     6
176
     1
 78
     2
176
     1
 67
     7
176
     1
 79
     5
176
     1
170
     0
176
     1
171
     0
176
     1
290
     0
176
     1
 93
        1
176
     1
 44
0.0
176
     1
173
     0
176
     1
  0
VISUALSTYLE
  5
34
102
{ACAD_REACTORS
330
2A
102
}
330
2A
100
AcDbVisualStyle
  2
Conceptual
 70
     9
177
     2
291
     0
 71
     3
176
     1
 72
     2
176
     1
 73
     0
176
     1
 90
        0
176
     1
 40
-0.6
176
     1
 41
-30.0
176
     1
 62
     5
 63
     7
421
 16777215
176
     1
 74
     2
176
     1
 91
        2
176
     1
 64
     7
176
     1
 65
   257
176
     1
 75
     1
176
     1
175
     1
176
     1
 42
40.0
176
     1
 92
        8
176
     1
 66
     7
176
     1
 43
1.0
176
     1
 76
     1
176
     1
 77
     6
176
     1
 78
     2
176
     1
 67
     7
176
     1
 79
     3
176
     1
170
     0
176
     1
171
     0
176
     1
290
     0
176
     1
 93
        1
176
     1
 44
0.0
176
     1
173
     0
176
     1
  0
VISUALSTYLE
  5
35
102
{ACAD_REACTORS
330
2A
102
}
330
2A
100
AcDbVisualStyle
  2
Dim
 70
    11
177
     2
291
     1
 71
     2
176
     1
 72
     2
176
     1
 73
     0
176
     1
 90
        0
176
     1
 40
-0.6
176
     1
 41
-30.0
176
     1
 62
     5
 63
     7
421
 16777215
176
     1
 74
     1
176
     1
 91
        4
176
     1
 64
     7
176
     1
 65
   257
176
     1
 75
     1
176
     1
175
     1
176
     1
 42
1.0
176
     1
 92
        8
176
     1
 66
     7
176
     1
 43
1.0
176
     1
 76
     1
176
     1
 77
     6
176
     1
 78
     2
176
     1
 67
     7
176
     1
 79
     5
176
     1
170
     0
176
     1
171
     0
176
     1
290
     0
176
     1
 93
        1
176
     1
 44
-50.0
176
     1
173
     0
176
     1
  0
VISUALSTYLE
  5
39
102
{ACAD_REACTORS
330
2A
102
}
330
2A
100
AcDbVisualStyle
  2
Facepattern
 70
    15
177
     2
291
     1
 71
     2
176
     1
 72
     2
176
     1
 73
     0
176
     1
 90
        0
176
     1
 40
-0.6
176
     1
 41
-30.0
176
     1
 62
     5
 63
     7
421
 16777215
176
     1
 74
     1
176
     1
 91
        4
176
     1
 64
     7
176
     1
 65
   257
176
     1
 75
     1
176
     1
175
     1
176
     1
 42
1.0
176
     1
 92
        8
176
     1
 66
     7
176
     1
 43
1.0
176
     1
 76
     1
176
     1
 77
     6
176
     1
 78
     2
176
     1
 67
     7
176
     1
 79
     5
176
     1
170
     0
176
     1
171
     0
176
     1
290
     0
176
     1
 93
        1
176
     1
 44
0.0
176
     1
173
     0
176
     1
  0
VISUALSTYLE
  5
2B
102
{ACAD_REACTORS
330
2A
102
}
330
2A
100
AcDbVisualStyle
  2
Flat
 70
     0
177
     2
291
     1
 71
     2
176
     1
 72
     1
176
     1
 73
     1
176
     1
 90
        2
176
     1
 40
-0.6
176
     1
 41
30.0
176
     1
 62
     5
 63
     7
421
 16777215
176
     1
 74
     0
176
     1
 91
        4
176
     1
 64
     7
176
     1
 65
   257
176
     1
 75
     1
176
     1
175
     1
176
     1
 42
1.0
176
     1
 92
        8
176
     1
 66
     7
176
     1
 43
1.0
176
     1
 76
     1
176
     1
 77
     6
176
     1
 78
     2
176
     1
 67
     7
176
     1
 79
     5
176
     1
170
     0
176
     1
171
     0
176
     1
290
     0
176
     1
 93
       13
176
     1
 44
0.0
176
     1
173
     0
176
     1
  0
VISUALSTYLE
  5
2C
102
{ACAD_REACTORS
330
2A
102
}
330
2A
100
AcDbVisualStyle
  2
FlatWithEdges
 70
     1
177
     2
291
     1
 71
     2
176
     1
 72
     1
176
     1
 73
     1
176
     1
 90
        2
176
     1
 40
-0.6
176
     1
 41
30.0
176
     1
 62
     5
 63
     7
421
 16777215
176
     1
 74
     1
176
     1
 91
        4
176
     1
 64
     7
176
     1
 65
   257
176
     1
 75
     1
176
     1
175
     1
176
     1
 42
1.0
176
     1
 92
        0
176
     1
 66
   257
176
     1
 43
1.0
176
     1
 76
     1
176
     1
 77
     6
176
     1
 78
     2
176
     1
 67
     7
176
     1
 79
     5
176
     1
170
     0
176
     1
171
     0
176
     1
290
     0
176
     1
 93
       13
176
     1
 44
0.0
176
     1
173
     0
176
     1
  0
VISUALSTYLE
  5
2D
102
{ACAD_REACTORS
330
2A
102
}
330
2A
100
AcDbVisualStyle
  2
Gouraud
 70
     2
177
     2
291
     1
 71
     2
176
     1
 72
     2
176
     1
 73
     1
176
     1
 90
        2
176
     1
 40
-0.6
176
     1
 41
30.0
176
     1
 62
     5
 63
     7
421
 16777215
176
     1
 74
     0
176
     1
 91
        4
176
     1
 64
     7
176
     1
 65
   257
176
     1
 75
     1
176
     1
175
     1
176
     1
 42
1.0
176
     1
 92
        0
176
     1
 66
     7
176
     1
 43
1.0
176
     1
 76
     1
176
     1
 77
     6
176
     1
 78
     2
176
     1
 67
     7
176
     1
 79
     5
176
     1
170
     0
176
     1
171
     0
176
     1
290
     0
176
     1
 93
       13
176
     1
 44
0.0
176
     1
173
     0
176
     1
  0
VISUALSTYLE
  5
2E
102
{ACAD_REACTORS
330
2A
102
}
330
2A
100
AcDbVisualStyle
  2
GouraudWithEdges
 70
     3
177
     2
291
     1
 71
     2
176
     1
 72
     2
176
     1
 73
     1
176
     1
 90
        2
176
     1
 40
-0.6
176
     1
 41
30.0
176
     1
 62
     5
 63
     7
421
 16777215
176
     1
 74
     1
176
     1
 91
        4
176
     1
 64
     7
176
     1
 65
   257
176
     1
 75
     1
176
     1
175
     1
176
     1
 42
1.0
176
     1
 92
        0
176
     1
 66
   257
176
     1
 43
1.0
176
     1
 76
     1
176
     1
 77
     6
176
     1
 78
     2
176
     1
 67
     7
176
     1
 79
     5
176
     1
170
     0
176
     1
171
     0
176
     1
290
     0
176
     1
 93
       13
176
     1
 44
0.0
176
     1
173
     0
176
     1
  0
VISUALSTYLE
  5
38
102
{ACAD_REACTORS
330
2A
102
}
330
2A
100
AcDbVisualStyle
  2
Linepattern
 70
    14
177
     2
291
     1
 71
     2
176
     1
 72
     2
176
     1
 73
     0
176
     1
 90
        0
176
     1
 40
-0.6
176
     1
 41
-30.0
176
     1
 62
     5
 63
     7
421
 16777215
176
     1
 74
     1
176
     1
 91
        4
176
     1
 64
     7
176
     1
 65
   257
176
     1
 75
     7
176
     1
175
     7
176
     1
 42
1.0
176
     1
 92
        8
176
     1
 66
     7
176
     1
 43
1.0
176
     1
 76
     1
176
     1
 77
     6
176
     1
 78
     2
176
     1
 67
     7
176
     1
 79
     5
176
     1
170
     0
176
     1
171
     0
176
     1
290
     0
176
     1
 93
        1
176
     1
 44
0.0
176
     1
173
     0
176
     1
  0
VISUALSTYLE
  5
33
102
{ACAD_REACTORS
330
2A
102
}
330
2A
100
AcDbVisualStyle
  2
Realistic
 70
     8
177
     2
291
     0
 71
     2
176
     1
 72
     2
176
     1
 73
     0
176
     1
 90
        0
176
     1
 40
-0.6
176
     1
 41
-30.0
176
     1
 62
     5
 63
     7
421
 16777215
176
     1
 74
     1
176
     1
 91
        0
176
     1
 64
     7
176
     1
 65
   257
176
     1
 75
     1
176
     1
175
     1
176
     1
 42
1.0
176
     1
 92
        8
176
     1
 66
     8
424
  7895160
176
     1
 43
1.0
176
     1
 76
     1
176
     1
 77
     6
176
     1
 78
     2
176
     1
 67
     7
176
     1
 79
     5
176
     1
170
     0
176
     1
171
     0
176
     1
290
     0
176
     1
 93
       13
176
     1
 44
0.0
176
     1
173
     0
176
     1
  0
VISUALSTYLE
  5
37
102
{ACAD_REACTORS
330
2A
102
}
330
2A
100
AcDbVisualStyle
  2
Thicken
 70
    13
177
     2
291
     1
 71
     2
176
     1
 72
     2
176
     1
 73
     0
176
     1
 90
        0
176
     1
 40
-0.6
176
     1
 41
-30.0
176
     1
 62
     5
 63
     7
421
 16777215
176
     1
 74
     1
176
     1
 91
        4
176
     1
 64
     7
176
     1
 65
   257
176
     1
 75
     1
176
     1
175
     1
176
     1
 42
1.0
176
     1
 92
       12
176
     1
 66
     7
176
     1
 43
1.0
176
     1
 76
     1
176
     1
 77
     6
176
     1
 78
     2
176
     1
 67
     7
176
     1
 79
     5
176
     1
170
     0
176
     1
171
     0
176
     1
290
     0
176
     1
 93
        1
176
     1
 44
0.0
176
     1
173
     0
176
     1
  0
ENDSEC
  0
EOF
